<?xml version="1.0" encoding="utf-8"?>
<!-- Generator: Adobe Illustrator 19.2.0, SVG Export Plug-In . SVG Version: 6.00 Build 0)  -->
<svg version="1.1" id="Layer_1" xmlns="http://www.w3.org/2000/svg" xmlns:xlink="http://www.w3.org/1999/xlink" x="0px" y="0px"
	 viewBox="0 0 250 250" style="enable-background:new 0 0 250 250;" xml:space="preserve">
<style type="text/css">
	.st0{fill:#F3F3F3;}
	.st1{fill:#EBEBEA;}
	.st2{fill:#E2E3E3;}
	.st3{fill:none;}
	.st4{fill:#FFFFFF;}
	.st5{fill:#D8D9D8;}
	.st6{fill:#8B8B8B;}
	.st7{fill:#B8B8B8;}
	.st8{fill:#787777;}
	.st9{fill:#BBBBBB;}
	.st10{fill:#9A9999;}
	.st11{clip-path:url(#SVGID_2_);fill:#9A9999;}
	.st12{clip-path:url(#SVGID_4_);}
	.st13{clip-path:url(#SVGID_6_);fill:#DCDBDB;}
	.st14{fill:#DCDBDB;}
	.st15{fill:#F3DAC9;}
	.st16{clip-path:url(#SVGID_8_);fill:#DEDFE0;}
	.st17{fill:#DEDFE0;}
	.st18{fill:#F1D7C7;}
	.st19{clip-path:url(#SVGID_10_);fill:#F1D7C7;}
	.st20{fill:#373838;}
	.st21{fill:#383938;}
	.st22{fill:#979797;}
	.st23{fill:#4A4A4C;}
	.st24{fill:#D69D6E;}
	.st25{fill:#3D322A;}
	.st26{fill:#F5AF82;}
	.st27{fill:#D39A6D;}
	.st28{clip-path:url(#SVGID_12_);fill:#F2D2BF;}
	.st29{clip-path:url(#SVGID_14_);fill:#DEDFE0;}
	.st30{fill:#898989;}
	.st31{fill:#EED4C5;}
	.st32{clip-path:url(#SVGID_16_);fill:#F1D7C7;}
	.st33{fill:#F4F4F4;}
</style>
<g>
	<path class="st0" d="M250,125c0,69-56,125-125,125S0,194,0,125S56,0,125,0S250,56,250,125"/>
	<path class="st1" d="M169.1,242c-5.6,2.1-11.3,3.8-17.2,5.1C157.8,245.8,163.5,244.1,169.1,242 M247.3,151.1
		c-5.2,24.3-17.4,46-34.5,62.9h0C229.9,197.1,242.1,175.4,247.3,151.1"/>
	<path class="st2" d="M169.5,241.3H159l0,4c-2.4,0.7-4.7,1.3-7.2,1.8v0c5.9-1.3,11.7-3,17.2-5.1
		C169.2,241.8,169.4,241.6,169.5,241.3 M172.3,141.5c-4,5.7-10.6,9.4-18.1,9.4c-0.8,0-1.6,0-2.4-0.1v6.6c0.2,0,0.4,0.1,0.6,0.1
		c0.2,0,0.5,0,0.7,0c5.1,0,11.2-4.3,17.1-11.1l0.3-0.3c0.4-0.5,0.8-0.9,1.2-1.4c0.1-0.2,0.2-0.3,0.4-0.5c0.4-0.5,0.7-1,1.1-1.5
		c0.1-0.2,0.2-0.3,0.4-0.5C173.1,142,172.7,141.8,172.3,141.5 M209.6,139.7c-5.6,4.2-12.5,6.6-20,6.6c-0.1,0-0.2,0-0.3,0
		c-2.4,3.7-5,7.1-7.7,10.3l0,0c-1.7,2-3.5,3.8-5.3,5.5c3.2,2.4,5.4,6.2,5.7,10.4c0.9-0.2,1.9-0.3,2.8-0.3c4.4,0,8.3,2.4,10.3,6
		c0.7,0.6,1.4,1.3,1.9,2c0.1,0,0.1,0,0.2,0c3.1,0,5.8,1.8,7,4.4c2,1.9,3.3,4.6,3.3,7.7c0,4.1-2.4,7.6-5.8,9.4
		c1.4,3.3,2.1,7,2.1,10.8c0,0.5,0,1,0,1.5h9c17.1-16.8,29.3-38.5,34.5-62.9c-2.6,0.5-5.4,0.8-8.2,0.8
		C227.6,151.9,217.1,147.2,209.6,139.7"/>
	<path class="st1" d="M249.9,121.4c0,1.2,0.1,2.4,0.1,3.6c0,9-0.9,17.7-2.7,26.1h0c1.8-8.4,2.7-17.2,2.7-26.1
		C250,123.8,250,122.6,249.9,121.4C249.9,121.4,249.9,121.4,249.9,121.4 M236.7,68.9c7.3,14.5,11.8,30.6,13,47.6c0,0,0,0,0,0
		C248.6,99.4,244,83.4,236.7,68.9"/>
	<path class="st2" d="M236.7,68.9c-12,0.7-22.6,6.4-29.7,15.1c9.7,5.9,16.2,16.6,16.2,28.7c0,11-5.3,20.8-13.6,27
		c7.5,7.6,17.9,12.3,29.5,12.3c2.8,0,5.5-0.3,8.2-0.8c1.8-8.4,2.7-17.2,2.7-26.1c0-1.2,0-2.4-0.1-3.6c-0.2-1.3-0.2-2.7-0.2-4.1
		c0-0.3,0-0.6,0-0.8C248.6,99.5,244,83.4,236.7,68.9"/>
	<path class="st2" d="M189.6,79.1c-0.9,0-1.8,0-2.7,0.1c-0.8,10.1-6.1,18.9-13.8,24.5c-0.3,3.6-1,7.2-2,10.9
		c3.3,3.9,5.2,8.8,5.2,14.3c0,4.7-1.5,9.1-4,12.7c0.4,0.2,0.8,0.5,1.2,0.7c0,0,0,0,0-0.1c0.4-0.5,0.7-1,1.1-1.5
		c5-7.1,9.6-15.9,12.6-25l-0.2,0l1.6-6.2l-2.8-9.1c-0.2-0.6-0.1-1.3,0.4-1.7c0.1-0.1,0.2-0.2,0.4-0.2c0.2-0.1,0.4-0.1,0.6-0.1
		c0.1,0,0.2,0,0.4,0c0.4,0.1,0.8,0.4,1,0.9l1.8,3.5l1.3-4.9l1.3-5.2l1.2-5.1c0-0.1,0-0.1,0.1-0.2c0.1-0.3,0.4-0.5,0.6-0.7
		c0,0,0,0,0,0c0,0,0,0,0,0c0.2-0.1,0.4-0.1,0.6-0.1c0.1,0,0.2,0,0.3,0c0.1,0,0.3,0.1,0.4,0.2c0.5,0.3,0.7,0.9,0.6,1.4l-2.3,9.2
		l-0.3,1.4c0,0.4,0.3,0.8,0.7,0.9c0.1,0,0.1,0,0.2,0c0.2,0,0.4-0.1,0.6-0.2c0-0.1,0-0.2,0-0.3l0.6-2.6l2.2-9.1c0.1-0.6,0.7-1,1.3-1
		c0,0,0,0,0,0c0.1,0,0.2,0,0.3,0c0.5,0.1,0.9,0.6,1,1.1c0,0.2,0,0.3,0,0.5l-2.2,8.8l-0.7,2.9c0,0.1,0,0.1,0,0.2
		c0.1,0.3,0.3,0.6,0.7,0.7c0.1,0,0.2,0,0.2,0c0.3,0,0.5-0.1,0.7-0.3c0,0,0-0.1,0-0.1l2.6-10.6c0.1-0.6,0.7-1,1.3-1
		c0.1,0,0.2,0,0.3,0c0.2,0.1,0.4,0.2,0.6,0.3c0.1,0.1,0.2,0.2,0.3,0.3c0.1,0.2,0.2,0.4,0.2,0.6c0,0,0,0,0,0c0,0.1,0,0.2,0,0.3
		l-2.6,10.6l0,0c0,0.1-0.1,0.2-0.1,0.3c0.1,0.2,0.3,0.4,0.6,0.4c0.1,0,0.1,0,0.2,0c0.2,0,0.4-0.1,0.6-0.2c0-0.1,0-0.2,0-0.3l0.4-1.7
		l1.6-6.4c0-0.1,0.1-0.2,0.1-0.3c0.1-0.3,0.4-0.5,0.6-0.6c0,0,0,0,0,0s0,0,0,0c0.2-0.1,0.3-0.1,0.5-0.1c0,0,0,0,0,0
		c0.1,0,0.2,0,0.3,0c0.4,0.1,0.7,0.4,0.9,0.8c0.1,0.2,0.1,0.3,0.1,0.5v0.1c0,0.1,0,0.2,0,0.3l-1.7,6.7l-0.3,1.1l-0.1,0.4l-1.9,8.4
		c-2.5,11.5-8,24.7-15.3,35.9c0.1,0,0.2,0,0.3,0c7.5,0,14.4-2.5,20-6.6c8.2-6.1,13.6-15.9,13.6-27c0-12.2-6.5-22.8-16.2-28.7
		C201.9,80.9,196,79.1,189.6,79.1"/>
	<path class="st2" d="M171.1,114.5c-0.4,1.4-0.8,2.7-1.4,4.1c-3.8,10-10,18.4-17.9,24.7v7.5c0.8,0.1,1.6,0.1,2.4,0.1
		c7.5,0,14.1-3.7,18.1-9.4c2.5-3.6,4-8,4-12.7C176.3,123.4,174.4,118.4,171.1,114.5"/>
	<path class="st1" d="M249.7,116.5C249.7,116.5,249.7,116.5,249.7,116.5c0.1,1.6,0.2,3.3,0.2,4.9c0,0,0,0,0,0
		C249.9,119.8,249.8,118.1,249.7,116.5"/>
	<path class="st2" d="M249.7,116.5c0,0.3,0,0.6,0,0.8c0,1.4,0.1,2.7,0.2,4.1C249.9,119.8,249.8,118.1,249.7,116.5"/>
	<path class="st2" d="M12,78.2H9.1c-0.6,1.6-1.2,3.2-1.8,4.8C8.6,81.2,10.2,79.5,12,78.2"/>
	<path class="st1" d="M151.9,247.1c-8.7,1.9-17.6,2.9-26.9,2.9C134.2,250,143.2,249,151.9,247.1"/>
	<path class="st2" d="M151.9,247.1c-8.7,1.9-17.6,2.9-26.9,2.9c-6.6,0-13.1-0.5-19.4-1.5h-0.1c6.3,1,12.9,1.5,19.5,1.5
		C134.2,250,143.2,249,151.9,247.1L151.9,247.1 M151.9,143.3c-4,3.2-8.4,5.9-13,8v3.2c0.5,0.2,0.9,0.4,1.4,0.6l11.5,2.3
		c0.1,0,0.1,0,0.2,0V143.3 M32.7,116.7c-0.4,0.2-0.8,0.3-1.3,0.4l0.7,1.4c0,0.1,0.1,0.2,0.1,0.3c0.1,0.1,0.3,0.1,0.4,0.1
		c0.1,0,0.3,0,0.4-0.1c0.2-0.1,0.4-0.3,0.5-0.5c-0.1-0.1-0.2-0.2-0.2-0.3l0,0L32.7,116.7 M36.6,114.9c-0.5,0.3-1,0.6-1.5,0.8
		l0.6,1.1c0,0,0,0.1,0,0.1c0.2,0.1,0.4,0.2,0.6,0.2c0.1,0,0.2,0,0.4-0.1c0,0,0,0,0.1,0c0,0,0.1,0,0.1,0c0.3-0.2,0.4-0.5,0.5-0.8
		c0,0-0.1-0.1-0.1-0.1l0,0L36.6,114.9 M40.1,112.2c-0.4,0.4-0.9,0.8-1.3,1.1l0.8,1.6c0,0.1,0.1,0.2,0.1,0.2c0.1,0.1,0.3,0.1,0.4,0.1
		c0.1,0,0.3,0,0.4-0.1c0.4-0.2,0.6-0.7,0.5-1.1L40.1,112.2 M44.6,106.4c-0.7,1.3-1.6,2.6-2.5,3.7l1.2,2.5l0.9,1.8l1.4,2.7l0.4-1.6
		l0.6-2.2c0.1-0.3,0.2-0.6,0.4-0.8c0.3-0.3,0.6-0.4,1.1-0.4h0c0.1,0,0.2,0,0.3,0c0.7,0.1,1.2,0.7,1.2,1.4c0,0.1,0,0.2,0,0.3
		l-0.8,9.5l2.9,5.8h0l-0.2,0c4.9,8.2,11.2,15.8,17.6,21.7c0.5,0.4,0.9,0.8,1.4,1.2c0.2,0.1,0.3,0.3,0.5,0.4c0.5,0.4,0.9,0.8,1.4,1.2
		c0.2,0.1,0.3,0.2,0.5,0.4c0.5,0.4,1,0.8,1.5,1.1l0.3,0.2c6.2,4.6,12.2,7.4,16.9,7.4c1.3,0,2.5-0.2,3.6-0.7l8.5-3.7
		c1.3-1,2.7-1.8,4.2-2.6c-3.5-0.4-7-1.2-10.5-2.3c-0.4-0.1-0.9-0.3-1.3-0.4c0,0,0,0-0.1,0c-0.1,0-0.3,0-0.4,0c-4.9,0-12-4.3-19-10.9
		c-10.3-8.4-18-19.9-21.7-32.6C51.2,109.2,47.8,108,44.6,106.4 M3.1,97.3c-0.2,0.9-0.4,1.8-0.6,2.7c-0.6,3-1.1,6.1-1.5,9.1v31.7
		c3.2,25.2,13.9,48.1,29.8,66.3c4.5-4.9,11-8,18.1-8c11.8,0,21.7,8.3,24.1,19.3c0.1-0.1,0.1-0.2,0.2-0.3c0.9,0.1,1.8,0.1,2.7,0.2
		c0.7-0.1,1.4-0.1,2.2-0.1c4.8,0,9.3,1.1,13.4,3.1L91.3,202c-7.9,0-14.3-6.4-14.3-14.3c0-4.4,2-8.4,5.2-11c-5.5-1.7-11-4.8-16.4-8.8
		l0,0c-13.7-10.1-26-26-32.4-40.2l-3.8-8.2l-0.8-1.7c-1.2,0.2-2.4,0.3-3.6,0.3C13.4,118.1,3.8,108.9,3.1,97.3"/>
	<path class="st2" d="M114.1,15.9c-19,0-35,12.7-40,30.2c0.1,0,0.1,0.1,0.2,0.1c2.2-1.8,4.7-3.5,7.2-5c9-5.2,18.8-7.6,28.6-7.6
		c12.1,0,24.1,3.7,34.2,10.5c2.8-0.8,5.7-1.2,8.7-1.2C147.1,27.1,131.9,15.9,114.1,15.9"/>
	<path class="st2" d="M153.4,42.8c-0.1,0-0.3,0-0.4,0c-3,0-5.9,0.5-8.7,1.2c7.2,4.9,13.5,11.3,18,19.1c2.7,4.6,4.6,8.7,5.9,12.4
		c1.9,4,3.2,8.3,4.1,12.7c0.3,1.7,0.9,5.2,1,9.2c0.1,2.1,0,4.1-0.2,6.2c7.7-5.6,13-14.4,13.8-24.5c0.1-0.9,0.1-1.8,0.1-2.8
		C187,57.9,172,42.8,153.4,42.8"/>
	<path class="st3" d="M125,0C56,0,0,56,0,125s56,125,125,125c69,0,125-56,125-125S194,0,125,0"/>
	<path class="st4" d="M22.2,167.2L8.8,150.4c0,0-4.5-8,1.2-16.5l8.8-7l18.6,25.6C25.7,156.7,22.2,167.2,22.2,167.2"/>
	<path class="st5" d="M8.8,150.4c0,0-4.5-8,1.2-16.5l6.8,5C9.3,144.3,8.8,150.4,8.8,150.4"/>
	<path class="st6" d="M182,173.6c0,8.1-6.5,14.6-14.6,14.6c-8.1,0-14.6-6.5-14.6-14.6c0-8.1,6.5-14.6,14.6-14.6
		C175.4,159.1,182,165.6,182,173.6"/>
	<path class="st6" d="M196.6,183.9c0,6.5-5.3,11.8-11.8,11.8c-6.5,0-11.8-5.3-11.8-11.8c0-6.5,5.3-11.8,11.8-11.8
		C191.3,172.1,196.6,177.4,196.6,183.9"/>
	<path class="st6" d="M163.7,183.9c0,6.5-5.3,11.8-11.8,11.8c-6.5,0-11.8-5.3-11.8-11.8c0-6.5,5.3-11.8,11.8-11.8
		C158.4,172.1,163.7,177.4,163.7,183.9"/>
	<path class="st7" d="M204.2,184.6c0.5,1,0.7,2.1,0.7,3.3c0,3.9-2.8,7.1-6.5,7.7c1.3,1.9,2.5,3.9,3.3,6c3.4-1.7,5.8-5.3,5.8-9.4
		C207.5,189.2,206.2,186.5,204.2,184.6 M195.1,178.1c0.4,0.7,0.7,1.4,0.9,2.1c0.3-0.1,0.7-0.1,1-0.1
		C196.4,179.4,195.8,178.7,195.1,178.1"/>
	<path class="st8" d="M138.8,176c-4.7,1.7-8.2,5-10.3,9.1c2.3-0.8,4.8-1.3,7.3-1.5C135.8,180.7,136.9,178,138.8,176"/>
	<path class="st8" d="M147.2,174.6c-3.1,0-6,0.5-8.4,1.4c-1.8,2-3,4.7-3,7.7c0.7,0,1.3-0.1,2-0.1c5.3,0,10.2,1.4,14.5,3.9
		c0.2-3.7,3-6.7,6.6-7.2c-0.2-0.7-0.6-1.5-0.9-2.1C155.4,176,152,174.6,147.2,174.6"/>
	<path class="st8" d="M201.6,190.2c-0.1-0.2-0.2-0.5-0.2-0.7C201.6,189.9,201.7,190.2,201.6,190.2 M197,180.2c-0.3,0-0.7,0-1,0.1
		c-3.6,0.5-6.3,3.5-6.6,7.2c3.5,2.1,6.6,4.8,9,8.1c3.7-0.6,6.5-3.8,6.5-7.7c0-1.2-0.3-2.3-0.7-3.3c-1.6-1.5-3.7-2.5-6-2.8
		C197.8,181.3,197.4,180.7,197,180.2"/>
	<path class="st8" d="M159,188.4c-0.1,0-0.2,0-0.3,0v0.2C158.8,188.5,158.9,188.4,159,188.4"/>
	<path class="st6" d="M105.7,187.7c0,7.9-6.4,14.3-14.3,14.3S77,195.6,77,187.7s6.4-14.3,14.3-14.3S105.7,179.7,105.7,187.7"/>
	<path class="st6" d="M56.9,202c0-9.7,7.8-17.5,17.5-17.5c9.7,0,17.5,7.8,17.5,17.5"/>
	<path class="st9" d="M43.5,223.8c0,13.6,11,24.6,24.6,24.6c13.6,0,24.6-11,24.6-24.6c0-13.6-11-24.6-24.6-24.6
		C54.6,199.2,43.5,210.2,43.5,223.8"/>
	<path class="st9" d="M127.5,248.5c0-16.6-13.5-30.1-30.1-30.1s-30.1,13.5-30.1,30.1H127.5"/>
	<path class="st7" d="M73.2,218.2c-0.1,0.1-0.1,0.2-0.2,0.3c0,0.1,0,0.2,0.1,0.2c0.9-0.2,1.9-0.3,2.9-0.3
		C75,218.3,74.1,218.3,73.2,218.2"/>
	<path class="st10" d="M73,218.5c-0.1,0.1-0.1,0.2-0.2,0.3c0.1,0,0.1,0,0.2,0C73,218.7,73,218.6,73,218.5"/>
	<g>
		<defs>
			<rect id="SVGID_1_" x="75.2" y="227.9" width="35.2" height="21.6"/>
		</defs>
		<clipPath id="SVGID_2_">
			<use xlink:href="#SVGID_1_"  style="overflow:visible;"/>
		</clipPath>
		<path class="st11" d="M80.1,228.2c-1,0.1-1.9,0.2-2.9,0.3c-0.1,0-0.1,0-0.2,0c-1.2,2-1.9,4.4-1.9,6.9c0,7.1,5.3,12.9,12.2,13.8
			v0.2h8.4l-0.1-17.7C90.7,229.8,85.1,228.7,80.1,228.2"/>
	</g>
	<path class="st9" d="M57,232.5c0,8.7-7.1,15.8-15.8,15.8c-8.7,0-15.8-7.1-15.8-15.8c0-8.7,7.1-15.8,15.8-15.8
		C49.9,216.7,57,223.8,57,232.5"/>
	<path class="st9" d="M3.1,248.3c0-10.7,8.7-19.3,19.3-19.3c10.7,0,19.3,8.7,19.3,19.3"/>
	<g>
		<defs>
			<path id="SVGID_3_" d="M38.5,98.2c-2.9,0.6-5.9,0.7-8.8,0.6l-1.6,3.1c2.9,0.2,5.9,0,8.8-0.6c10-2,17.6-8,21.7-15.9l1.6-3.1
				C56.1,90.2,48.4,96.3,38.5,98.2"/>
		</defs>
		<clipPath id="SVGID_4_">
			<use xlink:href="#SVGID_3_"  style="overflow:visible;"/>
		</clipPath>
		<g class="st12">
			<defs>
				<rect id="SVGID_5_" x="-256" y="-214.5" width="1044" height="843.5"/>
			</defs>
			<clipPath id="SVGID_6_">
				<use xlink:href="#SVGID_5_"  style="overflow:visible;"/>
			</clipPath>
			<path class="st13" d="M60.2,82.3l-1.6,3.1c-4,7.9-11.7,14-21.7,15.9c-2.9,0.6-5.9,0.7-8.8,0.6l1.6-3.1c2.9,0.2,5.9,0,8.8-0.6
				C48.4,96.3,56.1,90.2,60.2,82.3"/>
		</g>
	</g>
	<g>
		<path class="st14" d="M47.2,97.5c-0.2,3.2-1.1,6.3-2.6,9c3.2,1.6,6.6,2.7,10.3,3.2c-1.5-5.2-2.4-10.6-2.5-16.1
			C50.8,95.1,49.1,96.4,47.2,97.5z"/>
		<path class="st14" d="M74.1,46.1c-4.4-2.1-9.3-3.2-14.4-3.2c-17.7,0-32.2,13.7-33.5,31.1c-0.4,0-0.7,0-1.1,0
			c-4.9,0-9.5,1.6-13.2,4.3c-1.8,1.4-3.4,3-4.8,4.8c-1.7,4.6-3,9.4-4.2,14.3c0.7,11.6,10.3,20.8,22.1,20.8c1.2,0,2.5-0.1,3.6-0.3
			l-1.1-2.1l-1.7-3.4c-0.1-0.2-0.1-0.4-0.1-0.7c0,0,0,0,0,0c0,0,0,0,0,0c0-0.1,0-0.2,0.1-0.4c0,0,0,0,0,0c0,0,0,0,0,0c0,0,0,0,0,0
			c0,0,0,0,0,0c0,0,0,0,0,0c0,0,0,0,0,0c0-0.1,0.1-0.2,0.2-0.3c0.1-0.2,0.3-0.3,0.5-0.4c0.2-0.1,0.4-0.1,0.6-0.1c0,0,0,0,0,0
			c0.2,0,0.5,0.1,0.7,0.2c0.2,0.1,0.4,0.3,0.5,0.5l3,6.1c0.4-0.1,0.9-0.3,1.3-0.4l-1.5-2.9l-2.8-5.6c-0.1-0.1-0.1-0.3-0.1-0.4
			c-0.1-0.5,0.2-1.1,0.7-1.3c0.2-0.1,0.4-0.1,0.6-0.1c0.5,0,1,0.3,1.2,0.7l4.3,8.7c0.5-0.3,1-0.5,1.5-0.8l-2.4-4.8l-2.4-4.8
			c-0.2-0.4-0.2-0.8,0-1.1c0.1-0.3,0.3-0.5,0.5-0.6c0,0,0.1,0,0.1-0.1c0.2-0.1,0.4-0.1,0.6-0.1c0.2,0,0.4,0.1,0.6,0.2
			c0.2,0.1,0.4,0.3,0.5,0.6l0.9,1.8l3.7,7.4c0.4-0.4,0.9-0.7,1.3-1.1l-3.9-7.9c-0.2-0.3-0.2-0.7-0.1-1c0.1-0.2,0.2-0.4,0.4-0.6
			c0.1-0.1,0.2-0.1,0.2-0.2c0.2-0.1,0.4-0.1,0.6-0.1h0.1c0.4,0,0.8,0.2,1.1,0.6c0,0,0.1,0.1,0.1,0.1l3.4,7c1-1.1,1.8-2.4,2.5-3.7
			c1.5-2.7,2.4-5.7,2.6-9c-3.1,1.8-6.5,3.2-10.3,3.9c-0.1,0-0.3,0.1-0.4,0.1c-2,0.4-3.9,0.5-5.9,0.5c-0.1,0-0.2,0-0.3,0
			c-0.7,0-1.5,0-2.2-0.1l1.6-3.1l0-0.5l0,0.5c0.6,0,1.3,0.1,1.9,0.1c-0.6,0-1.3,0-1.9-0.1c0.7,0,1.5,0.1,2.2,0.1c0.1,0,0.2,0,0.3,0
			c0.2,0,0.4,0,0.6,0c1.9,0,3.8-0.2,5.7-0.6c3.2-0.6,6.2-1.7,8.9-3.1c-0.1,0-0.1,0.1-0.2,0.1c0.1,0,0.1-0.1,0.2-0.1
			c0.8-0.4,1.5-0.9,2.3-1.3c0.1-0.1,0.3-0.2,0.4-0.3c0.7-0.5,1.4-1,2.1-1.5c0.1,0,0.1-0.1,0.2-0.1v0c-0.1,0-0.1,0.1-0.2,0.1
			c9.3-7.3,13.5-19.6,9.8-32c-0.2-0.5-0.4-1.1-0.6-1.6c0.2,0.5,0.3,0.9,0.5,1.4c2.4-3.9,5.2-7.4,8.3-10.1c1.3-1.2,2.6-2.4,4-3.6
			C74.3,46.1,74.2,46.1,74.1,46.1z M29.1,66.5L29.1,66.5L29.1,66.5L29.1,66.5z M31.9,98.9C31.9,98.9,31.9,98.9,31.9,98.9
			c0,0,0.1,0,0.2,0C32,98.9,31.9,98.9,31.9,98.9z"/>
	</g>
	<path class="st15" d="M189.2,111.1l-3.3-10.8c-0.3-0.7,0.1-1.6,0.8-1.9c0.8-0.3,1.6,0.1,1.9,0.8l2.6,5l4.1,2.7l-4.2,5
		C190.3,112.2,189.5,111.9,189.2,111.1"/>
	<path class="st15" d="M198.4,99.8l2.9-11.7c0.2-0.7-0.3-1.4-1-1.6c-0.7-0.2-1.4,0.3-1.6,1l-2.9,11.7c-0.2,0.7,0.3,1.4,1,1.6
		C197.5,101,198.2,100.5,198.4,99.8"/>
	<path class="st15" d="M202.6,100.9l2.6-10.6c0.2-0.7-0.3-1.4-1-1.6c-0.7-0.2-1.4,0.3-1.6,1l-2.6,10.6c-0.2,0.7,0.3,1.4,1,1.6
		C201.7,102,202.4,101.6,202.6,100.9"/>
	<g>
		<defs>
			<rect id="SVGID_7_" x="136.5" y="86.4" width="72" height="86.4"/>
		</defs>
		<clipPath id="SVGID_8_">
			<use xlink:href="#SVGID_7_"  style="overflow:visible;"/>
		</clipPath>
		<path class="st16" d="M206.5,101.9l-1.9,8.3c0,0,0,0.1,0,0.1L206.5,101.9 M202.5,101.2c0.1,0.2,0.3,0.4,0.6,0.4c0.1,0,0.2,0,0.2,0
			c0.2,0,0.4-0.1,0.6-0.2c0,0,0,0,0,0c-0.2,0.1-0.4,0.2-0.6,0.2c-0.1,0-0.1,0-0.2,0C202.8,101.6,202.6,101.4,202.5,101.2 M198.4,100
			C198.4,100,198.4,100,198.4,100c0.1,0.3,0.3,0.6,0.7,0.7c0.1,0,0.2,0,0.2,0c0.3,0,0.5-0.1,0.7-0.3c0,0,0,0,0,0
			c-0.2,0.2-0.4,0.3-0.7,0.3c-0.1,0-0.2,0-0.2,0C198.7,100.6,198.5,100.3,198.4,100 M194.2,98.7L194.2,98.7c0,0.5,0.3,0.8,0.7,0.9
			c0.1,0,0.2,0,0.2,0c0.2,0,0.4-0.1,0.6-0.2c0,0,0,0,0,0c-0.2,0.1-0.4,0.2-0.6,0.2c-0.1,0-0.1,0-0.2,0
			C194.5,99.5,194.3,99.1,194.2,98.7 M187.3,98.3c-0.2,0-0.4,0-0.6,0.1c-0.1,0.1-0.3,0.1-0.4,0.2c0.1-0.1,0.2-0.2,0.4-0.2
			C186.9,98.4,187.1,98.3,187.3,98.3c0.1,0,0.2,0,0.4,0C187.5,98.3,187.4,98.3,187.3,98.3 M208.4,92.9c0.1,0.3,0.1,0.6,0.1,0.8
			l-1.7,6.7l1.7-6.7c0-0.1,0-0.2,0-0.3v-0.1C208.5,93.2,208.5,93,208.4,92.9 M206,92.8c-0.1,0.1-0.1,0.2-0.1,0.3l-1.6,6.4l1.6-6.4
			C205.9,93,206,92.9,206,92.8 M193,92.6l-1.3,5.2l-1.3,4.9l0,0l1.3-4.9L193,92.6 M206.7,92.2C206.7,92.2,206.7,92.2,206.7,92.2
			C206.7,92.2,206.7,92.2,206.7,92.2 M207.2,92.1c-0.2,0-0.3,0-0.5,0.1C206.8,92.1,207,92.1,207.2,92.1 M205.3,89.9
			c0,0.1,0,0.2,0,0.3l-2.6,10.6c0,0,0,0,0,0l0,0l2.6-10.6C205.3,90.1,205.3,90,205.3,89.9 M205.3,89.9
			C205.3,89.9,205.3,89.9,205.3,89.9C205.3,89.9,205.3,89.9,205.3,89.9 M204.9,88.9c0.1,0.1,0.2,0.2,0.3,0.3
			C205,89.1,205,89,204.9,88.9 M201.3,87.6c0,0.2,0,0.3,0,0.5l-2.2,8.8l2.2-8.8C201.4,87.9,201.4,87.7,201.3,87.6 M200,86.4
			c-0.6,0-1.1,0.4-1.3,1l-2.2,9.1l2.2-9.1C198.9,86.8,199.4,86.4,200,86.4C200,86.4,200,86.4,200,86.4C200,86.4,200,86.4,200,86.4"
			/>
	</g>
	<path class="st17" d="M173.5,142.2c-0.1,0.2-0.2,0.3-0.4,0.5c-0.4,0.5-0.7,1-1.1,1.5c-0.1,0.2-0.2,0.3-0.4,0.5
		c-0.4,0.5-0.8,1-1.2,1.4l-0.3,0.3c-5.9,6.8-12,11.1-17.1,11.1c-0.2,0-0.5,0-0.7,0c0.2,0,0.5,0,0.7,0
		C159.2,157.5,166.7,151.3,173.5,142.2C173.5,142.2,173.5,142.2,173.5,142.2"/>
	<path class="st17" d="M188.7,109.5l-1.6,6.2l0.2,0c-3,9.1-7.5,17.8-12.6,25c-0.4,0.5-0.7,1-1.1,1.5c0,0,0,0,0,0.1c0,0,0,0,0,0
		c0.5-0.6,0.9-1.2,1.4-1.9l0,0c5-7.1,9.4-15.7,12.3-24.7l-0.2,0L188.7,109.5"/>
	<path class="st18" d="M187.3,98.3c-0.2,0-0.4,0-0.6,0.1c-0.1,0.1-0.3,0.1-0.4,0.2c-0.5,0.4-0.7,1.1-0.4,1.7l2.8,9.1v0l1.8-6.7l0,0
		l-1.8-3.5c-0.2-0.4-0.6-0.8-1-0.9C187.5,98.3,187.4,98.3,187.3,98.3"/>
	<path class="st18" d="M200,86.4c-0.6,0-1.1,0.4-1.3,1l-2.2,9.1l-0.7,2.6l0,0.2c0,0,0,0,0,0c0,0,0,0,0,0c0.2-0.1,0.3-0.3,0.4-0.5
		l0,0l2.2,0.5l0,0c0,0.2,0,0.4,0,0.5c0,0,0,0,0,0c0,0,0,0,0,0l0.1-0.1l0.7-2.9l2.2-8.8c0-0.2,0-0.3,0-0.5c-0.1-0.5-0.5-1-1-1.1
		C200.2,86.5,200.2,86.4,200,86.4C200,86.4,200,86.4,200,86.4"/>
	<path class="st18" d="M203.9,88.6c-0.6,0-1.1,0.4-1.3,1l-2.6,10.6l0,0.1c0,0,0,0,0,0c0,0,0,0,0,0c0.1-0.1,0.2-0.3,0.2-0.4l0,0
		l2.1,0.5l0,0c-0.1,0.3,0,0.5,0.1,0.8c0,0,0,0,0,0c0,0,0,0,0,0l0.2-0.3c0,0,0,0,0,0l2.6-10.6c0-0.1,0-0.2,0-0.3c0,0,0,0,0,0
		c0-0.2-0.1-0.4-0.2-0.6c-0.1-0.1-0.2-0.2-0.3-0.3c-0.2-0.1-0.4-0.3-0.6-0.3C204.2,88.6,204,88.6,203.9,88.6"/>
	<g>
		<defs>
			<rect id="SVGID_9_" x="136.5" y="86.4" width="72" height="86.4"/>
		</defs>
		<clipPath id="SVGID_10_">
			<use xlink:href="#SVGID_9_"  style="overflow:visible;"/>
		</clipPath>
		<path class="st19" d="M207.2,92.1C207.2,92.1,207.2,92.1,207.2,92.1c-0.2,0-0.4,0-0.5,0.1c0,0,0,0,0,0c-0.3,0.1-0.5,0.3-0.6,0.6
			c-0.1,0.1-0.1,0.2-0.1,0.3l-1.6,6.4l-0.4,1.7l0,0.3c0,0,0,0,0,0c0,0,0,0,0,0c0.2-0.1,0.3-0.3,0.4-0.6l0,0l2.3,0.6l0.3-1.1l1.7-6.7
			c0.1-0.3,0-0.6-0.1-0.8c-0.2-0.4-0.5-0.6-0.9-0.8C207.4,92.1,207.3,92.1,207.2,92.1"/>
	</g>
	<path class="st18" d="M191.7,97.8l-1.3,4.9l-1.8,6.7l-1.6,6.2l0.2,0c1-2.9,1.7-5.8,2.4-8.7l15.1,3.2c0,0,0,0.1,0,0.1l1.9-8.3
		l0.1-0.4v0l-2.3-0.6l0,0c-0.1,0.2-0.2,0.4-0.4,0.6c-0.2,0.1-0.4,0.2-0.6,0.2c-0.1,0-0.2,0-0.2,0c-0.3-0.1-0.5-0.2-0.6-0.4
		c-0.1-0.2-0.2-0.5-0.1-0.8l0,0l-2.1-0.5l0,0c0,0.2-0.1,0.3-0.2,0.4c-0.2,0.2-0.4,0.3-0.7,0.3c-0.1,0-0.2,0-0.2,0
		c-0.3-0.1-0.6-0.3-0.7-0.6c-0.1-0.2-0.1-0.4,0-0.5l0,0l-2.2-0.5l0,0c-0.1,0.2-0.2,0.4-0.4,0.5c-0.2,0.1-0.4,0.2-0.6,0.2
		c-0.1,0-0.2,0-0.2,0c-0.4-0.1-0.7-0.5-0.7-0.9l0,0c-0.1,0.6-0.7,1-1.3,1c-0.1,0-0.2,0-0.3,0c-0.7-0.2-1.1-0.9-1-1.6L191.7,97.8"/>
	<path class="st17" d="M196.3,86.7c0.5,0.3,0.7,0.9,0.6,1.4l-2.3,9.2l2.3-9.2C197,87.6,196.7,87,196.3,86.7 M195,86.7
		c-0.3,0.1-0.5,0.4-0.6,0.7C194.5,87,194.7,86.8,195,86.7 M195,86.6C195,86.6,195,86.6,195,86.6C195,86.6,195,86.6,195,86.6"/>
	<path class="st18" d="M195.6,86.5c-0.2,0-0.4,0-0.6,0.1c0,0,0,0,0,0c0,0,0,0,0,0c-0.3,0.1-0.5,0.4-0.6,0.7c0,0.1-0.1,0.1-0.1,0.2
		l-1.2,5.1l-1.3,5.3l-0.1,0.3c-0.2,0.7,0.3,1.4,1,1.6c0.1,0,0.2,0,0.3,0c0.6,0,1.1-0.4,1.3-1l0,0l0-0.1v0l0.3-1.4l2.3-9.2
		c0.1-0.6-0.1-1.1-0.6-1.4c-0.1-0.1-0.3-0.1-0.4-0.2C195.8,86.5,195.7,86.5,195.6,86.5"/>
	<path class="st18" d="M182.2,155.8c-0.2,0.3-0.4,0.5-0.7,0.8l0,0C181.7,156.3,182,156,182.2,155.8 M189.6,107
		c-0.6,2.9-1.4,5.8-2.4,8.7c-2.9,8.9-7.4,17.6-12.3,24.7l11.9,9.6l0,0c8.4-11.7,14.9-26.2,17.7-38.8l0,0l0.2-0.8c0,0,0-0.1,0-0.1
		c0,0,0-0.1,0-0.1L189.6,107"/>
	<path class="st20" d="M174.9,140.3c-0.4,0.6-0.9,1.3-1.3,1.9c-6.8,9.1-14.3,15.3-20.4,15.3c-0.2,0-0.5,0-0.7,0
		c-0.3,0-0.5-0.1-0.8-0.1l-11.5-2.3c7.7,3.3,13.8,9.7,16.6,17.5c8.8-1.4,17.3-7.5,24.7-16l0,0c0.2-0.3,0.4-0.5,0.7-0.8
		c0.1-0.1,0.2-0.3,0.3-0.4l0.2-0.3c0.6-0.8,1.3-1.5,1.9-2.3l0.2-0.2c0.6-0.8,1.2-1.6,1.9-2.5l0.1-0.1L174.9,140.3L174.9,140.3"/>
	<path class="st4" d="M75.9,207.5l-31.4,1.6c0,0-13.4-1.5-18.6-15.6L25,177l46.5-0.3C66.4,194.3,75.9,207.5,75.9,207.5"/>
	<path class="st5" d="M44.5,209.1c0,0-13.4-1.5-18.6-15.6l11.8-3.9C37.5,203.4,44.5,209.1,44.5,209.1"/>
	<path class="st21" d="M159,245.3l-0.4-62.8c-0.1-16.6-14.1-30.2-31.1-30.1l-5.5,0c-17,0.1-30.9,13.8-30.8,30.4l0.4,62.6
		c10.6,2.9,21.8,4.5,33.4,4.5C136.8,250,148.2,248.4,159,245.3z"/>
	<path class="st15" d="M138.8,129.6l-26.4,0.4V155l0,0c0.4,6.8,6.2,12.1,13.2,12.1c6.7,0,12.2-5,13-11.3l0.1,0V129.6"/>
	<path class="st15" d="M138.8,129.6l-26.4,0.4V155l0,0c0.4,6.8,6.2,12.1,13.2,12.1c6.7,0,12.2-5,13-11.3l0.1,0V129.6"/>
	<path class="st3" d="M0,125c0,69,56,125,125,125s125-56,125-125C250,56,194,0,125,0S0,56,0,125"/>
	<path class="st18" d="M138.8,151.3c-7.5,3.3-15.6,5.1-23.9,5.1c-0.8,0-1.6,0-2.4,0c1,6.1,6.5,10.8,13,10.8c0,0,0,0,0.1,0
		c6.7,0,12.2-5,13-11.3l0.1,0V151.3"/>
	<path class="st3" d="M0,125c0,69,56,125,125,125s125-56,125-125C250,56,194,0,125,0S0,56,0,125"/>
	<rect x="103.5" y="214" class="st22" width="118.6" height="27.4"/>
	<path class="st22" d="M144.6,194.6c0,19.7,16,35.7,35.7,35.7c19.7,0,35.7-16,35.7-35.7c0-19.7-16-35.7-35.7-35.7
		C160.6,158.9,144.6,174.9,144.6,194.6"/>
	<path class="st22" d="M108.8,212.5c0,16,12.9,28.9,28.9,28.9c16,0,28.9-12.9,28.9-28.9c0-16-12.9-28.9-28.9-28.9
		C121.8,183.6,108.8,196.5,108.8,212.5"/>
	<path class="st22" d="M88.3,222.3c0,10.5,8.5,19,19,19c10.5,0,19-8.5,19-19c0-10.5-8.5-19-19-19C96.8,203.3,88.3,211.8,88.3,222.3"
		/>
	<path class="st22" d="M189.4,212.5c0,16,12.9,28.9,28.9,28.9c16,0,28.9-12.9,28.9-28.9c0-16-12.9-28.9-28.9-28.9
		C202.3,183.6,189.4,196.5,189.4,212.5"/>
	<path class="st23" d="M124.9,221.7c-0.2,0-0.3,0-0.5,0.1c-2.3-8.1-9.8-14.1-18.6-14.1c-5.7,0-10.7,2.4-14.3,6.3
		c-4.6-4.3-10.8-7-17.6-7c-14.3,0-25.8,11.6-25.8,25.8v0.9h88.8C136.9,227,131.5,221.7,124.9,221.7"/>
	<path class="st23" d="M59.2,223.9c0-5.4-4.4-9.8-9.8-9.8c-5.4,0-9.8,4.4-9.8,9.8s4.4,9.8,9.8,9.8C54.8,233.7,59.2,229.3,59.2,223.9
		"/>
	<path class="st23" d="M103.4,217c0-15.1-12.2-27.3-27.3-27.3c-15.1,0-27.3,12.2-27.3,27.3c0,6.1,2,11.8,5.4,16.4"/>
	<path class="st23" d="M180.7,237.1c0,7-5.6,12.6-12.6,12.6c-7,0-12.6-5.6-12.6-12.6c0-7,5.6-12.6,12.6-12.6
		C175.1,224.5,180.7,230.2,180.7,237.1"/>
	<path class="st23" d="M137.8,249.7c0-8.5,6.9-15.4,15.4-15.4c8.5,0,15.4,6.9,15.4,15.4"/>
	<path class="st23" d="M81.6,231.3c0,10.3,8.3,18.6,18.6,18.6c10.3,0,18.6-8.3,18.6-18.6c0-10.3-8.3-18.6-18.6-18.6
		C89.9,212.7,81.6,221,81.6,231.3"/>
	<path class="st23" d="M147.7,249.9c0-12.6-10.2-22.7-22.7-22.7c-12.6,0-22.7,10.2-22.7,22.7"/>
	<path class="st24" d="M60.6,122c10.4,17.9,27.8,32.7,36.3,31c11-2.1,13.1-24.7,28.9-33.8c28.1-16.2,58.7-17.9,36.5-56
		c-15.9-27.4-52.7-38.3-80.8-22C53.5,57.4,44.7,94.6,60.6,122"/>
	<path class="st15" d="M62.4,81.2c11.1-29.4,44-44.9,73.7-34.6c19.5,6.8,32.6,23,36.2,41.7c0.3,1.7,0.9,5.2,1,9.2
		c0.2,7-0.9,14.1-3.6,21.2c-11.1,29.4-44,44.9-73.7,34.6C66.4,142.9,51.3,110.6,62.4,81.2"/>
	<path class="st25" d="M133.6,100c1.4-0.8,1.9-2.5,1.1-3.9c-0.8-1.3-2.5-1.8-3.9-1c-1.4,0.8-1.9,2.5-1.1,3.9
		C130.4,100.3,132.2,100.8,133.6,100"/>
	<path class="st25" d="M166.9,79.6c1.4-0.8,1.9-2.5,1.1-3.9c-0.8-1.3-2.5-1.8-3.9-1c-1.4,0.8-1.9,2.5-1.1,3.9
		C163.8,79.9,165.5,80.4,166.9,79.6"/>
	<path class="st24" d="M79.6,108.6c12,20.6,18.2,27.9,12.9,44c-7.9-4.5-22.4-12-33.1-33C52.8,106.8,55,93.2,54,86.8
		c-3.3-21.7,23.2-38.9,23.2-38.9l10.6-3c0,0-4.8,1.1-0.1-0.2C82.5,51.6,67.4,87.8,79.6,108.6"/>
	<line class="st15" x1="136.5" y1="42.5" x2="136.5" y2="42.5"/>
	<path class="st15" d="M136.5,42.5"/>
	<path class="st24" d="M136.4,32.1c-2.1-2.5-5.7-3.1-8.5-1.7l0-0.1l-9.1,6.1c-10.9,3.3-26.5,9.5-38.9,20.1c-21.2,18.1-1.2,18-1.2,18
		c5.6,0.4,31.3-15.5,31.3-15.5l24.2-16c0.5-0.3,1-0.6,1.5-1c0,0,0.4-0.1,0.6-0.6C138.6,38.9,138.7,34.8,136.4,32.1"/>
	<path class="st26" d="M150.3,91.6c-2.3-1.4-2.9-4.8-1.3-7.4l3.2-5.3c1.6-2.6,4.7-3.6,7-2.1c2.3,1.4,2.9,4.8,1.3,7.4l-3.2,5.3
		C155.7,92.1,152.5,93,150.3,91.6"/>
	<path class="st25" d="M160.1,101c2.5-1.5,4.9-0.7,7.1,0.2c0.5,0.2,0.7,0.9,0.5,1.4c-0.1,0.3-3.2,2.2-6.1,4
		c-2.7,1.6-5.3,3.1-5.6,3.1c-0.6,0-1.1-0.5-1-1.1C155,105.7,157.6,102.6,160.1,101"/>
	<path class="st18" d="M78.1,105.8c0.4,1,0.9,1.9,1.4,2.8c3.2,5.5,6,10,8.2,14.1c0.1-0.1,0.2-0.1,0.3-0.2c1.6-0.9,3.4-1.4,5.2-1.4
		c0,0,0,0,0.1,0c0,0,0,0,0.1,0c3.5,0,6.8,1.8,8.7,4.9c0.9,1.5,1.3,3.2,1.3,4.8c0,3.5-1.8,7-5.2,9c-1.2,0.7-2.5,1.1-3.9,1.3
		c0.1,3.3-0.4,6.7-1.7,10.7c1.1,0.5,2.2,0.9,3.3,1.3c0,0,0,0,0.1,0c0.4,0.1,0.8,0.3,1.3,0.4c3.7,1.2,7.7,2.1,12,2.5l0.1,0l0,0.1
		c1.8,0.2,3.5,0.3,5.4,0.3h0.3c15,0,32.2-6,46.9-23.5c-2.7,1-5.9,1.4-9.3,1.4c-12.4,0-28.4-5.5-38.8-9.1
		C97.7,119.6,85.8,114.4,78.1,105.8"/>
	<rect x="52.4" y="45.6" class="st3" width="109.6" height="110.7"/>
	<path class="st27" d="M69.9,53.7c-4.3,3.9-9.5,9.5-12.9,16.2c-0.2,0.4-0.4,0.8-0.6,1.2c-0.9,2.4-1.6,4.7-2.2,6.8
		c-0.2,1-0.3,2-0.4,3c-0.2,1.9-0.1,3.9,0.2,5.9c1,6.4-1.2,20,5.3,32.8c0.4,0.8,0.8,1.5,1.2,2.2c4,7.3,8.5,12.9,12.9,17.2
		c3.2,3.1,6.4,5.6,9.3,7.7c3.1,2,6.5,3.8,9.9,5.2c0,0,0,0,0,0c1.3-4,1.8-7.4,1.7-10.7c-0.5,0.1-0.9,0.1-1.4,0.1
		c-3.5,0-6.9-1.8-8.7-4.9c-0.9-1.6-1.3-3.3-1.3-5c0-3.4,1.8-6.7,4.9-8.6c-2.3-4-5.1-8.6-8.2-14.1c-0.5-0.9-1-1.8-1.4-2.8
		c-6.5-7.2-10-16.9-10.5-31.3C67.3,65.3,67.3,58.9,69.9,53.7"/>
	<g>
		<defs>
			<rect id="SVGID_11_" x="82.9" y="121.1" width="20.5" height="20.2"/>
		</defs>
		<clipPath id="SVGID_12_">
			<use xlink:href="#SVGID_11_"  style="overflow:visible;"/>
		</clipPath>
		<path class="st28" d="M93.4,121.1h-0.1c-1.8,0-3.5,0.5-5.2,1.4c-0.1,0.1-0.2,0.1-0.3,0.2c-3.1,1.9-4.9,5.2-4.9,8.6v0.2
			c0,1.7,0.4,3.3,1.3,4.9c1.8,3.2,5.2,4.9,8.6,4.9H93c1.8,0,3.5-0.5,5.2-1.4c3.3-1.9,5.2-5.3,5.2-8.8v-0.2c0-1.7-0.4-3.3-1.3-4.8
			C100.2,122.9,96.9,121.1,93.4,121.1"/>
	</g>
	<g>
		<defs>
			<rect id="SVGID_13_" x="25.9" y="102.4" width="83.5" height="75.8"/>
		</defs>
		<clipPath id="SVGID_14_">
			<use xlink:href="#SVGID_13_"  style="overflow:visible;"/>
		</clipPath>
		<path class="st29" d="M25.9,111.6c0,0.2,0,0.4,0.1,0.7l1.7,3.4l-1.7-3.4C26,112.1,25.9,111.8,25.9,111.6 M25.9,111.6
			C25.9,111.6,25.9,111.6,25.9,111.6C25.9,111.6,25.9,111.6,25.9,111.6 M26,111.2C26,111.2,26,111.3,26,111.2
			C26,111.3,26,111.2,26,111.2 M26,111.2C26,111.2,26,111.2,26,111.2C26,111.2,26,111.2,26,111.2 M26,111.2
			C26,111.2,26,111.2,26,111.2C26,111.2,26,111.2,26,111.2 M26.2,110.9c-0.1,0.1-0.1,0.2-0.2,0.3C26.1,111.1,26.1,111,26.2,110.9
			 M27.3,110.4C27.3,110.4,27.3,110.4,27.3,110.4C27.3,110.4,27.3,110.4,27.3,110.4c0.2,0,0.5,0.1,0.7,0.2
			C27.8,110.4,27.5,110.4,27.3,110.4 M34.2,110l2.4,4.8L34.2,110"/>
	</g>
	<path class="st17" d="M32.7,116.7l0.6,1.3l0,0c0,0,0,0,0,0L32.7,116.7 M49.6,113.6c0,0.1,0,0.2,0,0.3l-0.8,9.5l2.9,5.8l-2.9-5.8
		l0.8-9.5C49.6,113.8,49.6,113.7,49.6,113.6 M48.1,112.2c-0.4,0-0.8,0.2-1.1,0.4C47.3,112.4,47.7,112.2,48.1,112.2"/>
	<polyline class="st17" points="31.3,113.8 32.7,116.7 32.7,116.7 31.3,113.8 	"/>
	<path class="st17" d="M51.5,129.2c6.6,11.1,15.8,21.1,24.5,27.3l-10.2,11.4c5.3,3.9,10.9,7,16.4,8.8c2.5-2,5.7-3.3,9.1-3.3
		c0.5,0,0.9,0,1.4,0.1c2-6,5.9-11.2,10.9-14.9l-8.5,3.7c-1.1,0.5-2.3,0.7-3.6,0.7c-4.7,0-10.7-2.8-16.9-7.4l-0.3-0.2
		c-0.5-0.4-1-0.8-1.5-1.1c-0.2-0.1-0.3-0.2-0.5-0.4c-0.5-0.4-0.9-0.8-1.4-1.2c-0.2-0.1-0.3-0.3-0.5-0.4c-0.5-0.4-0.9-0.8-1.4-1.2
		C62.7,145,56.4,137.4,51.5,129.2L51.5,129.2L51.5,129.2 M33.5,118.3c-0.1,0.2-0.3,0.4-0.5,0.5c-0.1,0.1-0.3,0.1-0.4,0.1
		c-0.1,0-0.3,0-0.4-0.1c0,0,0,0,0,0c0.1,0.1,0.3,0.1,0.4,0.1c0.1,0,0.3,0,0.4-0.1C33.3,118.7,33.5,118.5,33.5,118.3 M35.8,116.9
		C35.8,116.9,35.8,116.9,35.8,116.9c0.2,0.1,0.4,0.2,0.6,0.2c0.1,0,0.3,0,0.4-0.1c-0.1,0.1-0.2,0.1-0.4,0.1
		C36.1,117.1,35.9,117,35.8,116.9 M37.3,116.2c0,0.3-0.2,0.6-0.5,0.8C37.1,116.8,37.3,116.5,37.3,116.2
		C37.3,116.2,37.3,116.2,37.3,116.2 M46.1,115.6l-0.4,1.6h0L46.1,115.6"/>
	<path class="st30" d="M91.4,173.3c-3.5,0-6.6,1.2-9.1,3.3c3.2,1,6.3,1.6,9.3,1.6c0.3-1.7,0.7-3.3,1.2-4.8
		C92.3,173.4,91.8,173.3,91.4,173.3"/>
	<path class="st20" d="M109.2,156.1l-5.6,2.4c-5.1,3.7-8.9,8.9-10.9,14.9c-0.5,1.6-0.9,3.2-1.2,4.8c0.1,0,0.2,0,0.4,0
		c3.2,0,6.2-0.6,9.2-1.8c2.7-1.1,5-2.7,6.8-4.7l1.5-15.6C109.3,156.1,109.3,156.1,109.2,156.1"/>
	<path class="st18" d="M109.3,156.1L109.3,156.1C109.3,156.1,109.3,156.1,109.3,156.1L109.3,156.1
		C109.3,156.1,109.3,156.1,109.3,156.1"/>
	<path class="st31" d="M109.4,156l-0.1,0C109.3,156.1,109.3,156.1,109.4,156L109.4,156"/>
	<path class="st18" d="M48.1,112.2c-0.4,0-0.8,0.2-1.1,0.4c-0.2,0.2-0.3,0.5-0.4,0.8l-0.6,2.2l-0.4,1.6l3.2,6.2l0.8-9.5
		c0-0.1,0-0.2,0-0.3c0-0.7-0.5-1.3-1.2-1.4C48.3,112.2,48.2,112.2,48.1,112.2"/>
	<path class="st18" d="M33.1,103.3c-0.2,0-0.4,0-0.6,0.1c0,0-0.1,0-0.1,0.1c-0.2,0.2-0.4,0.4-0.5,0.6c-0.1,0.3-0.1,0.7,0,1.1
		l2.4,4.8l2.4,4.8l0.6,1.2c0,0,0,0,0,0l0.1,0.1c0,0,0,0,0,0c0,0,0,0,0,0c0-0.2,0-0.4-0.1-0.5l0,0l2-1l0,0c0.1,0.2,0.3,0.4,0.5,0.5
		c0,0,0,0,0,0c0,0,0,0,0,0l-0.1-0.2l-4.4-9l-0.9-1.8c-0.1-0.2-0.3-0.4-0.5-0.6C33.5,103.4,33.3,103.3,33.1,103.3"/>
	<path class="st18" d="M29.7,106.3c-0.2,0-0.4,0-0.6,0.1c-0.5,0.3-0.8,0.8-0.7,1.3c0,0.1,0.1,0.3,0.1,0.4l2.8,5.6l2.1,4.2
		c0,0,0,0,0,0l0.2,0.3c0,0,0,0,0,0h0c0.1-0.2,0.1-0.5,0-0.8l0,0l1.9-1l0,0c0.1,0.2,0.2,0.3,0.3,0.4c0,0,0,0,0,0c0,0,0,0,0,0l0-0.1
		l-2.9-5.9l-1.9-3.9C30.6,106.5,30.2,106.3,29.7,106.3"/>
	<g>
		<defs>
			<rect id="SVGID_15_" x="25.9" y="102.4" width="83.5" height="75.8"/>
		</defs>
		<clipPath id="SVGID_16_">
			<use xlink:href="#SVGID_15_"  style="overflow:visible;"/>
		</clipPath>
		<path class="st32" d="M27.3,110.4C27.3,110.4,27.3,110.4,27.3,110.4c-0.2,0-0.4,0-0.6,0.1c-0.2,0.1-0.4,0.2-0.5,0.4
			c-0.1,0.1-0.1,0.2-0.2,0.3c0,0,0,0,0,0c0,0,0,0,0,0c0,0,0,0,0,0c0,0,0,0,0,0c0,0,0,0,0,0c0,0,0,0,0,0c0,0.1-0.1,0.2-0.1,0.4
			c0,0,0,0,0,0c0,0,0,0,0,0c0,0.2,0,0.4,0.1,0.7l1.7,3.4l1.9,3.8l2.1-1.1l0,0c0.1,0.2,0.3,0.4,0.5,0.5c0,0,0,0,0,0c0,0,0,0,0,0
			l-0.1-0.2l-3.7-7.5c-0.1-0.2-0.3-0.4-0.5-0.5C27.8,110.4,27.5,110.4,27.3,110.4"/>
	</g>
	<path class="st18" d="M43.3,112.7l0.1,0.3c0.3,0.7,0.1,1.4-0.6,1.8c-0.2,0.1-0.4,0.1-0.6,0.1c-0.5,0-1-0.3-1.2-0.7l0,0
		c0.1,0.4-0.1,0.8-0.5,1c-0.1,0.1-0.3,0.1-0.4,0.1c-0.1,0-0.3,0-0.4-0.1c-0.2-0.1-0.4-0.2-0.5-0.5l0,0l-2,1l0,0
		c0.1,0.2,0.1,0.4,0.1,0.5c0,0.3-0.2,0.6-0.5,0.7c0,0-0.1,0-0.1,0c0,0,0,0-0.1,0c-0.1,0.1-0.3,0.1-0.4,0.1c-0.2,0-0.4-0.1-0.5-0.2
		c-0.1-0.1-0.2-0.2-0.3-0.4l0,0l-1.9,1l0,0c0.1,0.2,0.1,0.5,0,0.8c-0.1,0.2-0.3,0.4-0.5,0.5c-0.1,0.1-0.3,0.1-0.4,0.1
		c-0.1,0-0.3,0-0.4-0.1c-0.2-0.1-0.4-0.2-0.5-0.5l0,0l-2.1,1.1l0,0l3.8,8.2c0,0,0-0.1-0.1-0.1l14-6.3c1.2,2.7,2.6,5.4,4.2,8l0,0
		l0.1,0l-6.1-11.9v0l-1.4-2.7L43.3,112.7"/>
	<path class="st18" d="M37.4,102.4L37.4,102.4c-0.2,0-0.4,0-0.6,0.1c-0.1,0-0.2,0.1-0.2,0.2c-0.2,0.2-0.3,0.4-0.4,0.6
		c-0.1,0.3-0.1,0.7,0.1,1l3.9,7.9l0.9,1.9l0,0c0.2,0.5,0.7,0.7,1.2,0.7c0.2,0,0.4,0,0.6-0.1c0.7-0.3,0.9-1.1,0.6-1.8l-0.1-0.3
		l-1.2-2.5l-1-1.9l-2.5-5.1c0-0.1-0.1-0.1-0.1-0.1C38.3,102.6,37.9,102.4,37.4,102.4"/>
	<path class="st18" d="M47.4,121.2l-14,6.3c0,0,0,0.1,0.1,0.1l0.4,0.8h0c5.5,11.7,14.8,24.5,25.6,34.1l0,0l0.1,0.1
		c0.8,0.7,1.6,1.4,2.4,2l0.2,0.2c0.8,0.6,1.5,1.3,2.3,1.9l0.3,0.2c0.4,0.3,0.8,0.6,1.2,1l0,0c0,0,0,0,0,0l10.2-11.4
		c-8.7-6.2-17.9-16.2-24.5-27.3C50,126.6,48.6,123.9,47.4,121.2"/>
	<path class="st21" d="M107.9,171.8c-1.8,1.9-4.1,3.6-6.8,4.7c-12.9,5.4-28.4-1.9-41.7-13.9l9.5-11.9c9.8,9.1,20.1,14.2,26.3,11.6
		l14.2-6.2"/>
	<path class="st33" d="M200.3,198.9l22.4-22.3c0,0,7.9-10.9,0.9-24.4l-11.8-11.7l-31.5,34.4C196.9,182.9,200.3,198.9,200.3,198.9"/>
	<path class="st4" d="M191,207.7l18.9-25.4c0,0,6.2-12-2.7-24.2l-13.4-9.9l-26.1,38.7C185.3,192.4,191,207.7,191,207.7"/>
	<path class="st5" d="M209.9,182.4c0,0,6.2-12-2.7-24.2l-9.8,7.7C208.9,173.4,209.9,182.4,209.9,182.4"/>
</g>
</svg>
