<svg id="Layer_1" data-name="Layer 1" xmlns="http://www.w3.org/2000/svg" viewBox="0 0 250 250"><defs><style>.cls-1,.cls-3{fill:#231f20;}.cls-1{opacity:0.06;}.cls-2{opacity:0.26;}</style></defs><title>add-from-image-library</title><circle class="cls-1" cx="125" cy="125" r="125"/><g class="cls-2"><path class="cls-3" d="M1468.86,1801.81h12.6v87.45h87.45v12.6h-87.45a11.76,11.76,0,0,1-4.91-1,11.78,11.78,0,0,1-6.67-6.67,11.76,11.76,0,0,1-1-4.91v-87.45Zm125.1,62.55a11.46,11.46,0,0,1-1,4.76,15.14,15.14,0,0,1-2.64,4,12.38,12.38,0,0,1-8.94,3.66h-75a12.14,12.14,0,0,1-4.76-1,12.64,12.64,0,0,1-6.74-6.74,12.14,12.14,0,0,1-1-4.76v-75a12.38,12.38,0,0,1,3.66-8.94,15.14,15.14,0,0,1,4-2.64,11.46,11.46,0,0,1,4.76-1h75a11.82,11.82,0,0,1,4.91,1,11.78,11.78,0,0,1,6.67,6.67,11.82,11.82,0,0,1,1,4.91v75Zm-68.85-25-18.75,25h75l-24.9-31.35-18.6,23.29Z" transform="translate(-1406.41 -1714.31)"/></g></svg>