<svg id="Layer_1" data-name="Layer 1" xmlns="http://www.w3.org/2000/svg" viewBox="0 0 87.07 78.09"><defs><style>.cls-1{fill:#f37047;}.cls-2{fill:#ffcc2a;}.cls-3{fill:#46b2e6;}.cls-4{fill:#67bc6b;}</style></defs><title>Logo</title><path class="cls-1" d="M87.07,48.62a23.43,23.43,0,0,0-10.6-10.74c9.37-5.84,10-15.8,10.6-19.79V15.51C86.77,11.93,85.59,5.17,82.86,0H61A52.51,52.51,0,0,0,46.7,21.32c6.37,5.09,11.46,15.6,14,21.34,2.23,5.25,6.05,15,6.21,22.77,4.3,2.55,8.92,3.5,13.69,1.59a13.26,13.26,0,0,0,6.46-6V48.62ZM75.2,21c-2.39,5.41-7.32,8.6-10.83,7s-4.46-7.32-1.91-12.74c2.39-5.41,7.32-8.6,10.83-7S77.59,15.58,75.2,21Z"/><ellipse class="cls-2" cx="48.79" cy="47.89" rx="6.69" ry="25.16" transform="translate(-15.06 23.47) rotate(-23.53)"/><path class="cls-3" d="M37,53c-2.55-5.89-6.85-17-6.05-25.32C23.61,24.82,13.42,22.75.21,24.82L0,24.86V55.57c3.37,2.25,11.5,8.65,22.5,5.55a22.24,22.24,0,0,0,1.22,17H47.81a17.25,17.25,0,0,0,1.91-4.87C44,68,39.37,58.41,37,53ZM23.77,45.84c-1.27,3.66-6.85,4.94-12.58,3-5.57-1.91-9.08-6.53-7.8-10.19s6.85-4.94,12.58-3C21.54,37.56,25,42.17,23.77,45.84Z"/><path class="cls-4" d="M21.39,13.56A11.3,11.3,0,1,0,38.51,0H25A11.3,11.3,0,0,0,21.39,13.56Z"/></svg>