<?xml version="1.0" encoding="UTF-8"?>
<svg xmlns="http://www.w3.org/2000/svg" xmlns:xlink="http://www.w3.org/1999/xlink" viewBox="0 0 48 48" version="1.1">
<g id="surface1">
<path style=" fill:#1976D2;" d="M 13.300781 15.101563 C 8.699219 17.898438 6 21.898438 6 21.898438 C 6 21.898438 6.699219 13.5 13.300781 8.601563 C 15.898438 6.601563 19.5 5 24.300781 5 C 26.101563 5 29.898438 5.300781 33.300781 7.398438 C 36.699219 9.5 38.101563 11.199219 39.699219 13.699219 C 40.398438 14.800781 40.898438 16.199219 41.199219 17.5 C 41.800781 20 41.898438 23.101563 41.898438 23.101563 L 41.898438 27 L 17 27 C 17 27 16.898438 35.101563 28.199219 35.101563 C 32.101563 35.101563 33.5 34.5 34.800781 34.101563 C 36.800781 33.5 39 32 39 32 L 39 40 C 39 40 34.101563 43 27.101563 43 C 25.101563 43 23.101563 42.800781 21.101563 42.199219 C 19.398438 41.601563 15.699219 40.199219 13.300781 36.699219 C 12.398438 35.5 11.5 33.800781 11 32.199219 C 10.5 30.5 10.5 28.800781 10.5 27.898438 C 10.5 24.398438 11.699219 21.101563 13.800781 18.699219 C 16.601563 15.601563 20 14 20 14 C 20 14 17 16.800781 17 20 L 31 20 C 31 20 31.101563 12 23.300781 12 C 20.101563 12 16.101563 13.398438 13.300781 15.101563 Z "/>
</g>
</svg>
