<svg id="Layer_1" data-name="Layer 1" xmlns="http://www.w3.org/2000/svg" viewBox="0 0 450 450"><defs><style>.cls-1{fill:#18afe1;}.cls-2{fill:#e36d26;}</style></defs><title>FM</title><path class="cls-1" d="M-2119.24,3734.06l0.22,0.64,0.16,0.46,1.31,3.88a86,86,0,0,1,15.09-1.35,88.08,88.08,0,0,1,25.16,3.74c3.71-5.87,7.51-11.65,11.23-17.3q2.34-3.56,4.67-7.12c0.69-1.05,1.39-2.07,2.27-3.35l1.68-2.45,15.53-22.73,4,27.24c0.42,2.84.82,5.54,1.21,8.13,0.81,5.43,1.58,10.57,2.3,15.65l0.33,2.33c1.36,9.53,2.77,19.35,4.09,29.11l85.39,17.16-16.29,13.81-45.25,38.37c2.41,2.09,4.88,4.19,7.42,6.36l5.63,4.81,11.53,9.91-13.17,7.61-7,4c-5.27,3-10.37,6-15.47,8.93l-4.7,2.72c-4.62,2.67-9.4,5.44-14.22,8.07-11.12,6.08-16.19,15.23-15.5,28,0.74,13.81,7.81,23.41,21,28.51a31.15,31.15,0,0,0,11.29,2.14,31.43,31.43,0,0,0,20.6-7.82,31.91,31.91,0,0,0,11-20.54c2.93-27.65,17.87-33,30.53-33s30.13,8.77,30,32.83c-1.58,31.13-15.29,55.71-40.75,73.14,21.32-2.8,44.62-11.5,58.44-22.39a107,107,0,0,0,37.77-60.23c4.12-18.12,5.42-46-11.81-75.72l-16.6-28.65s35.54,8.73,52.26,35.7c0.66,1.07,1.38,2.13,2.06,3.25a197.46,197.46,0,0,0-2.3-20,177.61,177.61,0,0,0-20-56.22c-9.36-16.89-21.38-32.28-36.74-47l-43-41.29,54.73,23.62a205.64,205.64,0,0,1,63.25,42.18q3.11,3.07,6.1,6.29a225.06,225.06,0,0,0-21.9-37.37l-17.28-24.08a224,224,0,0,0-110.78-29.13,224.14,224.14,0,0,0-149.79,57.12C-2122,3726-2120.61,3730-2119.24,3734.06Z" transform="translate(2198.65 -3664.82)"/><path class="cls-2" d="M-1835.94,3711.89l-0.47-.15c22.56,31.43,36.71,65.91,40.79,104.23-21.57-45.67-54.86-79.11-101.28-99.14a209.6,209.6,0,0,1,38.71,49.59,187.4,187.4,0,0,1,21.16,59.63c4,23.45,4,55-.21,62-12.48-29.9-26.57-51.43-36.52-55.83,31.94,55.14,12.25,117.62-28.61,149.82-29.51,23.26-88.59,33.79-107.3,18.43,11.7-1.51,22.54-4.84,32.34-11,24.74-15.45,38.38-37.74,39.83-67.48,0.06-.64.1-1.29,0.1-1.95,0-.06,0-0.12,0-0.18v0h0a19.31,19.31,0,0,0-19.31-19.09,19.32,19.32,0,0,0-19.31,19.12h0s-0.31,2.91-.54,4.58c-3.82,27.77-31.76,44.75-57.44,34.8-17.17-6.65-26.89-19.82-27.87-38-0.89-16.48,6-29.78,21.09-38,6.3-3.45,12.49-7.1,18.72-10.68,7.31-4.2,14.6-8.43,22.41-12.94-6.94-6-13.45-11.38-19.71-17.06a13.08,13.08,0,0,1-2.34-2.84l54.3-46c-2.26-.53-3.65-0.92-5.06-1.18q-30.95-5.78-61.91-11.49c-1.68-.31-4.64-1-4.64-1s-0.5-2.35-.67-3.67c-1.57-11.79-3.26-23.55-4.95-35.32-1.06-7.44-2.2-14.87-3.51-23.73-1.86,2.72-2.87,4.14-3.83,5.61-6.84,10.47-13.84,20.84-20.31,31.54-15.26-6.15-31-7.68-46.79-4-2,.46-4.93,1.37-4.93,1.37s-1.44-3.5-2.1-5.5q-1.26-3.84-2.56-7.69l-0.37-1.09c-3.57-10.51-7.39-21.14-11.39-32.61-1.28,3-2,4.68-2.65,6.32-11.2,27.3-21.71,54.9-33.75,81.82l0,0a224,224,0,0,0-21.84,96.77,224.27,224.27,0,0,0,65.1,158.28q3.43,3.42,6.92,6.69l1.25,1.16,0.59,0.55a224.17,224.17,0,0,0,151.13,58.32c124.26,0,225-100.74,225-225A224.61,224.61,0,0,0-1835.94,3711.89Zm-120.79,193.53c9,0,14.7,5.54,14.81,14.48-10.36.16-12.62,0.19-23,0l-6.3,0C-1970.1,3910.73-1965.7,3905.42-1956.73,3905.42Zm-20.18-109.2-12.21,9.55-4.54-12.4Z" transform="translate(2198.65 -3664.82)"/></svg>