<svg id="Layer_1" data-name="Layer 1" xmlns="http://www.w3.org/2000/svg" viewBox="0 0 450 449.28"><defs><style>.cls-1{fill:#13a15e;}.cls-2{fill:#de5145;}.cls-3{fill:#5d85c4;}.cls-4{fill:#ffcf44;}</style></defs><title>GC</title><path d="M-1297.51,4006.67l0,0h0v0Z" transform="translate(1555.07 -3664.74)"/><path class="cls-1" d="M-1330,4011.09a121.37,121.37,0,0,1-109.75-69.79l-89.73-155.44a223.63,223.63,0,0,0-25.57,104.08c0,114.21,85.63,208.92,196.07,223.17l61.47-106.41A122.66,122.66,0,0,1-1330,4011.09Z" transform="translate(1555.07 -3664.74)"/><path d="M-1448,3861.4l0,0v0h0Z" transform="translate(1555.07 -3664.74)"/><path d="M-1448.08,3861.53l0,0v0h0Z" transform="translate(1555.07 -3664.74)"/><path class="cls-2" d="M-1448.05,3861.29l0,0.08a122.66,122.66,0,0,1,12-30.52,121.37,121.37,0,0,1,114.38-61.9l179.46-2.73-0.28-.42h0c-1.08-1.64-2.19-3.26-3.31-4.88l-0.12-.18a223.62,223.62,0,0,0-75.17-67.79c-99.87-55.41-224.23-26.49-290.27,63.17l63.22,105.38Z" transform="translate(1555.07 -3664.74)"/><path class="cls-3" d="M-1303.78,3804.09q-1.56-.48-3.14-0.9l-1.6-.41q-1.14-.28-2.28-0.53t-2.27-.47l-1.74-.32c-0.89-.16-1.79-0.3-2.68-0.43l-1.48-.19c-0.95-.12-1.9-0.23-2.84-0.32l-1.47-.12c-0.93-.07-1.85-0.13-2.78-0.17l-1.67-.05c-0.85,0-1.7,0-2.55,0l-2,0c-0.74,0-1.48,0-2.22.07s-1.54.09-2.31,0.15l-1.9.16c-0.85.08-1.7,0.18-2.55,0.29l-1.69.22c-0.87.13-1.74,0.27-2.61,0.42l-1.68.31c-0.82.16-1.63,0.33-2.45,0.52l-1.93.45-2,.53q-1.24.34-2.47,0.71l-1.37.43q-1.67.53-3.31,1.13l-0.43.16a89.17,89.17,0,0,0-47.37,40.53,89.33,89.33,0,0,0-7.14,70.06l0.18,0.58q0.51,1.61,1.09,3.21,0.22,0.63.46,1.25,0.48,1.28,1,2.55c0.23,0.56.46,1.11,0.7,1.67,0.31,0.72.64,1.43,1,2.14s0.59,1.26.9,1.88,0.65,1.28,1,1.91,0.69,1.31,1.05,2c0.11,0.2.21,0.4,0.32,0.59l0,0.09c0.21,0.37.44,0.73,0.66,1.1,0.37,0.63.74,1.25,1.12,1.86s0.83,1.3,1.25,1.95,0.7,1.06,1.05,1.58c0.48,0.7,1,1.4,1.49,2.09,0.33,0.46.67,0.92,1,1.37,0.53,0.7,1.08,1.39,1.63,2.08,0.36,0.44.72,0.89,1.08,1.32q0.8,1,1.64,1.89,0.66,0.74,1.33,1.47t1.45,1.52q0.9,0.92,1.82,1.82l1,1q1.27,1.2,2.59,2.34l0.35,0.3a89.17,89.17,0,0,0,58.42,21.75,89.72,89.72,0,0,0,88.79-77.78c0-.17,0-0.34.06-0.5,0.13-1.06.26-2.13,0.36-3.2,0.08-.88.14-1.77,0.2-2.65,0-.39.05-0.78,0.07-1.17a89.05,89.05,0,0,0-13.32-51.83,89.19,89.19,0,0,0-49.22-38.12Z" transform="translate(1555.07 -3664.74)"/><path d="M-1248.05,3800.43h0Z" transform="translate(1555.07 -3664.74)"/><path class="cls-4" d="M-1125.19,3796.5l-122.83,3.93a122.65,122.65,0,0,1,20.88,25.29,121.37,121.37,0,0,1-1.37,130.05L-1313.19,4114a223.63,223.63,0,0,0,101.9-33.21C-1114.27,4020.54-1079,3897.83-1125.19,3796.5Z" transform="translate(1555.07 -3664.74)"/></svg>