<?xml version="1.0" encoding="UTF-8"?>
<svg width="198px" height="205px" viewBox="0 0 198 205" version="1.1" xmlns="http://www.w3.org/2000/svg" xmlns:xlink="http://www.w3.org/1999/xlink">
    <!-- Generator: sketchtool 40.3 (33839) - http://www.bohemiancoding.com/sketch -->
    <title>0BD4661E-3848-41CF-AC08-2FAC25CC115F</title>
    <desc>Created with sketchtool.</desc>
    <defs>
        <polygon id="path-1" points="0.050839431 0.251197488 0.050839431 16.1346375 16.2019875 16.1346375 16.2019875 0.251197488 0.051109034 0.251197488 16.2030274 0.250006797 16.2030274 16.1345991 0.051109034 16.1345991 0.051109034 0.251197488"></polygon>
        <path d="M0.184695462,7.57995654 C10.4427992,5.19045239 42.4265852,18.0217385 48.1469466,21.1178205 C56.4879765,25.6323102 66.9210872,27.6254869 75,27.6254869 C84.7923031,27.6254869 96.5265229,27.836077 107.953964,23.0150537 C114.83898,20.1103944 76.4657422,20.9415934 114.149062,7.57995654 C151.832381,-5.78168029 150.68718,4.28948989 151.832381,5.79410435 C156.639809,16.013832 134.553355,50.5509043 103.780138,54.3718961 C53.1803731,54.148302 20.7004478,10.9171371 0.184695462,7.57995654 Z" id="path-3"></path>
    </defs>
    <g id="Concept-4---Document-centric" stroke="none" stroke-width="1" fill="none" fill-rule="evenodd">
        <g id="01---Integrations---Workflow-type-details" transform="translate(-390.000000, -103.000000)">
            <g id="Area-landing" transform="translate(340.000000, 69.000000)">
                <g id="Jumbotron">
                    <g id="Group-2" transform="translate(24.000000, 0.000000)">
                        <g id="Page-1" transform="translate(22.784810, 41.739130)">
                            <g id="Group-73" transform="translate(3.797468, 0.215093)">
                                <path d="M197.315727,98.5788823 C197.315727,152.883631 153.17208,196.906567 98.718428,196.906567 C44.2651608,196.906567 0.121513943,152.883631 0.121513943,98.5788823 C0.121513943,44.2741335 44.2651608,0.251197488 98.718428,0.251197488 C153.17208,0.251197488 197.315727,44.2741335 197.315727,98.5788823" id="Fill-1" fill="#FF5252"></path>
                                <path d="M195.161483,119.119232 C191.083545,138.254796 181.42829,155.327391 167.96701,168.572105 L167.968165,168.572105 C181.42829,155.327391 191.083545,138.254796 195.161483,119.119232 M133.509815,190.610267 C129.114515,192.263792 124.575555,193.611578 119.90603,194.630964 C124.575555,193.611578 129.114515,192.263792 133.509815,190.610267" id="Fill-3" fill="#EAEAE9"></path>
                                <path d="M165.468174,110.10877 C161.055543,113.385092 155.585297,115.322846 149.660963,115.322846 C149.572764,115.322846 149.484951,115.322846 149.398293,115.322078 C147.507605,118.203936 145.463244,120.927931 143.297946,123.398423 L143.291398,123.393046 C141.939917,124.935568 140.541062,126.378993 139.103693,127.700276 C141.632569,129.616521 143.341853,132.553304 143.617618,135.894154 C144.335533,135.716703 145.08657,135.623752 145.85956,135.623752 C149.344372,135.623752 152.382798,137.534235 153.976923,140.363856 C154.546555,140.858569 155.051868,141.400526 155.502876,141.97321 C155.55256,141.972058 155.603014,141.972058 155.653468,141.972058 C158.097612,141.972058 160.206679,143.400119 161.188419,145.466161 C162.80026,146.970657 163.80819,149.111213 163.80819,151.486451 C163.80819,154.709768 161.953706,157.500979 159.249203,158.855294 C160.317601,161.486723 160.90495,164.363203 160.90495,167.375268 C160.90495,167.77703 160.895322,168.17572 160.874139,168.572105 L167.968165,168.572105 C181.42829,155.327391 191.083545,138.254796 195.161483,119.119232 C193.076296,119.534053 190.921013,119.751066 188.713349,119.751066 C179.627341,119.751066 171.404834,116.064148 165.468174,110.10877 M136.039462,111.56948 C132.886262,116.045711 127.668672,118.970203 121.765906,118.970203 C121.137731,118.970203 120.517644,118.937555 119.907186,118.873028 L119.907186,124.039092 C120.058549,124.061754 120.211067,124.080574 120.365896,124.092481 C120.547301,124.107845 120.730631,124.114374 120.915116,124.114374 C124.912559,124.114374 129.76888,120.708997 134.391417,115.355879 L134.603248,115.113899 C134.915217,114.748242 135.224875,114.369141 135.533378,113.986967 C135.63005,113.867898 135.726722,113.75075 135.823009,113.630144 C136.119572,113.256805 136.413825,112.872327 136.708077,112.483624 C136.801283,112.359945 136.896029,112.237419 136.988079,112.111436 C136.667637,111.937442 136.352201,111.756534 136.039462,111.56948 M133.851055,190.100191 L125.529565,190.100191 L125.548437,193.209816 C123.691642,193.732184 121.805577,194.203851 119.907186,194.619057 L119.907186,194.629811 C124.575555,193.610426 129.11567,192.26264 133.51097,190.609115 C133.621893,190.437425 133.734741,190.268808 133.851055,190.100191" id="Fill-5" fill="#D02A2A"></path>
                                <path d="M186.843344,54.4300019 C192.592436,65.8210782 196.185859,78.4819693 197.09057,91.8753278 L197.09057,91.8711027 C196.185859,78.4777443 192.592436,65.8210782 186.843344,54.4300019 M197.276211,95.7562137 C197.302401,96.6934032 197.316652,97.6340494 197.316652,98.5789207 C197.316652,105.621669 196.573317,112.494647 195.161368,119.119117 L195.162523,119.119117 C196.573317,112.494647 197.316652,105.621669 197.316652,98.5789207 C197.316652,97.6371222 197.303557,96.6945554 197.277367,95.7592865 C197.276211,95.7581342 197.276211,95.7569819 197.276211,95.7562137" id="Fill-7" fill="#EAEAE9"></path>
                                <path d="M186.842227,54.4300019 C177.410742,54.9588993 169.044189,59.4658585 163.402938,66.2938979 C171.051191,70.9287604 176.160169,79.3173738 176.160169,88.8951423 C176.160169,97.5825808 171.957058,105.290964 165.468097,110.108655 C171.404756,116.064417 179.626494,119.750951 188.713272,119.750951 C190.920165,119.750951 193.075449,119.534322 195.161406,119.119117 C196.572201,112.494647 197.315535,105.621669 197.315535,98.5789207 C197.315535,97.6340494 197.30244,96.6934032 197.27625,95.7562137 C197.14761,94.7026439 197.08175,93.6294852 197.08175,92.5424991 C197.08175,92.3189564 197.084061,92.0977182 197.089453,91.8753278 C196.185898,78.4819693 192.591319,65.8210782 186.842227,54.4300019" id="Fill-9" fill="#E84040"></path>
                                <path d="M149.660809,62.467054 C148.954834,62.467054 148.255407,62.4943247 147.563682,62.5492501 C146.915865,70.4688847 142.767829,77.4013976 136.663246,81.8031151 C136.419448,84.6454108 135.895648,87.5034544 135.067581,90.3426774 C137.645757,93.3735633 139.200596,97.2978519 139.200596,101.583573 C139.200596,105.299683 138.031289,108.744622 136.040463,111.569633 C136.352432,111.756687 136.667483,111.937595 136.989081,112.11159 C137.00025,112.096226 137.01219,112.07971 137.023359,112.064346 C137.311064,111.677948 137.596458,111.282715 137.880696,110.881721 C141.860808,105.261273 145.429197,98.3752356 147.790919,91.2502916 L147.668057,91.2833237 L148.953679,86.3676884 L146.754488,79.1793688 C146.559218,78.6988672 146.714818,78.1622879 147.105742,77.852324 C147.190475,77.7831871 147.287147,77.7263412 147.393447,77.6837067 C147.537492,77.6257085 147.685389,77.5984379 147.831745,77.5984379 C147.927261,77.5984379 148.021622,77.6091925 148.112517,77.6322381 C148.457609,77.717507 148.756098,77.9594862 148.898988,78.3101641 L150.335972,81.0825547 L151.351605,77.2020528 L152.37263,73.0749626 L153.357452,69.0961327 C153.371702,69.0377504 153.390574,68.9820567 153.414839,68.9282836 C153.514592,68.6985953 153.693685,68.5188393 153.912064,68.4128294 C153.914375,68.4116771 153.9163,68.4105248 153.918611,68.4093725 C153.918611,68.4093725 153.919767,68.4093725 153.920922,68.4082203 C154.05919,68.3436925 154.211708,68.3075876 154.371159,68.3075876 C154.454351,68.3075876 154.539083,68.3175741 154.624586,68.3383152 C154.738975,68.3667381 154.845275,68.4128294 154.939636,68.4727481 C155.308607,68.7070454 155.504262,69.1541308 155.394495,69.5962231 L153.610108,76.8045155 L153.342431,77.8853561 C153.343201,78.227968 153.56312,78.5390841 153.914375,78.6255053 C153.972532,78.6397167 154.030689,78.6462463 154.087691,78.6462463 C154.264473,78.6462463 154.431627,78.5817185 154.566429,78.4753245 C154.569895,78.4096444 154.579524,78.3428121 154.596085,78.277132 L155.107946,76.2064811 L156.881934,69.0400549 C156.998633,68.5672352 157.424606,68.251894 157.894486,68.251894 C157.9045,68.251894 157.915284,68.2526622 157.926453,68.2526622 C158.000016,68.2549667 158.07435,68.2649532 158.150224,68.2833897 C158.575041,68.3874792 158.873915,68.7335479 158.936309,69.1364625 C158.956337,69.2678227 158.951715,69.4045601 158.917822,69.5416817 L157.205843,76.4595991 L156.632744,78.7776065 C156.621959,78.8190887 156.609635,78.8586503 156.595384,78.8970597 C156.672414,79.1455686 156.864602,79.3525952 157.136901,79.4190435 C157.19814,79.4344073 157.258608,79.441321 157.319076,79.441321 C157.537454,79.441321 157.741968,79.3449134 157.885627,79.188203 C157.889864,79.1563232 157.896412,79.1248275 157.9045,79.0929477 L159.975051,70.7250754 C160.092521,70.2522556 160.517338,69.9369145 160.987218,69.9369145 C161.07195,69.9369145 161.156297,69.9476691 161.242185,69.9687943 C161.422049,70.012581 161.579189,70.1001544 161.706673,70.2173031 C161.786783,70.2918173 161.855725,70.3782385 161.90849,70.4734938 C161.992067,70.62137 162.039055,70.7899873 162.041366,70.9639819 C162.041366,70.9651341 162.041366,70.9662864 162.042521,70.9670546 C162.042521,71.0527076 162.033663,71.1391287 162.011709,71.2267022 L159.941158,79.5934222 L159.940003,79.5953427 C159.915738,79.6929025 159.878379,79.7839328 159.830236,79.8661289 C159.933455,80.0259121 160.093676,80.1472858 160.293568,80.1968339 C160.351725,80.2110454 160.409882,80.217575 160.466884,80.217575 C160.635964,80.217575 160.795415,80.1584245 160.92829,80.0608646 C160.930216,79.9886549 160.94023,79.9164453 160.958717,79.8442356 L161.283781,78.5302499 L162.534354,73.4736522 C162.557463,73.3814696 162.591356,73.2962007 162.635263,73.2186138 C162.749651,73.0127394 162.930671,72.8548767 163.143657,72.766151 L163.147123,72.7653828 L163.148279,72.7653828 C163.269985,72.7146824 163.401706,72.6874117 163.536892,72.6851072 L163.547676,72.6851072 C163.632409,72.6851072 163.717912,72.6962459 163.803799,72.716987 C164.131945,72.7980308 164.386527,73.023494 164.512855,73.3073395 C164.567931,73.4298655 164.598743,73.5623779 164.60298,73.7002677 L164.60298,73.7540408 C164.600669,73.8274028 164.59104,73.901917 164.572168,73.975279 L163.269985,79.2362148 L163.058154,80.0892876 L162.983436,80.4253698 L161.495612,87.0521439 C159.556781,96.1229083 155.204233,106.470401 149.398524,115.321848 C149.485182,115.323 149.572995,115.323 149.660809,115.323 C155.585528,115.323 161.055389,113.384862 165.46802,110.108924 C171.956981,105.292001 176.161247,97.5824656 176.161247,88.8950271 C176.161247,79.3172586 171.05227,70.9301816 163.404017,66.2941668 C159.39656,63.8651562 154.692757,62.467054 149.660809,62.467054" id="Fill-11" fill="#E84040"></path>
                                <path d="M135.067735,90.3425622 C134.754996,91.4145686 134.39912,92.4831182 133.998182,93.548595 C131.03717,101.412536 126.078785,108.013192 119.907186,112.981064 L119.907186,118.871914 C120.517644,118.936441 121.137731,118.970242 121.765906,118.970242 C127.668672,118.970242 132.886262,116.044598 136.039462,111.569518 C138.031058,108.743354 139.200365,105.299567 139.200365,101.583458 C139.200365,97.2977367 137.645911,93.3734481 135.067735,90.3425622" id="Fill-13" fill="#D02A2A"></path>
                                <path d="M197.090609,91.8722166 L197.090609,91.8764416 C197.184794,93.1631566 197.251771,94.4552489 197.292375,95.7561753 L197.292375,95.7604004 C197.253027,94.4564012 197.184794,93.1631566 197.090609,91.8722166" id="Fill-15" fill="#EAEAE9"></path>
                                <path d="M197.091378,91.8765953 C197.085518,92.0978334 197.08175,92.3202239 197.08175,92.5433825 C197.08175,93.6307527 197.153331,94.7027591 197.293145,95.7559449 C197.253796,94.4561707 197.185564,93.1644625 197.091378,91.8765953" id="Fill-17" fill="#E1E2E2"></path>
                                <path d="M9.57491356,61.7640851 L7.26595607,61.7640851 C6.76064294,63.0123907 6.27997923,64.2737554 5.82435009,65.5462589 C6.87387622,64.1016813 8.13985508,62.8261051 9.57491356,61.7640851" id="Fill-19" fill="#D02A2A"></path>
                                <path d="M119.90707,194.629965 C113.083032,196.12025 105.991317,196.905338 98.7197375,196.905338 C105.991317,196.905338 113.083032,196.12025 119.90707,194.629965" id="Fill-21" fill="#EAEAE9"></path>
                                <path d="M25.9202528,92.0791665 C25.5909519,92.1986197 25.2547184,92.3092388 24.9169443,92.4098714 L25.4692454,93.527585 C25.5019829,93.5944174 25.5270175,93.6635543 25.5447343,93.7334594 C25.6479537,93.7795507 25.7588761,93.8049009 25.8721094,93.8049009 C25.9795655,93.8049009 26.0893324,93.7818553 26.1937073,93.7303867 C26.3770374,93.6393564 26.5099132,93.4861029 26.5757734,93.3098037 C26.5110686,93.2387463 26.4552223,93.1577025 26.4097749,93.0678245 L26.4090046,93.0655199 L25.9202528,92.0791665 Z" id="Fill-23" fill="#E1E2E2"></path>
                                <path d="M28.3292715,92.2313829 C28.4598364,92.3235655 28.6169765,92.37465 28.7771977,92.37465 C28.8738697,92.37465 28.9705416,92.3562135 29.0637473,92.3178041 C29.0791532,92.3112745 29.094559,92.3047449 29.1099649,92.297063 C29.1307629,92.2870766 29.1504054,92.2763219 29.170433,92.2640309 C29.3853452,92.1326708 29.5074368,91.9095121 29.5282348,91.6717579 C29.5062814,91.6379577 29.4850983,91.6037733 29.4677667,91.5669003 L29.4643004,91.5634434 L28.992495,90.6062811 C28.6189022,90.8328966 28.2368362,91.0456847 27.8474524,91.2434931 L28.2907568,92.1415049 C28.3050073,92.1710802 28.3181023,92.2006554 28.3292715,92.2313829" id="Fill-25" fill="#E1E2E2"></path>
                                <path d="M57.7009055,172.161387 C57.7559815,172.069204 57.8129833,171.97971 57.8711405,171.889832 C58.568257,171.938996 59.2850159,172.000451 60.0140996,172.074966 C60.5787254,172.035404 61.1495136,172.014663 61.723768,172.014663 C65.5062987,172.014663 69.083546,172.896159 72.2575441,174.46403 L72.1685751,159.126004 C65.9411299,159.116017 60.8949312,154.077088 60.8949312,147.863215 C60.8949312,144.369112 62.490211,141.246043 64.9944381,139.181154 C60.6742419,137.808018 56.29974,135.391298 52.0858444,132.28513 L52.0715939,132.301646 C41.2971009,124.356277 31.5759854,111.871685 26.48588,100.671503 L23.4674814,94.2121942 L22.815042,92.891679 C21.8829858,93.0449325 20.9258949,93.124824 19.9507022,93.124824 C10.6844456,93.124824 3.10782982,85.9169157 2.54936638,76.8173443 C2.45192413,77.2459932 2.35910366,77.6761785 2.26782377,78.1067479 C2.21428831,78.3590977 2.15690138,78.609911 2.10529165,78.8634131 C0.805034687,85.2332283 0.121398399,91.8262022 0.121398399,98.5789591 C0.121398399,130.089648 14.9869251,158.136194 38.1030751,176.130998 C47.4594562,171.515725 56.6040062,167.170853 57.7009055,172.161387" id="Fill-27" fill="#D02A2A"></path>
                                <path d="M109.63558,121.787687 C109.999929,121.925576 110.360427,122.0723 110.715917,122.225554 L119.757633,124.013896 C119.807317,124.022346 119.856616,124.03118 119.905915,124.038862 L119.905915,112.980795 C116.763499,115.510054 113.304877,117.616041 109.63558,119.250746 L109.63558,121.787687 Z" id="Fill-29" fill="#D02A2A"></path>
                                <path d="M102.198772,196.838851 C102.792669,196.81811 103.386181,196.797753 103.977382,196.766642 C104.308223,196.749357 104.637524,196.724775 104.96721,196.704034 C105.506802,196.670618 106.046008,196.637202 106.582903,196.594952 C106.933002,196.567297 107.280404,196.533497 107.628963,196.502385 C108.143519,196.456294 108.657691,196.410586 109.169551,196.356429 C109.528509,196.318788 109.885925,196.275769 110.244112,196.233903 C110.741722,196.176289 111.239333,196.117523 111.734632,196.052227 C112.100907,196.004215 112.466026,195.951594 112.831146,195.899357 C113.31335,195.830604 113.794784,195.759931 114.274678,195.684265 C114.64827,195.625114 115.021093,195.562507 115.393145,195.499131 C115.858788,195.420392 116.323661,195.33858 116.786993,195.252927 C117.169829,195.182638 117.55151,195.109276 117.932806,195.034378 C118.378806,194.94642 118.823651,194.85539 119.267726,194.761287 C119.481098,194.716348 119.693314,194.669488 119.905915,194.622629 L119.905915,194.618788 C113.079951,196.110225 105.993628,196.894545 98.7185821,196.894545 C93.5175542,196.894545 88.4062657,196.492398 83.422846,195.718449 L83.3696957,195.718449 C83.4313192,195.728051 83.4921725,195.73919 83.5534109,195.748792 C83.7444439,195.777984 83.9366324,195.804486 84.1284357,195.832909 C84.6838179,195.914721 85.2403557,195.993076 85.798434,196.06567 C86.0433876,196.097934 86.2887263,196.128661 86.5340651,196.159005 C87.0840553,196.226605 87.6355861,196.288829 88.1882724,196.347595 C88.3950964,196.369488 88.6011502,196.393302 88.8083594,196.414043 C89.553234,196.487789 90.2996493,196.554622 91.0487606,196.612236 C91.196272,196.623375 91.3441686,196.631825 91.4920651,196.642579 C92.1036788,196.68675 92.7168332,196.725544 93.3319133,196.758576 C93.5791778,196.772019 93.8272126,196.783158 94.0748622,196.79468 C94.6206158,196.820031 95.1675249,196.840388 95.7152042,196.856904 C95.9493737,196.863817 96.1827729,196.871883 96.4173275,196.877261 C97.182615,196.894929 97.949058,196.906452 98.7185821,196.906452 C99.600184,196.906452 100.478705,196.893777 101.354915,196.870731 C101.637228,196.863433 101.91723,196.848454 102.198772,196.838851" id="Fill-31" fill="#E1E2E2"></path>
                                <path d="M31.7679813,90.9086015 C31.8746671,90.9086015 31.9832786,90.8855559 32.0864981,90.8340873 C32.4123326,90.6731519 32.5586885,90.3228582 32.4874363,89.9886964 L31.7649002,88.5249141 C31.4332884,88.8291165 31.089352,89.1217962 30.7357868,89.3998802 L31.3474006,90.6381993 C31.3782124,90.6996544 31.4013212,90.7630299 31.419038,90.8264054 C31.5276495,90.8790263 31.6474303,90.9086015 31.7679813,90.9086015" id="Fill-33" fill="#E1E2E2"></path>
                                <path d="M76.8833931,121.09455 C76.5440784,120.986236 76.2093855,120.874465 75.8789292,120.759621 C75.8612124,120.752707 75.8458065,120.748482 75.8280898,120.741952 C75.7248703,120.74733 75.6208806,120.749634 75.5141948,120.749634 C71.6592564,120.749634 66.077318,117.386891 60.53582,112.137862 C52.4042071,105.494572 46.3454564,96.4599124 43.4029317,86.5276252 C40.5285782,86.1139559 37.8036617,85.2389897 35.3044415,83.9806977 C34.7378899,85.0285062 34.068119,86.0098664 33.3062978,86.9144078 L34.2857271,88.8951807 L35.0267503,90.3482084 L36.1105546,92.4699437 L36.4475584,91.2120358 L36.9185934,89.4544216 C36.9590339,89.2212765 37.0688008,89.0165544 37.2224746,88.8579236 C37.4358461,88.6378377 37.7343352,88.5053253 38.0551628,88.5053253 L38.0559331,88.5053253 C38.1206378,88.5053253 38.1876535,88.5107026 38.2546691,88.5214572 C38.8058147,88.6159443 39.19905,89.0810822 39.2156113,89.6134365 C39.2186925,89.6898712 39.2133005,89.7678423 39.2002055,89.8454293 L38.5951392,97.3371831 L40.907563,101.863731 L40.9064076,101.863731 L40.7812347,101.858354 C44.6153751,108.313054 49.5803078,114.278418 54.6769607,118.91789 C55.0405397,119.248595 55.4029632,119.573538 55.7673125,119.890032 C55.9001882,120.004876 56.0319086,120.117799 56.1659398,120.231875 C56.5356811,120.547985 56.9058076,120.861405 57.2759341,121.162535 C57.3957148,121.260095 57.513955,121.353046 57.6348913,121.449453 C58.0181127,121.757113 58.4024896,122.061315 58.7868665,122.35169 L59.0414488,122.539896 C63.9174125,126.191478 68.652027,128.398098 72.3663867,128.398098 C73.3939594,128.398098 74.3448879,128.229481 75.1968335,127.874578 L81.8891513,124.961993 C82.9255824,124.203023 84.0255629,123.524329 85.1806193,122.930904 C82.403708,122.584835 79.6271818,121.978351 76.8833931,121.09455" id="Fill-35" fill="#D02A2A"></path>
                                <path d="M121.151096,33.9454996 C121.037863,33.9454996 120.925014,33.9466519 120.811781,33.9478042 C118.443511,33.9773794 116.148804,34.3165345 113.969256,34.927628 C119.672131,38.7631909 124.582372,43.8439866 128.159234,49.9768158 C130.291794,53.6318545 131.805808,56.8586283 132.780616,59.7339562 C134.245331,62.8985068 135.33029,66.2382043 136.001987,69.685064 C136.268894,71.0570478 136.745321,73.7944859 136.810411,76.9075679 C136.850851,78.5299811 136.802708,80.163917 136.662129,81.8039985 C142.766712,77.4011288 146.915903,70.4701522 147.562565,62.5489812 C147.621878,61.8318777 147.651534,61.10594 147.651534,60.3734727 C147.651534,45.7775159 135.787075,33.9454996 121.151096,33.9454996" id="Fill-39" fill="#E84040"></path>
                                <path d="M17.6559182,131.763837 L7.09364121,118.579426 C7.09364121,118.579426 3.55259781,112.302946 8.07268541,105.588982 L15.0415389,100.06379 L29.7345196,120.222964 C20.4174236,123.484691 17.6559182,131.763837 17.6559182,131.763837" id="Fill-41" fill="#FEFEFE"></path>
                                <path d="M7.09352567,118.579426 C7.09352567,118.579426 3.55248227,112.302946 8.07295501,105.588982 L13.4573129,109.502132 C7.42629285,113.758278 7.09352567,118.579426 7.09352567,118.579426" id="Fill-43" fill="#D8D8D8"></path>
                                <path d="M143.656017,136.844479 C143.656017,143.182031 138.504288,148.320825 132.148204,148.320825 C125.793275,148.320825 120.641546,143.182031 120.641546,136.844479 C120.641546,130.506928 125.793275,125.368134 132.148204,125.368134 C138.504288,125.368134 143.656017,130.506928 143.656017,136.844479" id="Fill-45" fill="#8B8A8A"></path>
                                <path d="M155.163792,144.902273 C155.163792,150.026855 150.99804,154.180832 145.859791,154.180832 C140.721157,154.180832 136.555405,150.026855 136.555405,144.902273 C136.555405,139.77769 140.721157,135.623713 145.859791,135.623713 C150.99804,135.623713 155.163792,139.77769 155.163792,144.902273" id="Fill-47" fill="#8B8A8A"></path>
                                <path d="M129.210147,144.902273 C129.210147,150.026855 125.044395,154.180832 119.906146,154.180832 C114.767512,154.180832 110.60176,150.026855 110.60176,144.902273 C110.60176,139.77769 114.767512,135.623713 119.906146,135.623713 C125.044395,135.623713 129.210147,139.77769 129.210147,144.902273" id="Fill-49" fill="#8B8A8A"></path>
                                <path d="M153.975806,140.363702 C154.274295,140.893752 154.522715,141.455298 154.712592,142.043346 C154.970641,142.003784 155.234081,141.97997 155.501759,141.97344 C155.050751,141.400756 154.545438,140.8588 153.975806,140.363702 M161.187302,145.466391 C161.56282,146.258009 161.773496,147.142578 161.773496,148.076694 C161.773496,151.12064 159.539257,153.643369 156.61753,154.105434 C157.674759,155.568448 158.560983,157.160518 159.249241,158.856677 C161.952589,157.500825 163.808229,154.709998 163.808229,151.487449 C163.808229,149.111444 162.799913,146.970504 161.187302,145.466391" id="Fill-51" fill="#B7B7B8"></path>
                                <path d="M109.581466,138.682907 C105.87481,140.053739 103.125244,142.600666 101.423663,145.850485 C103.250802,145.232862 105.18193,144.838782 107.184695,144.703965 C107.232839,142.389414 108.132157,140.282659 109.581466,138.682907" id="Fill-53" fill="#777677"></path>
                                <path d="M116.229646,137.564963 C113.755846,137.564963 111.535857,137.961348 109.58162,138.683829 C108.131156,140.28358 107.232993,142.390336 107.184464,144.705271 C107.700562,144.670318 108.222051,144.65265 108.747006,144.65265 C112.910448,144.65265 116.811604,145.764986 120.170087,147.709654 C120.342633,144.823572 122.525263,142.475989 125.341844,142.043499 C125.150426,141.455451 124.902391,140.893522 124.603902,140.363856 C122.682403,138.69612 120.025272,137.564963 116.229646,137.564963" id="Fill-55" fill="#777677"></path>
                                <path d="M155.503068,141.973287 C155.235006,141.979816 154.971565,142.002862 154.713517,142.043192 C151.89732,142.475682 149.714691,144.822496 149.5433,147.708579 C152.32984,149.322542 154.742017,151.508037 156.618455,154.104512 C159.540181,153.643215 161.774805,151.119334 161.774805,148.075389 C161.774805,147.142424 161.563745,146.257856 161.188226,145.466238 C159.911463,144.274778 158.25456,143.48316 156.418948,143.290345 C156.139717,142.838267 155.836991,142.396943 155.503068,141.973287 M159.149257,149.882167 C159.088018,149.692808 159.026395,149.498841 158.962846,149.301801 C159.142709,149.652094 159.22282,149.871028 159.149257,149.882167" id="Fill-57" fill="#777677"></path>
                                <path d="M125.551812,148.431328 C125.463487,148.443458 125.376418,148.456425 125.289349,148.470646 L125.289349,148.607839 C125.376418,148.548026 125.464743,148.489886 125.551812,148.431328" id="Fill-59" fill="#777677"></path>
                                <path d="M83.4832371,147.863061 C83.4832371,154.083464 78.4270246,159.12585 72.1895656,159.12585 C65.9521066,159.12585 60.8958941,154.083464 60.8958941,147.863061 C60.8958941,141.642659 65.9521066,136.600272 72.1895656,136.600272 C78.4270246,136.600272 83.4832371,141.642659 83.4832371,147.863061" id="Fill-61" fill="#8B8A8A"></path>
                                <path d="M45.01277,159.12585 C45.01277,151.521173 51.1943827,145.355696 58.8206825,145.355696 C66.446212,145.355696 72.6278246,151.521173 72.6278246,159.12585" id="Fill-63" fill="#8B8A8A"></path>
                                <path d="M34.4459484,176.329882 C34.4459484,187.037655 43.1506603,195.71818 53.887409,195.71818 C64.6245427,195.71818 73.3292547,187.037655 73.3292547,176.329882 C73.3292547,165.622109 64.6245427,156.941584 53.887409,156.941584 C43.1506603,156.941584 34.4459484,165.622109 34.4459484,176.329882" id="Fill-65" fill="#BABABB"></path>
                                <path d="M100.670701,195.718334 C100.670701,182.626873 90.0290834,172.01474 76.9021112,172.01474 C63.7747539,172.01474 53.1319812,182.626873 53.1319812,195.718334 L100.670701,195.718334" id="Fill-67" fill="#BABABB"></path>
                                <path d="M57.8710635,171.889794 C57.8129063,171.979672 57.7559045,172.06955 57.7008285,172.161348 C57.7139235,172.222803 57.7270185,172.283874 57.7404986,172.346482 C58.4869139,172.220499 59.2456539,172.129469 60.0144077,172.074927 C59.2853241,172.000413 58.56818,171.938958 57.8710635,171.889794" id="Fill-69" fill="#B7B7B8"></path>
                                <path d="M57.7119408,172.160273 C57.6654759,172.237653 57.6190109,172.315452 57.5733832,172.392832 C57.6344992,172.381957 57.6939408,172.372337 57.7550569,172.36188 C57.7404058,172.293702 57.7261733,172.228033 57.7119408,172.160273" id="Fill-71" fill="#999998"></path>
                            </g>
                            <path d="M67.1066949,179.954693 C66.3383262,180.009618 65.5795862,180.100264 64.8327858,180.226247 C64.7769394,180.235081 64.7218634,180.244684 64.666017,180.25467 C63.7358865,181.862104 63.2013022,183.724576 63.2013022,185.718408 C63.2013022,191.311585 67.3909335,195.884224 72.803022,196.60248 L72.803022,196.749204 L79.4344866,196.749204 L79.3532205,182.856523 C75.4389695,181.194164 71.0748665,180.362985 67.1066949,179.954693" id="Fill-74" fill="#999998"></path>
                            <g id="Group-80" transform="translate(6.108352, 170.752837)" fill="#BABABB">
                                <path d="M42.7348169,12.6115351 C42.7348169,19.4833612 37.1494121,25.0534926 30.2587435,25.0534926 C23.3688452,25.0534926 17.7826701,19.4833612 17.7826701,12.6115351 C17.7826701,5.73970897 23.3688452,0.169577509 30.2587435,0.169577509 C37.1494121,0.169577509 42.7348169,5.73970897 42.7348169,12.6115351" id="Fill-76"></path>
                                <path d="M0.23701959,25.0535694 C0.23701959,16.6530492 7.06644982,9.84229401 15.4900043,9.84229401 C23.9147143,9.84229401 30.7429891,16.6530492 30.7429891,25.0535694" id="Fill-78"></path>
                            </g>
                            <path d="M51.3685017,65.2060284 L50.1048337,67.6772893 C46.9131188,73.9207376 40.8632265,78.665451 33.0050681,80.2125818 C30.6872522,80.6688854 28.3551859,80.7883387 26.0473838,80.6558262 L27.3110518,78.1845653 C29.6188539,78.3170778 31.9509202,78.1976245 34.2687361,77.7409367 C42.1268945,76.193806 48.1767868,71.4494767 51.3685017,65.2060284" id="Fill-81" fill="#D02A2A"></path>
                            <g id="Group-153" transform="translate(0.412149, 23.644828)">
                                <path d="M40.731041,53.4995341 C40.558495,56.0387797 39.8394252,58.4278445 38.6909162,60.5511162 C41.188981,61.8094082 43.9150529,62.6839903 46.7894065,63.0980436 C45.5761928,59.0039855 44.8944822,54.7585943 44.8132162,50.4632709 C43.5834412,51.6021096 42.2177092,52.6214952 40.731041,53.4995341 L40.731041,53.4995341 Z" id="Fill-83" fill="#D02A2A"></path>
                                <path d="M28.6555977,54.5901307 C28.6490502,54.5901307 28.6428878,54.5897466 28.6363403,54.5897466 C28.6879501,54.5897466 28.7395598,54.5866738 28.7911695,54.5862897 C28.7461073,54.5866738 28.7006599,54.5901307 28.6555977,54.5901307 L28.6555977,54.5901307 Z M26.492611,29.1354518 L26.492611,29.1335313 L26.492611,29.1354518 L26.492611,29.1354518 Z M61.9808447,13.0638058 C58.5368584,11.4298698 54.6826903,10.5157261 50.6147656,10.5157261 C36.6543348,10.5157261 25.2146926,21.2814973 24.1890456,34.9421852 C23.9071178,34.9279737 23.6213386,34.9214441 23.3359445,34.9214441 C19.4490389,34.9214441 15.8586967,36.1904908 12.9593085,38.3345036 C11.52425,39.3965235 10.2582712,40.6732521 9.20835989,42.1162933 C7.90194057,45.7724843 6.80388589,49.5316124 5.93306806,53.3725526 C6.48536915,62.4794218 14.0658364,69.695012 23.3359445,69.695012 C24.3119075,69.695012 25.2693835,69.6151205 26.2006694,69.461867 L25.3683663,67.7756942 L24.0638727,65.1369683 C23.9826067,64.9714238 23.9498691,64.7962769 23.9587275,64.6242028 C23.9594978,64.6222823 23.9594978,64.6188255 23.9594978,64.6165209 L23.9594978,64.6122959 C23.9660453,64.5170406 23.986073,64.4240898 24.0176551,64.3342118 L24.0176551,64.3319073 C24.0188105,64.3299868 24.0199659,64.3276822 24.0211214,64.3253777 C24.0211214,64.3230731 24.0222768,64.3223049 24.0234323,64.3200003 C24.0234323,64.3176958 24.0245877,64.3165435 24.0245877,64.314623 C24.025358,64.3123185 24.0265134,64.3100139 24.0276689,64.3080934 L24.0276689,64.3057889 C24.0627173,64.2170631 24.1089349,64.1325625 24.1670922,64.0561278 C24.2637641,63.9278403 24.3912478,63.8195258 24.546077,63.7438593 C24.6920478,63.6716496 24.8457215,63.6366971 24.9970844,63.6343925 L25.0124903,63.6343925 C25.2081451,63.6343925 25.3980226,63.689318 25.5628656,63.7911029 C25.7230869,63.8886628 25.8578884,64.0319298 25.9468574,64.212454 L28.3020326,68.9802131 C28.6401918,68.8795804 28.9760402,68.7689614 29.3068816,68.6483558 L28.1614538,66.332653 L25.974588,61.9055853 C25.9206674,61.7949663 25.8875447,61.6801221 25.8744497,61.5641258 C25.8270766,61.140086 26.0469957,60.7129734 26.4564072,60.5128604 C26.6069997,60.4394985 26.7660655,60.4045459 26.9232056,60.4045459 C27.3071973,60.4045459 27.6761683,60.6146453 27.8575727,60.9814551 L31.2326176,67.8141036 C31.623542,67.6159111 32.0056081,67.4035071 32.3776603,67.1768917 L30.5046894,63.3828109 L28.6347997,59.5994848 C28.4976873,59.3190962 28.4976873,59.0072119 28.6105355,58.7398824 C28.6941124,58.5409217 28.8400832,58.3653908 29.0376637,58.2470898 C29.0630834,58.2328783 29.0892734,58.2186668 29.1158486,58.2056077 C29.266056,58.1322457 29.4243515,58.0972931 29.5811064,58.0972931 C29.7590444,58.0972931 29.9346716,58.1422321 30.0883453,58.227501 C30.2674387,58.3262132 30.4188016,58.4783144 30.516629,58.6742024 L31.2291513,60.1176277 L34.1212217,65.9700682 C34.4759422,65.6919842 34.8183381,65.3996886 35.1499499,65.0951021 L32.0887999,58.9000496 C31.9570795,58.6338725 31.9516875,58.3369678 32.0495149,58.0788566 C32.115375,57.9044779 32.2270677,57.7481517 32.3799712,57.6286984 C32.4381284,57.5826072 32.5016777,57.541125 32.5710042,57.5069406 C32.7146641,57.4370355 32.8675675,57.402083 33.0166195,57.3986261 L33.0574451,57.3986261 C33.392138,57.4051557 33.7129656,57.5718525 33.9051541,57.8606912 C33.9290332,57.8979483 33.9509866,57.9363577 33.9710143,57.9759194 L36.6916941,63.4845959 C37.4535153,62.5800544 38.1244417,61.5990783 38.6898378,60.5512698 C39.8395022,58.4279981 40.5574166,56.0389333 40.7299626,53.4996877 C38.3189411,54.9242924 35.5870919,55.9786305 32.5918021,56.5674467 C32.4797243,56.5904923 32.3668762,56.6116175 32.2536429,56.6323586 C30.7142095,56.9135154 29.1693841,57.0483324 27.6311061,57.0613916 C27.5509955,57.0613916 27.4708849,57.0625439 27.3907743,57.0625439 C26.8045802,57.0625439 26.2191565,57.0448755 25.6352733,57.0110753 L26.8989413,54.5398143 L26.8923938,54.1345951 L26.8989413,54.5386621 C27.4011732,54.5674691 27.9049458,54.5789919 28.4094886,54.583217 C27.9049458,54.5789919 27.4011732,54.5682373 26.8989413,54.5398143 C27.4808987,54.5736146 28.0636264,54.5912829 28.6490502,54.5912829 C28.7303162,54.5912829 28.8127377,54.5901307 28.8940038,54.5901307 C29.0434409,54.5889784 29.1936483,54.5797601 29.3434706,54.5739987 C30.8470853,54.5386621 32.3545514,54.3923222 33.8566255,54.0961857 C36.4101515,53.5934067 38.7680227,52.7472475 40.9036639,51.6276135 C40.8543651,51.6533478 40.8100732,51.6848435 40.7607743,51.7105778 C40.8104583,51.6848435 40.8547502,51.6529637 40.9040491,51.6272294 C41.5249064,51.3015177 42.125736,50.9523762 42.7076934,50.5809573 C42.811298,50.5148931 42.9137472,50.4484448 43.0161964,50.3808443 C43.5869845,50.003664 44.1385153,49.6061267 44.6684779,49.1870801 C44.7135401,49.1517434 44.7643795,49.1214 44.8090566,49.0856793 L44.8090566,49.084527 C44.768231,49.1175591 44.7220133,49.1448297 44.6808026,49.1770936 C51.9774164,43.4045446 55.3235753,33.7983532 52.4384376,24.0208559 C52.3117241,23.5899024 52.156895,23.1712399 52.0043767,22.751041 C52.1376376,23.1182349 52.2762906,23.4835083 52.3902942,23.8591523 C54.2567175,20.8290346 56.4624556,18.0535712 58.9747708,15.9521928 C59.977309,14.9712167 61.0333826,14.0305704 62.1379848,13.13832 C62.086375,13.1129698 62.0336099,13.0880037 61.9808447,13.0638058 L61.9808447,13.0638058 Z" id="Fill-85" fill="#E84040"></path>
                                <path d="M72.3445733,46.1642983 C67.2811992,75.2926004 4.89521337,78.5993268 4.89521337,78.5993268 C4.89521337,78.5993268 55.9375085,41.0902449 56.9759888,40.3031625 C64.0030318,34.9772435 72.3445733,38.0626509 72.3445733,46.1642983 Z" id="Rectangle-6" fill="#8F421F" transform="translate(38.619893, 58.126830) scale(-1, 1) rotate(-316.000000) translate(-38.619893, -58.126830) "></path>
                                <path d="M152.731001,64.2203279 L150.13973,55.7499025 C149.900554,55.1637751 150.185948,54.4946833 150.77869,54.2538563 C151.371816,54.0141817 152.044668,54.2945703 152.28423,54.8803137 L154.309719,58.7880862 L157.558821,60.9344036 L154.235386,64.8467853 C153.642259,65.0876122 152.969407,64.8072236 152.731001,64.2203279" id="Fill-87" fill="#F3D9C9"></path>
                                <path d="M160.0171,55.3478329 L162.301793,46.1107559 C162.440446,45.5545877 162.097665,44.9907377 161.53458,44.8524639 C160.972265,44.7145741 160.404558,45.0529609 160.267446,45.6091291 L157.980442,54.8462061 C157.842944,55.4035266 158.18457,55.9654561 158.74881,56.1044981 C159.311125,56.2435402 159.878832,55.9040011 160.0171,55.3478329" id="Fill-89" fill="#F3D9C9"></path>
                                <path d="M163.325283,56.1636102 L165.395835,47.7968902 C165.534488,47.2407221 165.189781,46.6780243 164.626311,46.5389823 C164.064381,46.4010925 163.497829,46.7383271 163.359176,47.2956475 L161.288625,55.6631357 C161.151127,56.2181516 161.493908,56.7812334 162.056994,56.9202754 C162.620464,57.0581652 163.188171,56.7197783 163.325283,56.1636102" id="Fill-91" fill="#F3D9C9"></path>
                                <path d="M161.27865,44.8219668 C160.80877,44.8219668 160.383953,45.137308 160.266483,45.6093595 L158.493265,52.776938 L160.267253,45.6093595 C160.383953,45.137308 160.811081,44.8219668 161.280961,44.8219668 L161.310617,44.8219668 L161.27865,44.8219668 M162.320473,45.7057671 C162.340501,45.8371273 162.335879,45.9738647 162.301986,46.1106022 L160.591162,53.0285196 L162.303141,46.1117545 C162.335879,45.975017 162.341656,45.8371273 162.320473,45.7057671 M165.090837,46.7873759 C165.172103,46.8618901 165.240274,46.9483113 165.293809,47.0424143 C165.240274,46.9483113 165.172103,46.8618901 165.090837,46.7873759 M165.426685,47.5340547 L165.426685,47.5363592 L165.426685,47.5340547 M165.426685,47.5363592 C165.427841,47.6227804 165.417827,47.7092015 165.395873,47.7960068 L163.325322,56.1623427 L163.325322,56.1657995 L163.326477,56.163495 L165.397029,47.7960068 C165.417827,47.7092015 165.427841,47.6227804 165.426685,47.5363592 M166.922212,49.255564 C166.78587,49.2567163 166.654149,49.283987 166.532443,49.3343033 C166.654149,49.2851393 166.78587,49.2567163 166.922212,49.255564 M166.532443,49.3343033 C166.531287,49.3354556 166.530132,49.3354556 166.528976,49.3366079 C166.530132,49.3354556 166.531287,49.3354556 166.532443,49.3343033 M155.75795,49.6454195 L154.736924,53.7709733 L153.720136,57.6514752 L153.721291,57.6526275 L154.734614,53.7775029 L155.75795,49.6454195 M166.019812,49.7875343 C165.975905,49.8666576 165.941627,49.9519265 165.919673,50.0429568 L164.667945,55.0991705 L165.919673,50.0429568 C165.942782,49.9519265 165.976675,49.8666576 166.019812,49.7875343 M167.898175,49.8774123 C167.988299,50.0798298 168.013719,50.313359 167.956332,50.5441995 L166.654149,55.8055194 L167.957487,50.5453518 C167.975204,50.4708375 167.984833,50.3974756 167.987144,50.3241136 L167.987144,50.2695723 C167.984063,50.1324507 167.952095,49.9999383 167.898175,49.8774123 M151.217064,54.1673584 C151.070708,54.1673584 150.922812,54.1950131 150.778767,54.2530113 C150.672466,54.296798 150.575794,54.353644 150.489906,54.4216286 C150.575794,54.353644 150.672466,54.296798 150.778767,54.2541636 C150.922812,54.1957813 151.070708,54.1673584 151.217064,54.1673584 C151.312581,54.1673584 151.406942,54.1796494 151.497836,54.2023109 C151.406942,54.1796494 151.312581,54.1673584 151.217064,54.1673584 M156.726595,54.4554289 L156.71427,54.5057452 C156.736224,54.827616 156.964616,55.1126137 157.299694,55.1955781 C157.362088,55.2109418 157.424867,55.2186237 157.486105,55.2186237 C157.65634,55.2186237 157.818872,55.1617778 157.950593,55.0630656 C157.950593,55.056536 157.950593,55.0511587 157.951748,55.0446291 C157.815791,55.1517913 157.648637,55.2163191 157.47301,55.2163191 C157.416008,55.2163191 157.357851,55.2097895 157.299694,55.1955781 C156.947284,55.1091569 156.728521,54.7980407 156.726595,54.4554289 M159.979933,55.4659802 C159.977622,55.4725098 159.975312,55.4782713 159.973001,55.4848008 C160.053496,55.7267801 160.254158,55.9238203 160.522221,55.9895004 C160.584614,56.0048642 160.647393,56.012546 160.708632,56.012546 C160.922774,56.012546 161.124976,55.922668 161.26748,55.7717191 C161.268636,55.76711 161.268636,55.7628849 161.269791,55.7586599 C161.126131,55.9149862 160.921618,56.0113937 160.70324,56.0113937 C160.643927,56.0113937 160.582689,56.0037119 160.522221,55.9895004 C160.249921,55.922668 160.056578,55.7144891 159.979933,55.4659802 M163.2144,56.4362017 C163.317619,56.5959848 163.478996,56.7177427 163.678887,56.7669067 C163.740125,56.7822704 163.802904,56.7899523 163.864528,56.7899523 C164.02783,56.7899523 164.183815,56.7373314 164.312454,56.6463012 C164.312454,56.6409238 164.31361,56.6355465 164.31361,56.6301692 C164.180734,56.727345 164.020127,56.7876478 163.851048,56.7876478 C163.794046,56.7876478 163.737044,56.7811182 163.677732,56.7669067 C163.478996,56.7165904 163.317619,56.5948326 163.2144,56.4362017 M166.3676,56.9946744 L164.895182,63.5534639 C164.890945,63.5765095 164.885553,63.5984029 164.880931,63.6226008 L166.3676,56.9946744" id="Fill-93" fill="#DDDFDF"></path>
                                <path d="M140.373399,88.6817781 C140.280193,88.8077609 140.186602,88.9302869 140.093397,89.0539652 C139.799144,89.4426683 139.504892,89.8271464 139.208328,90.2004858 C139.111656,90.3210913 139.014214,90.43824 138.918698,90.5573091 C138.610195,90.9394827 138.300536,91.3185835 137.987412,91.684241 L137.776736,91.9262202 C133.153044,97.2781863 128.296723,100.684716 124.300435,100.684716 C124.114795,100.684716 123.93262,100.678187 123.751216,100.662823 C123.93262,100.678187 124.117105,100.684716 124.302361,100.684716 C129.057774,100.684716 135.028326,95.8700976 140.375709,88.6829303 L140.373399,88.6817781" id="Fill-95" fill="#DDDFDF"></path>
                                <path d="M152.339036,62.9381069 L151.053415,67.853358 L151.176277,67.8195578 C148.814554,74.94527 145.246166,81.8316917 141.266054,87.4509872 C140.981816,87.8527495 140.696422,88.2479823 140.408717,88.6347649 C140.396392,88.6501287 140.385608,88.6654925 140.373283,88.6816244 L140.375594,88.6827767 C140.733396,88.2022751 141.088116,87.7106347 141.440526,87.2090079 L141.443992,87.2124648 C145.353622,81.6377242 148.850758,74.8392601 151.177432,67.8195578 L151.053415,67.8522058 L152.339036,62.9381069" id="Fill-97" fill="#DDDFDF"></path>
                                <path d="M151.217988,54.1685875 C151.072018,54.1685875 150.923736,54.1958581 150.778921,54.2538563 C150.672235,54.2976431 150.576718,54.354489 150.491216,54.4224736 C150.101447,54.7324375 149.944307,55.2690168 150.140732,55.7495184 L152.339152,62.9382221 L152.339152,62.9389903 L153.722601,57.6538566 L153.721445,57.6527043 L152.284076,54.8803137 C152.141571,54.5300199 151.842697,54.2888089 151.499146,54.2023877 C151.407866,54.1804944 151.313505,54.1685875 151.217988,54.1685875" id="Fill-99" fill="#F1D6C6"></path>
                                <path d="M161.280845,44.8219668 C160.810965,44.8219668 160.383837,45.137308 160.267523,45.6093595 L158.49315,52.776938 L157.980519,54.8452843 L157.972816,55.0269608 C157.965883,55.0334904 157.958565,55.0388677 157.951633,55.0446291 C157.950862,55.0511587 157.950862,55.056536 157.950862,55.0630656 C158.085664,54.9612807 158.186572,54.8145568 158.230864,54.6382576 L158.23279,54.631728 L159.95902,55.0576883 L159.956709,55.0642179 C159.920505,55.2086373 159.929363,55.3534407 159.97327,55.4848008 C159.975196,55.4782713 159.977507,55.4725098 159.979818,55.4659802 C159.977507,55.4582984 159.975196,55.4498483 159.97327,55.4410141 L160.017177,55.3476793 L160.590276,53.0285196 L162.30187,46.1106022 C162.336148,45.9738647 162.340385,45.8371273 162.320742,45.7057671 C162.257963,45.3036207 161.958319,44.9567838 161.533502,44.8538466 C161.458783,44.835026 161.384064,44.8242713 161.310501,44.8219668 L161.280845,44.8219668" id="Fill-101" fill="#F1D6C6"></path>
                                <path d="M164.372691,46.5082548 C163.902812,46.5082548 163.477994,46.8224437 163.359369,47.2956475 L161.289588,55.6619834 L161.285351,55.7411068 C161.280729,55.7476364 161.275337,55.7530137 161.269945,55.758391 C161.26879,55.7637683 161.26879,55.7683775 161.267634,55.7726025 C161.355448,55.680804 161.420153,55.5655758 161.453275,55.4342157 L161.454431,55.4265338 L163.115571,55.8363621 L163.114415,55.8428917 C163.06165,56.0541434 163.103631,56.2676997 163.214168,56.4374692 L163.214168,56.436317 C163.211087,56.4309396 163.207621,56.4251782 163.203384,56.4198009 L163.325091,56.1659148 L163.325091,56.1636102 L165.396027,47.7968902 C165.417981,47.710469 165.427995,47.6228956 165.426839,47.5376267 L165.426839,47.5341699 C165.424528,47.3601753 165.37754,47.191558 165.293963,47.0436818 C165.240043,46.9484265 165.171872,46.8620053 165.090991,46.7874911 C164.964662,46.6714947 164.806367,46.5839213 164.626503,46.5389823 C164.541771,46.5182412 164.456268,46.5082548 164.372691,46.5082548" id="Fill-103" fill="#F1D6C6"></path>
                                <path d="M166.932071,49.2554488 L166.922058,49.2554488 C166.786101,49.2566011 166.65438,49.2838718 166.532289,49.3341881 C166.531133,49.3353404 166.530363,49.3353404 166.529207,49.3364927 C166.316221,49.4240661 166.134817,49.5819287 166.019658,49.787419 C165.976906,49.8665424 165.942628,49.9518113 165.919905,50.0428416 L164.669332,55.0994393 L164.344267,56.4122727 L164.335409,56.6135379 C164.327706,56.6200675 164.321159,56.625829 164.313456,56.630054 L164.313456,56.64657 C164.456345,56.5447851 164.566112,56.3934521 164.610789,56.209471 L164.6131,56.2029414 L166.444475,56.6530996 L166.65438,55.8054041 L167.956563,50.5440843 C168.01472,50.3120915 167.988145,50.0800987 167.898406,49.877297 C167.770922,49.5926834 167.51634,49.3683725 167.187809,49.2873286 C167.102306,49.2654353 167.016419,49.2554488 166.932071,49.2554488" id="Fill-105" fill="#F1D6C6"></path>
                                <path d="M154.735885,53.7776566 L153.722562,57.6539334 L152.339113,62.9379148 L151.053492,67.8523978 L151.177509,67.8193657 C151.928547,65.5539792 152.557492,63.2666993 153.038541,60.9890218 L164.910703,63.4844806 C164.906467,63.5075263 164.90069,63.5305719 164.896453,63.5536175 L166.368871,56.9948281 L166.444745,56.655289 L166.444745,56.6529844 L164.612985,56.2028262 L164.611059,56.2097399 C164.565997,56.3937209 164.457385,56.5446699 164.31334,56.6464548 C164.185086,56.7382533 164.027946,56.790106 163.865414,56.790106 C163.80379,56.790106 163.741396,56.7824241 163.678617,56.7670603 C163.479881,56.7175122 163.317349,56.5961385 163.214515,56.4375077 C163.104363,56.2665858 163.061612,56.0541818 163.114377,55.8417778 L163.115532,55.8352482 L161.454392,55.4254199 L161.453237,55.4331018 C161.42127,55.5644619 161.35541,55.6796902 161.268751,55.7726409 C161.125862,55.9228217 160.924045,56.0123156 160.708747,56.0123156 C160.647124,56.0123156 160.58473,56.0046337 160.521951,55.989654 C160.254274,55.923974 160.054382,55.7265496 159.973116,55.4845704 C159.930365,55.3532102 159.921506,55.2087909 159.956555,55.0643715 L159.958866,55.0578419 L158.233021,54.6318817 L158.23071,54.6384113 C158.187959,54.8147104 158.085895,54.9614343 157.950708,55.0632193 C157.820143,55.1615473 157.657611,55.2187773 157.487376,55.2187773 C157.425753,55.2187773 157.362203,55.2110955 157.299424,55.1957317 C156.965887,55.1123833 156.737495,54.8289219 156.715541,54.5058988 L156.707838,54.5331695 C156.591524,55.0063733 156.165551,55.3205622 155.694516,55.3205622 C155.610939,55.3205622 155.525436,55.3105758 155.439548,55.2898347 C154.876463,55.151945 154.534838,54.588095 154.672335,54.032695 L154.735885,53.7776566" id="Fill-107" fill="#F1D6C6"></path>
                                <path d="M157.306203,44.9785619 L157.303892,44.9797142 L157.306203,44.9785619 M157.297345,44.982787 C157.078966,45.0880287 156.899873,45.2685529 156.798964,45.4986252 C156.899873,45.2677847 157.080121,45.0880287 157.297345,44.982787 M158.325302,45.0430897 C158.693118,45.2773871 158.889543,45.7240884 158.779776,46.1665647 L156.994234,53.3748572 L158.779776,46.1665647 C158.888388,45.7229361 158.693118,45.2762348 158.325302,45.0430897" id="Fill-109" fill="#DDDFDF"></path>
                                <path d="M157.754206,44.8778141 C157.595911,44.8778141 157.443392,44.9127666 157.30628,44.9784467 L157.303969,44.979599 C157.300888,44.9807513 157.298577,44.9819035 157.296266,44.9830558 C157.079043,45.0879135 156.89995,45.2676695 156.799041,45.49851 C156.775932,45.5511309 156.75706,45.6072086 156.742039,45.6652068 L155.757988,49.645189 L154.734652,53.7776566 L154.672258,54.032695 C154.535146,54.588095 154.876386,55.151945 155.439857,55.2898347 C155.524204,55.3105758 155.609706,55.3205622 155.693283,55.3205622 C156.164318,55.3205622 156.590291,55.0063733 156.707761,54.5331695 L156.714309,54.5047466 L156.726633,54.4555825 L156.726633,54.4544302 L156.994311,53.3747419 L158.778698,46.1664495 C158.888465,45.7243573 158.69281,45.2776559 158.324994,45.0433586 C158.230633,44.9830558 158.124333,44.9369645 158.008788,44.9085416 C157.924441,44.8878005 157.838553,44.8778141 157.754206,44.8778141" id="Fill-111" fill="#F1D6C6"></path>
                                <path d="M153.038425,60.9890986 C152.557376,63.2667761 151.928431,65.5552083 151.177394,67.8205948 C148.851875,74.8391448 145.353968,81.6391453 141.443954,87.2135018 L150.795328,94.7686312 L150.794172,94.7674789 C157.451057,85.5304019 162.508425,74.1746622 164.736116,64.2412227 L164.742664,64.2400704 L164.880931,63.6235995 C164.886709,63.5994016 164.890945,63.5775082 164.896337,63.5536944 C164.900959,63.5306487 164.906351,63.5076031 164.910588,63.4845574 L153.038425,60.9890986 M147.207297,99.3501047 C147.031669,99.5559791 146.854887,99.7607012 146.676949,99.9631187 L146.683496,99.968496 C146.860279,99.7672308 147.033595,99.5578995 147.207297,99.3501047" id="Fill-113" fill="#F1D6C6"></path>
                                <path d="M141.440642,87.2101218 C141.089387,87.7117486 140.734667,88.2022367 140.376865,88.6827383 C135.029481,95.8702897 129.058929,100.685676 124.303517,100.685676 C124.117105,100.685676 123.933775,100.677995 123.751216,100.662631 C123.545932,100.646499 123.344115,100.619996 123.143068,100.583891 L114.102508,98.7970861 C120.169732,101.429282 124.954801,106.405989 127.218696,112.53344 C134.144798,111.421872 140.840197,106.603029 146.665934,99.9555137 L146.676718,99.9631955 C146.854656,99.7603939 147.031438,99.5556718 147.207065,99.3497974 C147.298345,99.2414829 147.38847,99.1320161 147.478209,99.0248538 L147.668472,98.8001588 C148.165697,98.204429 148.656374,97.59564 149.139734,96.9749441 L149.274536,96.803254 C149.772146,96.1602807 150.259357,95.5065526 150.741561,94.8409177 L150.795482,94.768708 L141.444878,87.2135787 L141.440642,87.2101218" id="Fill-115" fill="#373837"></path>
                                <path d="M63.3798149,140.068296 L38.5832676,141.33619 C38.5832676,141.33619 28.0518024,140.172385 23.8960641,129.052863 L23.2590306,116.039374 L59.9277405,115.833499 C55.8498019,129.700062 63.3798149,140.068296 63.3798149,140.068296" id="Fill-117" fill="#FEFEFE"></path>
                                <path d="M38.5833831,141.337342 C38.5833831,141.337342 28.0526883,140.173537 23.8969499,129.052863 L33.1836193,126.004693 C33.1065899,136.816172 38.5833831,141.337342 38.5833831,141.337342" id="Fill-119" fill="#D8D8D8"></path>
                                <path d="M128.932793,169.790566 L128.647014,120.408367 C128.578073,107.333422 117.537058,96.6890245 104.110056,96.7558568 L99.7563521,96.776982 C86.3293503,96.8434303 75.3992578,107.596142 75.4674288,120.672239 L75.7532081,169.919622 C84.1417142,172.234173 92.9766059,173.476717 102.103824,173.476717 C111.403974,173.476717 120.402553,172.19077 128.932793,169.790566" id="Fill-121" fill="#383838"></path>
                                <path d="M113.020976,78.7384289 L92.1617885,79.016513 L92.1617885,98.7869844 L92.2003032,98.7881367 C92.5384624,104.120898 97.0885915,108.334025 102.643955,108.306755 C107.940499,108.280636 112.284189,104.408584 112.924304,99.4234282 L113.020976,99.426501 L113.020976,78.7384289" id="Fill-123" fill="#F3D9C9"></path>
                                <path d="M113.020976,78.7384289 L92.1617885,79.016513 L92.1617885,98.7869844 L92.2003032,98.7881367 C92.5384624,104.120898 97.0885915,108.334025 102.643955,108.306755 C107.940499,108.280636 112.284189,104.408584 112.924304,99.4234282 L113.020976,99.426501 L113.020976,78.7384289" id="Fill-125" fill="#F3D9C9"></path>
                                <path d="M113.020976,95.8208952 C107.141319,98.4400323 100.719374,99.848121 94.1764935,99.848121 C93.5583322,99.848121 92.9382452,99.8362141 92.3189285,99.8108638 C93.1304337,104.632012 97.4190478,108.306639 102.590419,108.306639 L102.643955,108.306639 C107.940499,108.279369 112.284189,104.407701 112.924304,99.4221607 L113.020976,99.4256175 L113.020976,95.8208952" id="Fill-127" fill="#F1D6C6"></path>
                                <polygon id="Fill-129" fill="#969696" points="85.1474491 166.670302 178.690847 166.670302 178.690847 145.142216 85.1474491 145.142216"></polygon>
                                <path d="M117.528816,129.886232 C117.528816,145.40824 130.146623,157.991544 145.711192,157.991544 C161.277302,157.991544 173.895109,145.40824 173.895109,129.886232 C173.895109,114.364225 161.277302,101.78092 145.711192,101.78092 C130.146623,101.78092 117.528816,114.364225 117.528816,129.886232" id="Fill-131" fill="#969696"></path>
                                <path d="M89.3462854,143.945571 C89.3462854,156.495843 99.5476794,166.669342 112.132364,166.669342 C124.717049,166.669342 134.918443,156.495843 134.918443,143.945571 C134.918443,131.395299 124.717049,121.221801 112.132364,121.221801 C99.5476794,121.221801 89.3462854,131.395299 89.3462854,143.945571" id="Fill-132" fill="#969696"></path>
                                <path d="M73.1557368,151.719749 C73.1557368,159.977003 79.8676971,166.669457 88.1464363,166.669457 C96.4259457,166.669457 103.137906,159.977003 103.137906,151.719749 C103.137906,143.462496 96.4259457,136.770426 88.1464363,136.770426 C79.8676971,136.770426 73.1557368,143.462496 73.1557368,151.719749" id="Fill-133" fill="#969696"></path>
                                <path d="M152.907437,143.945571 C152.907437,156.495843 163.109601,166.669342 175.693516,166.669342 C188.2782,166.669342 198.479594,156.495843 198.479594,143.945571 C198.479594,131.395299 188.2782,121.221801 175.693516,121.221801 C163.109601,121.221801 152.907437,131.395299 152.907437,143.945571" id="Fill-134" fill="#969696"></path>
                                <path d="M102.02044,151.181058 C101.877936,151.181058 101.74506,151.21601 101.604481,151.22254 C99.7565447,144.830447 93.9119359,140.125295 86.9057231,140.125295 C82.4468739,140.125295 78.4659924,142.049222 75.6594247,145.075499 C72.0197836,141.697776 67.1788684,139.589868 61.8153084,139.589868 C50.5578408,139.589868 41.4325481,148.689824 41.4325481,159.916508 L41.4325481,160.640525 L111.505845,160.640525 C111.505845,155.416462 107.258827,151.181058 102.02044,151.181058" id="Fill-135" fill="#49494B"></path>
                                <path d="M50.1735024,152.939555 C50.1735024,148.686866 46.716036,145.238854 42.4516861,145.238854 C38.1869511,145.238854 34.7294847,148.686866 34.7294847,152.939555 C34.7294847,157.192244 38.1869511,160.640256 42.4516861,160.640256 C46.716036,160.640256 50.1735024,157.192244 50.1735024,152.939555" id="Fill-136" fill="#49494B"></path>
                                <path d="M85.083245,147.487725 C85.083245,135.614994 75.4322264,125.989214 63.5257857,125.989214 C51.6205005,125.989214 41.9683264,135.614994 41.9683264,147.487725 C41.9683264,152.311177 43.5616803,156.763211 46.2515484,160.350265" id="Fill-137" fill="#49494B"></path>
                                <path d="M146.05536,163.347696 C146.05536,168.819116 141.60768,173.255018 136.120873,173.255018 C130.634451,173.255018 126.186771,168.819116 126.186771,163.347696 C126.186771,157.876277 130.634451,153.440375 136.120873,153.440375 C141.60768,153.440375 146.05536,157.876277 146.05536,163.347696" id="Fill-138" fill="#49494B"></path>
                                <path d="M112.216172,173.254902 C112.216172,166.565905 117.654451,161.142497 124.361789,161.142497 C131.069128,161.142497 136.507407,166.565905 136.507407,173.254902" id="Fill-139" fill="#49494B"></path>
                                <path d="M67.8551484,158.757082 C67.8551484,166.834579 74.4219082,173.383766 82.5219391,173.383766 C90.6223551,173.383766 97.1883446,166.834579 97.1883446,158.757082 C97.1883446,150.678432 90.6223551,144.130397 82.5219391,144.130397 C74.4219082,144.130397 67.8551484,150.678432 67.8551484,158.757082" id="Fill-140" fill="#49494B"></path>
                                <path d="M120.010627,173.383574 C120.010627,163.50698 111.982234,155.501693 102.078559,155.501693 C92.1760389,155.501693 84.1480306,163.50698 84.1480306,173.383574" id="Fill-141" fill="#49494B"></path>
                                <path d="M51.3417309,72.8037154 C59.5546099,86.8826817 73.243897,98.4915393 79.9624048,97.2255654 C88.6012566,95.5985431 90.3240201,77.7977058 102.781221,70.6128431 C124.929496,57.8390283 149.046259,56.5488565 131.544785,26.5468886 C118.980513,5.00804828 89.9943341,-3.54995056 67.8475995,9.22386423 C45.6993244,21.997679 38.7778439,51.2648751 51.3417309,72.8037154" id="Fill-142" fill="#D69C6E"></path>
                                <path d="M52.7109292,40.6852358 C61.4275808,17.5301279 87.4492813,5.34743375 110.830413,13.4744791 C126.174677,18.8091609 136.525123,31.5706847 139.387537,46.2553673 C139.654444,47.6273511 140.130871,50.3647892 140.195576,53.4774871 C140.332689,58.9754089 139.45879,64.6081477 137.383616,70.1187446 C128.666965,93.2742366 102.64642,105.456547 79.2641329,97.3287331 C55.8818462,89.2020718 43.9942777,63.841496 52.7109292,40.6852358" id="Fill-143" fill="#F3D9C9"></path>
                                <path d="M108.856379,55.458452 C109.943265,54.8308424 110.326486,53.4600108 109.70948,52.4033682 C109.09363,51.3455732 107.705559,50.9952795 106.618674,51.6228891 C105.531789,52.2501147 105.148567,53.6209462 105.765573,54.6775889 C106.382579,55.7353838 107.769494,56.0856775 108.856379,55.458452" id="Fill-144" fill="#3C3129"></path>
                                <path d="M135.162472,39.420491 C136.249358,38.7932655 136.632579,37.4220498 136.015574,36.3657913 C135.399723,35.3079963 134.012038,34.9573185 132.924767,35.5849281 C131.837882,36.2121537 131.45466,37.5833693 132.071666,38.640012 C132.688672,39.6974228 134.075587,40.0481006 135.162472,39.420491" id="Fill-145" fill="#3C3129"></path>
                                <path d="M66.255401,62.2680165 C75.6957441,78.4514339 80.6190808,84.2316647 76.4182802,96.8514578 C70.1488541,93.2782312 58.7839303,87.4246383 50.3260977,70.9039864 C45.1624292,60.8192138 46.9036797,50.1621412 46.1287635,45.1232117 C43.4989784,28.0145118 64.4294181,14.4936342 64.4294181,14.4936342 L72.8048292,12.1571903 C72.8048292,12.1571903 69.0134401,13.0559703 72.6873593,12.0093141 C68.5720614,17.4434762 56.689885,45.8698905 66.255401,62.2680165" id="Fill-146" fill="#D69C6E"></path>
                                <path d="M111.188446,10.2343388 L111.211446,10.2613388" id="Fill-147" fill="#F3D9C9"></path>
                                <path d="M111.073171,2.07468384 C109.388922,0.121181663 106.603538,-0.351638074 104.33271,0.747639008 L104.298817,0.697322692 L97.1223689,5.4812137 C88.5451407,8.10342357 76.2019431,12.9783449 66.4122714,21.2836098 C49.6552868,35.4985454 65.448248,35.4624405 65.448248,35.4624405 C69.8886101,35.7435974 90.1327175,23.2851238 90.1327175,23.2851238 L109.218687,10.7260175 C109.619625,10.5224477 110.005928,10.2758593 110.36373,9.97280916 C110.36373,9.97280916 110.694186,9.88293116 110.870198,9.48116881 C112.793624,7.40514064 112.927655,4.22407397 111.073171,2.07468384" id="Fill-148" fill="#D69C6E"></path>
                                <path d="M122.023176,48.8481555 C120.223768,47.7116213 119.763517,45.1013184 120.999839,43.0471836 L123.530642,38.8444268 C124.766964,36.790292 127.251549,36.0405405 129.051342,37.1770747 C130.85075,38.3136089 131.311771,40.9250641 130.074678,42.9791989 L127.544646,47.1804193 C126.307553,49.2345541 123.822583,49.9846897 122.023176,48.8481555" id="Fill-149" fill="#F4AE82"></path>
                                <path d="M129.797834,56.3048416 C131.773254,55.1133819 133.629664,55.7486734 135.382083,56.4492609 C135.810367,56.6213351 135.957493,57.1502325 135.743351,57.5619813 C135.630118,57.7763058 133.247598,59.2831066 130.929782,60.6746792 C128.808391,61.948335 126.740921,63.1244309 126.522542,63.1221263 C126.056129,63.120974 125.688313,62.7487869 125.699098,62.2886423 C125.754944,60.0059715 127.822414,57.4963012 129.797834,56.3048416" id="Fill-150" fill="#3C3129"></path>
                                <path d="M65.1233763,60.0550588 C65.4615355,60.8140285 65.8382095,61.5530254 66.2564794,62.2689767 C68.7753421,66.5888821 70.9745326,70.167102 72.7631562,73.3324208 C72.8421114,73.2832568 72.922222,73.235245 73.0034881,73.1880015 C74.2968124,72.442475 75.7068363,72.0833471 77.0933663,72.0768175 C77.1076167,72.0756652 77.1218672,72.0756652 77.1361176,72.0756652 C77.1515235,72.0756652 77.1657739,72.0756652 77.1800244,72.0768175 C79.9218873,72.0910289 82.5601457,73.4791447 84.0125358,75.9669217 C84.7123483,77.1672155 85.0512778,78.4788966 85.064758,79.7817435 C85.090948,82.5729547 83.6173748,85.323452 80.9725689,86.8486893 C80.0008425,87.4094666 78.9644114,87.7509262 77.9202773,87.888816 C78.00578,90.4610936 77.5886656,93.1743337 76.5961412,96.3070046 C77.4534789,96.6661325 78.3254522,97.0014466 79.2166828,97.3121786 C79.2320887,97.3175559 79.24865,97.3233173 79.2640559,97.3286947 C79.5987488,97.4446911 79.9338269,97.5576147 80.2696753,97.6647769 C83.1652119,98.5935163 86.3426764,99.27874 89.70116,99.6059881 L89.7805003,99.5710355 L89.777034,99.6129018 C91.1581719,99.7454142 92.5701215,99.8176239 94.0086463,99.8206967 L94.2393495,99.8206967 C106.104965,99.7911214 119.625172,95.0971084 131.22311,81.3453902 C129.101719,82.1404649 126.597107,82.4742426 123.867569,82.4742426 C114.094843,82.4742426 101.450461,78.1831442 93.2884211,75.3450735 C80.5847257,70.9291445 71.1917557,66.8362387 65.1233763,60.0550588" id="Fill-151" fill="#F1D6C6"></path>
                                <path d="M58.6289471,19.0521004 C55.2284824,22.1014228 51.1024004,26.5196563 48.4880212,31.8070946 C48.3366584,32.1128334 48.1906876,32.421645 48.0501088,32.7335294 C47.3352756,34.5994581 46.7510073,36.416991 46.3030811,38.0977864 C46.1474816,38.8798019 46.0342484,39.6725719 45.9683882,40.4772489 C45.8443708,41.9905793 45.8859667,43.5419351 46.1286094,45.1244024 C46.9039108,50.1633319 45.1622751,60.8204045 50.3263288,70.9051771 C50.6278991,71.4951455 50.9344763,72.0724388 51.2429792,72.6351365 C54.4115852,78.4065333 57.9295198,82.7886619 61.4077842,86.1940395 C63.9289578,88.6629959 66.4301037,90.6188026 68.7587037,92.2162496 C71.2325042,93.8006375 73.8511201,95.1772304 76.5937533,96.3126123 C76.5937533,96.3103078 76.5949088,96.3091555 76.5949088,96.307235 C77.5874331,93.1745642 78.0045475,90.46094 77.9202003,87.8890464 C77.5600877,87.9370582 77.1988196,87.9612561 76.8410178,87.9612561 C74.0825935,87.9612561 71.4235372,86.5708357 69.9642145,84.0688473 C69.2397526,82.825919 68.9015933,81.4639217 68.911222,80.1157516 C68.9331754,77.4585892 70.3112321,74.8567363 72.7619238,73.3326513 C70.9733002,70.1669484 68.7752651,66.5887285 66.2552469,62.2692071 C65.8381325,61.5528718 65.4603031,60.8138749 65.1221438,60.0549051 C60.0224097,54.3557181 57.2686072,46.7556497 56.8688244,35.4678947 C56.6119312,28.2169678 56.6308034,23.1200402 58.6289471,19.0521004" id="Fill-152" fill="#D29A6D"></path>
                            </g>
                            <g id="Group-156" transform="translate(69.272493, 95.470409)">
                                <mask id="mask-2" fill="white">
                                    <use xlink:href="#path-1"></use>
                                </mask>
                                <g id="Clip-155"></g>
                                <path d="M8.31867893,0.250006797 L8.23202081,0.250006797 C6.84510572,0.257688677 5.43546695,0.615664303 4.14214264,1.36234308 C4.06087658,1.40843436 3.98076596,1.45759839 3.90142564,1.50714652 C1.45073398,3.03007931 0.0719069831,5.63270038 0.051109034,8.2902469 L0.051109034,8.41507745 C0.0618931558,9.72138121 0.401207843,11.0388237 1.10410149,12.2421903 C2.55225498,14.7265104 5.18512127,16.1150103 7.92236245,16.1345991 L8.03636603,16.1345991 C9.41904449,16.1246126 10.8232912,15.7654847 12.1112235,15.023031 C14.7078859,13.5242961 16.1768373,10.8448562 16.2030274,8.10511358 L16.2030274,7.95531691 C16.1899323,6.65323819 15.8506177,5.34155711 15.1511903,4.1416474 C13.6988002,1.65271815 11.0601567,0.264218276 8.31867893,0.250006797" id="Fill-154" fill="#F2D2BE" mask="url(#mask-2)"></path>
                            </g>
                            <g id="Group-195" transform="translate(24.210270, 80.874837)">
                                <path d="M6.70645273,6.15268686 L8.58057903,9.94676758 L6.70645273,6.15268686 M1.21425359,6.40465254 L1.20462491,6.40465254 L1.21425359,6.40465254 C1.40990837,6.40465254 1.59978594,6.45919389 1.76462895,6.56097881 C1.60094139,6.45919389 1.40990837,6.40465254 1.21425359,6.40465254 M0.368855478,6.82600368 C0.311853692,6.90282248 0.264865733,6.98693907 0.230587631,7.07566479 C0.264865733,6.98693907 0.311853692,6.90282248 0.368855478,6.82600368 M0.22943219,7.07796936 C0.228276748,7.08027392 0.227506454,7.08219439 0.227506454,7.08449895 C0.227506454,7.08219439 0.228276748,7.08027392 0.22943219,7.07796936 M0.225195571,7.08987627 C0.224040129,7.09218083 0.224040129,7.09333312 0.222884687,7.09525359 C0.224040129,7.09333312 0.224040129,7.09102855 0.225195571,7.08987627 M0.220958951,7.10216728 C0.220958951,7.10216728 0.21980351,7.10293547 0.21980351,7.10408775 C0.21980351,7.10293547 0.220958951,7.10216728 0.220958951,7.10216728 M0.161646282,7.38217182 L0.161646282,7.38678095 L0.161646282,7.38217182 M0.161646282,7.39446283 C0.151632454,7.56615285 0.184755114,7.74129973 0.265636027,7.90684425 L1.57012961,10.5455702 L0.265636027,7.90684425 C0.184755114,7.74129973 0.151632454,7.56615285 0.161646282,7.39446283" id="Fill-157" fill="#DDDFDF"></path>
                                <path d="M17.6421684,7.84439056 C17.3217259,7.84439056 17.0228517,7.976903 16.8098653,8.19698887 C17.0240071,7.976903 17.3217259,7.84439056 17.6421684,7.84439056 M18.8037724,8.95250181 C18.8060832,9.02893652 18.8006912,9.1069076 18.787211,9.18449459 L18.1833002,16.6774007 L20.4945686,21.2027965 L18.1833002,16.6774007 L18.787211,9.18449459 C18.8006912,9.1069076 18.8060832,9.02893652 18.8037724,8.95250181 M5.50849086,11.4183854 L5.99608722,12.4058911 L5.99724267,12.4070434 C5.99724267,12.4070434 5.99724267,12.4058911 5.99608722,12.4047388 L5.50849086,11.4183854" id="Fill-159" fill="#DDDFDF"></path>
                                <polygon id="Fill-161" fill="#DDDFDF" points="4.36340971 9.10249052 5.50729691 11.4193456 5.50845235 11.4193456"></polygon>
                                <path d="M16.0347565,10.5511011 L15.6965973,11.8093931 L15.6977527,11.8093931 L16.0347565,10.5511011 M9.11520186,11.0108617 C9.09440391,11.2486159 8.9726974,11.4729268 8.75740011,11.6035187 C8.96923107,11.4752313 9.10018112,11.2586023 9.12521569,11.0262254 C9.12213451,11.0208481 9.11866819,11.0166231 9.11520186,11.0108617 M7.91623861,11.5704866 C7.9185495,11.5750958 7.91970494,11.5793208 7.92201582,11.5835458 C8.0483441,11.6703511 8.19970696,11.7172106 8.35453613,11.7172106 C8.45313382,11.7172106 8.55442753,11.6976218 8.65109948,11.6569078 C8.55750871,11.6964695 8.46006647,11.7141378 8.36454996,11.7141378 C8.20394358,11.7141378 8.04718866,11.6626692 7.91623861,11.5704866 M6.16304854,12.6490226 C6.09718837,12.8264741 5.96431258,12.9797276 5.78098251,13.0696056 C5.67660762,13.1210742 5.56684067,13.1452721 5.45899945,13.1452721 C5.34615132,13.1452721 5.23522892,13.1187696 5.13200947,13.0726783 C5.13316491,13.0784398 5.13432035,13.0838171 5.13509065,13.0880421 C5.23060716,13.1287561 5.33382661,13.1494972 5.4382015,13.1494972 C5.55374566,13.1494972 5.67121556,13.1241469 5.78098251,13.0696056 C5.96546802,12.9785753 6.09718837,12.8264741 6.16304854,12.6490226 M20.3649666,21.1974191 C25.5640687,29.9451604 32.8356479,37.8114059 39.6958899,42.6675066 L31.6728885,51.624195 C35.8871692,54.7307475 40.261286,57.1470829 44.5818673,58.5202191 C46.5349488,56.9085606 49.041872,55.9394913 51.7756468,55.9394913 C52.142307,55.9394913 52.5058859,55.9571597 52.8625322,55.9909599 C54.4393249,51.2904173 57.4893056,47.2171003 61.4763495,44.3010585 L54.7840316,47.2136434 C53.932086,47.5685463 52.9811576,47.7371636 51.9535848,47.7371636 C48.2392252,47.7371636 43.5046106,45.5316957 38.628647,41.8789616 L38.3740647,41.6919078 C37.9896878,41.4015327 37.6053109,41.0973303 37.2220894,40.789671 C37.1015383,40.6921111 36.9817576,40.6003126 36.8631322,40.5016004 C36.4930058,40.201623 36.1232644,39.8885864 35.753138,39.5709406 C35.6191067,39.4568647 35.486231,39.3443252 35.3545106,39.229097 C34.9901614,38.9137558 34.6277378,38.5888122 34.2641589,38.256955 C29.1675059,33.6174833 24.2025733,27.6521191 20.3684329,21.1985714 L20.3938526,21.1997237 L20.3649666,21.1974191" id="Fill-163" fill="#DDDFDF"></path>
                                <path d="M51.7768023,55.9405668 C49.0430274,55.9405668 46.5361043,56.909636 44.5818673,58.5212945 C47.066452,59.3109918 49.5325495,59.7542363 51.9404898,59.7872684 C52.142307,58.4851897 52.4531208,57.2172953 52.8636877,55.9920354 C52.5058859,55.9582351 52.1434624,55.9405668 51.7768023,55.9405668" id="Fill-165" fill="#898989"></path>
                                <path d="M65.861443,42.393686 L61.4773123,44.3022492 C57.4906536,47.2179069 54.4402878,51.2900717 52.8638803,55.9921506 C52.4533133,57.2174106 52.1424995,58.4853049 51.9402973,59.7869995 C52.0358138,59.7881518 52.1301748,59.7893041 52.224921,59.7893041 C54.7106611,59.7893041 57.1324667,59.3460596 59.446046,58.3854405 C61.557423,57.5097061 63.3745475,56.2437322 64.8315593,54.7154221 L65.976602,42.4048247 C65.937317,42.4013679 65.9011131,42.397911 65.861443,42.393686" id="Fill-167" fill="#373837"></path>
                                <path d="M65.9067676,42.3750574 L65.8615585,42.3951345 C65.9030002,42.3988989 65.9436047,42.4034999 65.9867207,42.4072644 L65.9892324,42.3834229 C65.9603488,42.3796584 65.9343954,42.3775671 65.9067676,42.3750574" id="Fill-169" fill="#F1D6C6"></path>
                                <path d="M65.989122,42.3411419 L65.9033085,42.3779499 C65.9305176,42.3817143 65.9568896,42.3842239 65.9845174,42.3863153 L65.989122,42.3411419" id="Fill-171" fill="#EDD4C5"></path>
                                <path d="M17.6432468,7.84439056 C17.3228043,7.84439056 17.0239301,7.976903 16.8109437,8.19698887 C16.65727,8.3556197 16.5486585,8.56034181 16.5066774,8.79387098 L16.0360275,10.5511011 L15.6986386,11.8093931 L18.1836083,16.6774007 L18.7875192,9.18449459 C18.8017696,9.1069076 18.8060062,9.02893652 18.8036953,8.95250181 C18.7863637,8.42129978 18.3931284,7.95616192 17.8419828,7.86205889 C17.7749672,7.84976788 17.709107,7.84439056 17.6432468,7.84439056" id="Fill-173" fill="#F1D6C6"></path>
                                <path d="M5.78310082,0.867322705 C5.62596076,0.867322705 5.46805041,0.90227526 5.31745785,0.975637218 C5.29126784,0.988696415 5.26469268,1.00290789 5.23965812,1.01827165 C5.04323304,1.13657261 4.89610681,1.3109513 4.81252987,1.509912 C4.69929659,1.77724144 4.69929659,2.08912578 4.83756443,2.36836213 L6.70629867,6.1528405 L8.58081011,9.94653713 L9.05300059,10.9036994 C9.05377088,10.9048517 9.05492632,10.906004 9.05492632,10.9071563 L9.11770532,10.9858955 C9.11654988,10.9947297 9.11654988,11.0031798 9.11539443,11.0120139 C9.11886076,11.0166231 9.12194194,11.0220004 9.12540826,11.0262254 C9.13965871,10.8894879 9.11654988,10.7458368 9.05184515,10.6137084 L9.04837882,10.6067947 L10.6417328,9.82285885 L10.6459694,9.82862026 C10.72608,9.99147613 10.8566449,10.1132339 11.0103187,10.183139 C11.0095484,10.1777617 11.0083929,10.1723844 11.0060821,10.1670071 C10.9972237,10.162398 10.9895207,10.1581729 10.9806623,10.1535638 L10.9348298,9.97841693 L7.43114571,2.88765724 L6.71862338,1.44423192 C6.62079599,1.24834397 6.46943314,1.09624274 6.29033969,0.997530577 C6.13666595,0.912261705 5.96103883,0.867322705 5.78310082,0.867322705" id="Fill-175" fill="#F1D6C6"></path>
                                <path d="M3.12381343,3.17434502 C2.96782881,3.17434502 2.80876302,3.20929758 2.65817046,3.28265953 C2.24991442,3.48315661 2.02922508,3.91142144 2.07621304,4.33392486 C2.08969319,4.44992126 2.1224307,4.56591765 2.17750675,4.67538445 L4.36360228,9.10245211 L5.99624128,12.4060448 C5.99701158,12.4071971 5.99701158,12.4083493 5.99701158,12.4083493 L6.17071297,12.6303557 C6.16840208,12.6368853 6.16647635,12.6434149 6.16301002,12.6503286 L6.16416546,12.6503286 C6.2354177,12.4605861 6.23118108,12.2439571 6.13335369,12.0480691 L6.12988736,12.0403873 L7.66508412,11.2867948 L7.6681653,11.2933244 C7.72863341,11.4150822 7.81760241,11.5134103 7.92197731,11.5848518 C7.92082186,11.5802426 7.91851098,11.5760176 7.91735554,11.5717926 C7.91080804,11.5671834 7.90426054,11.5629584 7.89771303,11.5583493 L7.87691508,11.4819146 L5.59106642,6.85358163 L4.05818055,3.75125424 C3.87716136,3.38559673 3.50819034,3.17434502 3.12381343,3.17434502" id="Fill-177" fill="#F1D6C6"></path>
                                <path d="M1.21444617,6.4044989 L1.20443234,6.4044989 C1.04883287,6.40680347 0.894003691,6.44175602 0.747647754,6.5139657 C0.593974019,6.58963222 0.46572,6.69794673 0.370203493,6.82623414 C0.312046265,6.90266885 0.264673159,6.98716953 0.230780205,7.07589525 C0.230780205,7.07589525 0.230780205,7.07666344 0.229624763,7.07781572 C0.229624763,7.08012028 0.228469322,7.08242485 0.22731388,7.08434532 C0.226158439,7.0854976 0.226158439,7.08780216 0.225002997,7.08895444 C0.225002997,7.09087491 0.224232702,7.09317948 0.223077261,7.09548404 C0.223077261,7.09663632 0.221921819,7.09855679 0.220766378,7.10086136 C0.220766378,7.10201364 0.220766378,7.10316592 0.219610936,7.10431821 C0.188028865,7.19304392 0.169156652,7.28714696 0.16260915,7.38124999 C0.16260915,7.38355456 0.161453708,7.38432275 0.161453708,7.38547503 L0.161453708,7.39430919 C0.151439881,7.56523103 0.18456254,7.74153018 0.265828601,7.90553833 L1.57032218,10.5446483 L3.05583495,13.5513363 L4.74894206,12.7190046 L4.75202324,12.7259183 C4.83560018,12.8953037 4.97386803,13.0201343 5.13640015,13.0881189 C5.13524471,13.0838939 5.13408927,13.0781325 5.13293382,13.0727552 C5.12446059,13.0696824 5.11675764,13.0662256 5.10789926,13.0620005 L5.05628953,12.8680331 L2.14881328,6.9825604 C2.05984428,6.80203621 1.92465761,6.65838505 1.76559182,6.56005698 C1.60074881,6.45942435 1.4097158,6.4044989 1.21444617,6.4044989" id="Fill-179" fill="#F1D6C6"></path>
                                <path d="M13.8739652,8.23747238 L13.9914351,8.47599477 C14.2452471,8.98952847 14.0322607,9.61291306 13.5115417,9.86910377 C13.3613342,9.94246573 13.2018833,9.97741829 13.0462838,9.97741829 C12.6607515,9.97741829 12.2917805,9.76616658 12.1107613,9.40012498 L12.0984366,9.37515886 C12.1458097,9.6939569 11.984433,10.021205 11.6759301,10.1733062 C11.5650077,10.2282317 11.4486932,10.2531978 11.3331491,10.2531978 C11.2214564,10.2531978 11.1113043,10.2289999 11.0103957,10.1832927 C10.8578774,10.1118512 10.7261571,9.99047748 10.6460465,9.82838981 L10.6425801,9.82301249 L9.04845585,10.6057961 L9.05153703,10.6123257 C9.11662691,10.7459904 9.13973574,10.8884893 9.12510014,11.0263791 C9.10122102,11.2583718 8.97027097,11.475385 8.75844001,11.6032883 C8.7387975,11.6155793 8.71915499,11.6263339 8.69835704,11.6363204 C8.68295115,11.6440022 8.66754527,11.6516841 8.65213938,11.6570614 C8.55546743,11.6973913 8.45455886,11.7173642 8.35442059,11.7173642 C8.19959141,11.7173642 8.049384,11.6701206 7.92190028,11.5836995 C7.81752538,11.5126421 7.72855638,11.4139299 7.66924371,11.2925562 L7.66616253,11.2860266 L6.13096578,12.039235 L6.1344321,12.0469169 C6.23110405,12.2428048 6.23534067,12.4598179 6.16408844,12.6491763 C6.09707282,12.8266277 5.96535248,12.9798812 5.78202241,13.0693751 C5.67110001,13.1243006 5.55363012,13.1496508 5.4384711,13.1496508 C5.33409621,13.1496508 5.23087676,13.1285256 5.13651569,13.0881957 C4.97398357,13.0190588 4.83571573,12.8953805 4.75213878,12.725611 L4.74867246,12.7190814 L3.05556535,13.5514131 L3.05672079,13.5525654 L6.05971354,19.9819152 C6.04661854,19.95234 6.03352353,19.923917 6.02004338,19.8943418 L17.0810859,14.9222447 C18.0408728,17.0443641 19.1462453,19.1453584 20.3663916,21.1975728 L20.3948925,21.1994932 L20.4946456,21.2029501 L15.6976372,11.8091627 L15.6976372,11.8103149 L14.6149884,9.68819549 L13.8739652,8.23747238" id="Fill-181" fill="#F1D6C6"></path>
                                <path d="M9.23945035,0.168694093 L9.23713947,0.168694093 C9.08115485,0.168694093 8.92208905,0.203646649 8.77265194,0.277008607 C8.70371059,0.311192974 8.63977615,0.351522846 8.58161892,0.397614129 C8.42910063,0.517835557 8.31702279,0.674545916 8.25116262,0.848540507 C8.15372038,1.10703578 8.15911244,1.40278818 8.29083278,1.66973352 L11.3519828,7.86517005 L12.098398,9.37504364 L12.1107228,9.40039384 C12.2917419,9.76720363 12.660713,9.97845534 13.0462453,9.97845534 C13.2018448,9.97845534 13.3612957,9.94350278 13.5115031,9.86898855 C14.0322222,9.61279783 14.2452086,8.98979734 13.9913966,8.47626363 L13.8739267,8.23735715 L12.8933419,6.25466383 L12.1392237,4.72596963 L10.172662,0.74560331 C10.1530195,0.705273438 10.1310661,0.666864036 10.1068019,0.630759198 C9.91037678,0.336159086 9.58107592,0.168694093 9.23945035,0.168694093" id="Fill-183" fill="#F1D6C6"></path>
                                <path d="M17.0811245,14.9233202 L6.0200819,19.8954172 C6.03356205,19.9249925 6.04665705,19.9534154 6.05975206,19.9829907 L6.34745702,20.5975411 L6.35284908,20.5975411 C10.6622612,29.8246317 18.0416816,39.8368105 26.5268597,47.4380311 L26.5257042,47.4391834 L26.5927198,47.4971816 C27.2066445,48.046052 27.8259612,48.581479 28.4506699,49.1034628 L28.6151278,49.2405844 C29.2213495,49.7441316 29.8318078,50.2346197 30.4476582,50.7108963 L30.6795168,50.8883477 C31.0053514,51.1391611 31.3292601,51.3988087 31.6589462,51.6407879 L31.6731966,51.6242719 L31.6731966,51.6254241 L39.6958129,42.6683516 C32.835956,37.8122509 25.5639916,29.9452372 20.366045,21.1986482 C19.1451283,19.1456657 18.0409113,17.0454396 17.0811245,14.9233202" id="Fill-185" fill="#F1D6C6"></path>
                                <path d="M64.8304809,54.7153069 C63.3734691,56.2440011 61.5575,57.5095909 59.4449676,58.3868616 C49.3009605,62.5969162 37.0663744,56.8831335 26.5256657,47.4394139 L34.0402728,38.0586857 C41.7952118,45.184782 49.8848437,49.2481126 54.7843012,47.2147189 L65.9820711,42.3421022" id="Fill-187" fill="#383838"></path>
                                <path d="M137.664629,76.0571838 L155.322088,58.5106167 C155.322088,58.5106167 161.549918,49.9119039 156.053482,39.3331864 L146.77336,30.0907321 L121.907872,57.163599 C135.002106,63.4827138 137.664629,76.0571838 137.664629,76.0571838" id="Fill-189" fill="#F3F4F4"></path>
                                <path d="M130.362084,82.9981468 L145.238395,63.0513762 C145.238395,63.0513762 150.129764,53.6322386 143.13241,43.9757308 L132.589775,36.1951383 L111.989792,66.6219142 C125.873578,70.9502697 130.362084,82.9981468 130.362084,82.9981468" id="Fill-191" fill="#FEFEFE"></path>
                                <path d="M145.238395,63.051261 C145.238395,63.051261 150.129764,53.6313552 143.13241,43.9759997 L135.405972,50.0124213 C144.502763,55.9712559 145.238395,63.051261 145.238395,63.051261" id="Fill-193" fill="#D8D8D8"></path>
                            </g>
                        </g>
                        <g id="Group-Copy" transform="translate(90.758434, 83.372597) rotate(-35.000000) translate(-90.758434, -83.372597) translate(14.258434, 35.372597)">
                            <g id="Group" transform="translate(-0.000000, 40.790514)">
                                <mask id="mask-4" fill="white">
                                    <use xlink:href="#path-3"></use>
                                </mask>
                                <use id="Mask" fill="#B56A1F" xlink:href="#path-3"></use>
                                <path d="M105.242572,3.68918084 L114.58001,2.69752495 C114.58001,2.69752495 131.885929,8.18582081 124.724055,15.9704276 C117.562182,23.7550344 107.330499,26.5110017 97.0263525,27.7469288 C86.7222062,28.9828558 105.242572,3.68918084 105.242572,3.68918084 Z" id="Rectangle-5" fill="#985512" mask="url(#mask-4)"></path>
                            </g>
                            <path d="M65.4095948,0.632460008 C71.3339769,-1.60595087 79.3901419,7.01457031 84.5308859,4.57532461 C88.4301667,2.72514423 85.8876799,-1.40707412 92.6473895,0.632460008 C97.683763,2.15203055 99.40067,4.71333944 104.559915,15.1684343 C109.71916,25.6235291 115.622866,51.4538456 115.622866,51.4538456 C115.622866,51.4538456 95.7196687,59.2826711 77.1975956,59.2826711 C58.6755226,59.2826711 41.7721519,51.4538456 41.7721519,51.4538456 C41.7721519,51.4538456 45.9859685,26.8872838 52.4522693,15.1684343 C58.9185702,3.44958474 61.2047469,2.22117881 65.4095948,0.632460008 Z" id="Rectangle-3" fill="#B56A1F"></path>
                            <path d="M97.8375301,10.3211572 C98.1154278,9.8538143 98.6217235,9.81662727 98.9349267,10.2757808 C98.9349267,10.2757808 100.116412,11.2984702 100.344339,14.9301788 C100.460587,16.7824307 100.203914,19.0997451 99.7304719,20.8692243 C99.2756364,22.5691613 98.7292378,23.6525135 98.7292378,23.6525135 C98.5049577,24.1529283 98.1455257,24.1440081 97.9530707,23.6350206 C97.9530707,23.6350206 96.826033,21.4363858 96.826033,16.9825511 C96.826033,15.2432719 96.888572,13.4251441 97.1111148,12.3516126 C97.4584453,10.6761132 97.8375301,10.3211572 97.8375301,10.3211572 Z" id="Rectangle-4" fill="#A35C1E" transform="translate(98.599086, 16.986351) rotate(-11.000000) translate(-98.599086, -16.986351) "></path>
                            <path d="M70.4933729,8.68096406 C70.9897793,8.43251256 71.8140126,8.38537322 72.3237185,8.59445207 C72.3237185,8.59445207 76.9591988,10.0546149 77.6737729,13.6863236 C78.0382215,15.5385755 77.233527,17.8558899 75.7492396,19.6253691 C74.3232862,21.3253061 72.1410365,22.7526661 72.1410365,22.7526661 C71.6970492,23.0630906 70.9688286,23.0471312 70.5409237,22.7052559 C70.5409237,22.7052559 66.6435415,20.1925306 66.6435415,15.7386958 C66.6435415,13.9994166 66.8396073,12.1812889 67.5373006,11.1077573 C68.6262157,9.432258 70.4933729,8.68096406 70.4933729,8.68096406 Z" id="Rectangle-4" fill="#A35C1E" transform="translate(72.202235, 15.718323) scale(-1, 1) rotate(9.000000) translate(-72.202235, -15.718323) "></path>
                            <path d="M40.1367132,52.2479393 C40.3499477,51.1592428 41.3491194,50.6448285 42.3635348,51.0742485 C42.3635348,51.0742485 58.2862192,58.5947202 77.893683,58.5947202 C97.5011469,58.5947202 114.921735,51.0221708 114.921735,51.0221708 C115.943692,50.6104475 116.981345,51.1511344 117.238695,52.2268907 L118.529889,57.6242559 C118.658108,58.1602286 118.415344,58.8676831 117.969183,59.2085519 C117.969183,59.2085519 116.772152,60.2111715 113.034892,62.6362939 C105.172897,67.7379741 90.8169597,70.1456631 77.893683,70.1456631 C69.8602353,70.1456631 58.2199588,68.8757468 51.9575666,65.9215151 C49.8938253,64.9479622 51.109743,65.6775297 48.3941043,64.3403921 C43.8241815,62.0902343 39.710575,59.1591498 39.710575,59.1591498 C39.2593825,58.847424 38.981211,58.1475062 39.0869059,57.6078674 L40.1367132,52.2479393 Z" id="Rectangle-2" fill="#C5822A"></path>
                        </g>
                    </g>
                </g>
            </g>
        </g>
    </g>
</svg>