<svg id="Layer_1" data-name="Layer 1" xmlns="http://www.w3.org/2000/svg" viewBox="0 0 450 434.23"><defs><style>.cls-1{fill:#3476bc;}</style></defs><title>IE</title><path id="_Compound_Path_" data-name="&lt;Compound Path&gt;" class="cls-1" d="M-2502.61,3942h109.2c0.84,0,1.18-20.07,1.18-28,0-37.09-9.94-74.29-27.35-104.27,18-47.79,17.35-89.53-6.74-113.78-22.87-22.8-84.3-19.69-153.75,11.07-5.17-.39-10.35-0.89-15.58-0.89A203.46,203.46,0,0,0-2793,3860c29.9-38.28,61.35-66.12,103.39-86.32-3.82,3.59-26.11,25.72-29.9,29.45-110.79,110.79-145.74,255.47-108.13,293.06,28.56,28.59,80.37,23.76,139.87-5.39,27.67,14.11,59,20.42,92.17,20.42,89.34,0,165.06-50.22,192.46-139.22h-110c-15.12,28-44.78,48.55-78.76,48.55s-74.45-18.19-89.6-46.15c-6.71-12.61-21.45-26.29-21.45-41.59V3942h200.39Zm-178.5-61c2.51-57,39.87-80.76,85.46-80.76s82.95,23.76,85.46,80.76h-170.92Zm253.78-163.62c15.53,15.66,15.15,44.49,1.88,80.49a204.14,204.14,0,0,0-94.74-77.52C-2478.5,3702.47-2444.61,3700.09-2427.33,3717.38ZM-2799,4089.05c-19.77-19.81-13.82-61.35,11.68-111.43a204.05,204.05,0,0,0,86.65,106C-2744.8,4103.71-2780.94,4107.1-2799,4089.05Z" transform="translate(2842.23 -3681.08)"/></svg>