<svg id="Layer_2" data-name="Layer 2" xmlns="http://www.w3.org/2000/svg" xmlns:xlink="http://www.w3.org/1999/xlink" viewBox="0 0 512 512"><defs><style>.cls-1{fill:none;}.cls-2{fill:#1c75bc;opacity:0.06;}.cls-3{fill:#ecc199;}.cls-4{fill:#fff;}.cls-5{fill:#787777;}.cls-6{fill:#f3dac9;}.cls-7{fill:#dedfe0;}.cls-8{fill:#f1d7c7;}.cls-9{fill:#4d69a0;}.cls-10{fill:#4c392c;}.cls-11{fill:#3d322a;}.cls-12{fill:#f5af82;}.cls-13{clip-path:url(#clip-path);}.cls-14{fill:#f2d2bf;}.cls-15{fill:#eed4c5;}.cls-16{fill:#7d7c7c;}.cls-17{fill:#9b9a9a;}.cls-18{fill:#da3e26;}.cls-19{fill:#f4f4f4;}</style><clipPath id="clip-path" transform="translate(-1894.3 -2815.84)"><rect class="cls-1" x="1971.61" y="3082.24" width="36.95" height="36.44"/></clipPath></defs><title>Invalid route</title><ellipse class="cls-2" cx="256" cy="256" rx="255.98" ry="256"/><circle class="cls-2" cx="256" cy="256" r="256"/><path class="cls-3" d="M2150.3,3327.84c115.07,0,212.4-75.92,244.65-180.4a498.73,498.73,0,0,0-109-13.12c-134-.93-183.29,52.6-248.67,56.41-33.73,2-80-2-116.9-6.22C1962.06,3269.39,2049.35,3327.84,2150.3,3327.84Z" transform="translate(-1894.3 -2815.84)"/><circle class="cls-4" cx="250.69" cy="87.99" r="29.45"/><circle class="cls-4" cx="354.55" cy="93.43" r="24.01"/><circle class="cls-4" cx="224.63" cy="105.43" r="12.01"/><circle class="cls-4" cx="303.64" cy="76.3" r="41.14"/><rect class="cls-4" x="224.63" y="93.43" width="129.92" height="24.01"/><path class="cls-5" d="M2072.4,3181.29a34.08,34.08,0,0,0-18.66,16.44,51.9,51.9,0,0,1,13.18-2.63,21.21,21.21,0,0,1,5.48-13.81" transform="translate(-1894.3 -2815.84)"/><path class="cls-5" d="M2087.61,3178.73a43.54,43.54,0,0,0-15.21,2.57,21.19,21.19,0,0,0-5.48,13.81q1.77-.12,3.57-0.12a51.88,51.88,0,0,1,26.13,7,14,14,0,0,1,11.83-13,21.21,21.21,0,0,0-1.69-3.85c-4.4-3.83-10.47-6.42-19.16-6.42" transform="translate(-1894.3 -2815.84)"/><path class="cls-5" d="M2108.89,3203.65l-0.55.08V3204l0.55-.37" transform="translate(-1894.3 -2815.84)"/><path class="cls-6" d="M2163.37,3064.22l-5.93-19.43a2.65,2.65,0,0,1,4.91-2l4.63,9,7.43,4.92-7.6,9a2.63,2.63,0,0,1-3.44-1.44" transform="translate(-1894.3 -2815.84)"/><path class="cls-6" d="M2180,3043.87l5.23-21.19a2.4,2.4,0,0,0-4.65-1.15l-5.23,21.19a2.4,2.4,0,0,0,4.66,1.15" transform="translate(-1894.3 -2815.84)"/><path class="cls-6" d="M2187.61,3045.74l4.74-19.19a2.4,2.4,0,0,0-4.66-1.15l-4.74,19.2a2.4,2.4,0,0,0,4.66,1.15" transform="translate(-1894.3 -2815.84)"/><path class="cls-7" d="M2135.1,3120.34l-0.64.85c-0.67.89-1.35,1.77-2,2.63l-0.66.82c-0.71.88-1.41,1.75-2.13,2.58l-0.48.56c-10.58,12.28-21.69,20.09-30.83,20.09-0.42,0-.84,0-1.26-0.05,0.41,0,.84.05,1.26,0.05,10.88,0,24.54-11,36.77-27.53h0" transform="translate(-1894.3 -2815.84)"/><path class="cls-7" d="M2162.47,3061.28l-2.94,11.28,0.28-.08a175.15,175.15,0,0,1-22.67,45q-1,1.38-2,2.72l-0.08.11h0q1.23-1.65,2.44-3.38h0a175.49,175.49,0,0,0,22.27-44.49l-0.28.08,2.94-11.27" transform="translate(-1894.3 -2815.84)"/><path class="cls-8" d="M2159.91,3041.16a2.69,2.69,0,0,0-1,.2,2.72,2.72,0,0,0-.66.39,2.63,2.63,0,0,0-.8,3l5,16.49h0l3.16-12.12h0l-3.29-6.36a2.62,2.62,0,0,0-1.8-1.55,2.75,2.75,0,0,0-.64-0.08" transform="translate(-1894.3 -2815.84)"/><path class="cls-8" d="M2182.93,3019.72a2.38,2.38,0,0,0-2.32,1.81l-4.06,16.44-1.17,4.74,0,0.42,0,0a0.24,0.24,0,0,0,0,0,1.74,1.74,0,0,0,.64-1v0l3.95,1v0a1.72,1.72,0,0,0,0,1l0,0,0-.06,0.1-.21,1.31-5.32,3.92-15.87a2.41,2.41,0,0,0-2.27-3h-0.07" transform="translate(-1894.3 -2815.84)"/><path class="cls-8" d="M2190,3023.59a2.39,2.39,0,0,0-2.32,1.81l-4.73,19.19v0.18l0,0v0a1.73,1.73,0,0,0,.42-0.78v0l3.8,0.94v0a1.73,1.73,0,0,0,.23,1.36h0l0,0,0.28-.58h0l4.74-19.19a2.31,2.31,0,0,0,.07-0.6h0a2.36,2.36,0,0,0-.3-1.13,2.39,2.39,0,0,0-.46-0.59,2.43,2.43,0,0,0-1.64-.64" transform="translate(-1894.3 -2815.84)"/><path class="cls-8" d="M2195.86,3029.89h0a2.38,2.38,0,0,0-.9.18h0a2.37,2.37,0,0,0-1.17,1,2.53,2.53,0,0,0-.23.59l-2.86,11.6-0.74,3,0,0.46-0.05,0v0a1.74,1.74,0,0,0,.68-1v0l4.19,1,0.48-1.94,3-12.07a2.35,2.35,0,0,0-.13-1.53,2.4,2.4,0,0,0-1.63-1.35,2.35,2.35,0,0,0-.59-0.07" transform="translate(-1894.3 -2815.84)"/><path class="cls-8" d="M2168,3040.26l-2.32,8.89-3.16,12.12-2.94,11.27,0.28-.08a145.7,145.7,0,0,0,4.26-15.67l27.16,5.72,0,0.16,3.37-15,0.17-.78h0l-4.19-1v0a1.73,1.73,0,0,1-.68,1,1.76,1.76,0,0,1-1,.33,1.78,1.78,0,0,1-1.49-.81,1.74,1.74,0,0,1-.23-1.37v0l-3.8-.94v0a1.74,1.74,0,0,1-.42.78,1.77,1.77,0,0,1-1.28.55,1.79,1.79,0,0,1-.43-0.05,1.76,1.76,0,0,1-1.29-2.12v0l-3.95-1v0a1.73,1.73,0,0,1-.64,1,1.76,1.76,0,0,1-1.06.36,1.81,1.81,0,0,1-.43-0.05,1.76,1.76,0,0,1-1.34-1.58l0,0.06a2.38,2.38,0,0,1-2.32,1.81,2.46,2.46,0,0,1-.58-0.07,2.39,2.39,0,0,1-1.76-2.88l0.15-.59" transform="translate(-1894.3 -2815.84)"/><path class="cls-7" d="M2176.17,3020.23a2.38,2.38,0,0,1,1,2.58l-4.08,16.54,4.08-16.54a2.38,2.38,0,0,0-1-2.58m-2.35-.14a2.37,2.37,0,0,0-1.14,1.18,2.37,2.37,0,0,1,1.14-1.18m0,0h0" transform="translate(-1894.3 -2815.84)"/><path class="cls-8" d="M2174.86,3019.85a2.37,2.37,0,0,0-1,.23h0a2.36,2.36,0,0,0-1.14,1.18,2.62,2.62,0,0,0-.13.38l-2.25,9.13-2.34,9.48-0.14.59a2.39,2.39,0,0,0,1.76,2.88,2.43,2.43,0,0,0,.58.07,2.38,2.38,0,0,0,2.32-1.81l0-.07,0-.11h0l0.61-2.48,4.08-16.54a2.38,2.38,0,0,0-1-2.58,2.43,2.43,0,0,0-1.31-.38" transform="translate(-1894.3 -2815.84)"/><path class="cls-8" d="M2150.73,3144.81l-1.21,1.41h0c0.4-.46.8-0.94,1.2-1.42m13.34-88a145.74,145.74,0,0,1-4.26,15.67,175.45,175.45,0,0,1-22.27,44.49l21.39,17.33h0c15.23-21.19,26.8-47.24,31.9-70h0l0.32-1.41,0-.16,0-.16-27.16-5.72" transform="translate(-1894.3 -2815.84)"/><path class="cls-9" d="M2137.54,3117q-1.21,1.73-2.43,3.38c-12.23,16.49-25.89,27.54-36.77,27.54-0.43,0-.85,0-1.26-0.05s-0.93-.1-1.39-0.18l-20.68-4.1a55.57,55.57,0,0,1,30,31.51c15.85-2.55,31.16-13.6,44.49-28.85l0,0,1.21-1.41,0.62-.75,0.43-.51q1.71-2,3.37-4.19l0.31-.39q1.71-2.21,3.36-4.5l0.12-.17L2137.55,3117h0" transform="translate(-1894.3 -2815.84)"/><path class="cls-9" d="M2108.27,3193.12c-0.16-30-25.42-54.41-56.14-54.26l-10,0c-30.72.15-55.72,24.82-55.57,54.82L1987,3269a254.9,254.9,0,0,0,121.94,55.53Z" transform="translate(-1894.3 -2815.84)"/><path class="cls-6" d="M2072.52,3097.52l-47.72.64v45.35h0.09a23.88,23.88,0,0,0,47.41,1.46h0.22v-47.46" transform="translate(-1894.3 -2815.84)"/><path class="cls-6" d="M2072.52,3097.52l-47.72.64v45.35h0.09a23.88,23.88,0,0,0,47.41,1.46h0.22v-47.46" transform="translate(-1894.3 -2815.84)"/><path class="cls-8" d="M2072.52,3136.71a105.79,105.79,0,0,1-43.11,9.24c-1.41,0-2.83,0-4.25-.09a23.66,23.66,0,0,0,23.5,19.49h0.12A23.65,23.65,0,0,0,2072.3,3145h0.22v-8.27" transform="translate(-1894.3 -2815.84)"/><path class="cls-10" d="M1931.42,3083.91c18.79,32.3,50.11,58.93,65.48,56,19.76-3.73,23.7-44.57,52.2-61.05,50.67-29.3,105.84-32.26,65.8-101.09-28.74-49.41-95.06-69-145.72-39.74s-66.5,96.44-37.76,145.86" transform="translate(-1894.3 -2815.84)"/><path class="cls-6" d="M1934.55,3010.23c19.94-53.12,79.47-81.07,133-62.42a100.1,100.1,0,0,1,67.18,91.77,101.1,101.1,0,0,1-6.43,38.18c-19.94,53.12-79.47,81.07-133,62.42a99.75,99.75,0,0,1-60.75-129.94" transform="translate(-1894.3 -2815.84)"/><path class="cls-11" d="M2063,3044.12a5.09,5.09,0,1,0-7.07-1.79,5.14,5.14,0,0,0,7.07,1.79" transform="translate(-1894.3 -2815.84)"/><path class="cls-11" d="M2123.18,3007.33a5.09,5.09,0,1,0-7.07-1.79,5.14,5.14,0,0,0,7.07,1.79" transform="translate(-1894.3 -2815.84)"/><path class="cls-10" d="M1965.53,3059.74c21.6,37.13,32.86,50.39,23.25,79.34-14.34-8.2-40.34-21.62-59.69-59.52-11.81-23.13-7.83-47.58-9.6-59.14-6-39.25,41.87-70.26,41.87-70.26l19.16-5.36s-8.67,2.06-.27-0.34c-9.41,12.47-36.6,77.68-14.71,115.3" transform="translate(-1894.3 -2815.84)"/><line class="cls-6" x1="174.03" y1="124.54" x2="174.07" y2="124.59"/><path class="cls-6" d="M2068.37,2940.42" transform="translate(-1894.3 -2815.84)"/><path class="cls-10" d="M2068.07,2921.65a12.89,12.89,0,0,0-15.42-3l-0.08-.12-16.42,11c-19.62,6-47.86,17.2-70.26,36.25-38.34,32.61-2.21,32.53-2.21,32.53,10.16,0.65,56.47-27.93,56.47-27.93l43.66-28.81a13.46,13.46,0,0,0,2.62-1.73,2,2,0,0,0,1.16-1.13,12.76,12.76,0,0,0,.46-17" transform="translate(-1894.3 -2815.84)"/><path class="cls-12" d="M2093.12,3029c-4.12-2.61-5.17-8.6-2.34-13.31l5.79-9.64c2.83-4.71,8.51-6.43,12.63-3.83s5.17,8.6,2.34,13.31l-5.79,9.64c-2.83,4.71-8.52,6.43-12.63,3.83" transform="translate(-1894.3 -2815.84)"/><path class="cls-11" d="M2110.9,3046.06c4.52-2.73,8.77-1.28,12.78.33a1.82,1.82,0,0,1,.83,2.55c-0.26.49-5.71,3.95-11,7.14-4.85,2.92-9.58,5.62-10.08,5.61a1.87,1.87,0,0,1-1.88-1.91c0.13-5.24,4.86-11,9.38-13.73" transform="translate(-1894.3 -2815.84)"/><path class="cls-8" d="M1962.94,3054.66a52.18,52.18,0,0,0,2.59,5.08c5.76,9.91,10.79,18.12,14.89,25.38l0.55-.33a18.84,18.84,0,0,1,9.36-2.55h0.2a18.1,18.1,0,0,1,15.63,8.92,17.71,17.71,0,0,1,2.41,8.75,18.58,18.58,0,0,1-9.36,16.21,18.87,18.87,0,0,1-7,2.39,57.12,57.12,0,0,1-3,19.31q2.94,1.24,6,2.31l0.11,0q1.15,0.4,2.3.77a103.62,103.62,0,0,0,21.58,4.45l0.18-.08v0.1c3.16,0.3,6.39.47,9.68,0.48h0.53c27.15-.07,58.08-10.84,84.61-42.38a48.24,48.24,0,0,1-16.83,2.59c-22.36,0-51.29-9.84-70-16.35-29.06-10.13-50.55-19.52-64.43-35.08" transform="translate(-1894.3 -2815.84)"/><path class="cls-10" d="M1948.09,2960.6c-7.78,7-17.22,17.13-23.2,29.26q-0.52,1.05-1,2.13a124.1,124.1,0,0,0-4,12.31,48,48,0,0,0-.77,5.46,45.68,45.68,0,0,0,.37,10.66c1.77,11.56-2.21,36,9.6,59.14q1,2,2.1,4a131.66,131.66,0,0,0,23.26,31.1,124.58,124.58,0,0,0,16.82,13.82,114.2,114.2,0,0,0,17.92,9.4h0a57.19,57.19,0,0,0,3-19.31,18.59,18.59,0,0,1-2.47.17,18.1,18.1,0,0,1-15.73-8.93,17.72,17.72,0,0,1-2.41-9.07,18.57,18.57,0,0,1,8.81-15.56c-4.09-7.26-9.12-15.47-14.89-25.38a52.74,52.74,0,0,1-2.59-5.08c-11.67-13.07-18-30.51-18.88-56.4-0.59-16.63-.55-28.33,4-37.66" transform="translate(-1894.3 -2815.84)"/><g class="cls-13"><path class="cls-14" d="M1990.52,3082.24h-0.2a18.84,18.84,0,0,0-9.36,2.55l-0.55.33a18.56,18.56,0,0,0-8.81,15.56V3101a17.68,17.68,0,0,0,2.41,8.78,18.09,18.09,0,0,0,15.6,8.93h0.26a18.86,18.86,0,0,0,9.32-2.55,18.6,18.6,0,0,0,9.36-15.87v-0.34a17.71,17.71,0,0,0-2.41-8.75,18.09,18.09,0,0,0-15.63-8.93" transform="translate(-1894.3 -2815.84)"/></g><path class="cls-8" d="M2019.17,3145.39l-0.1,0,0.26,0v-0.05l-0.17,0" transform="translate(-1894.3 -2815.84)"/><path class="cls-15" d="M2019.35,3145.32l-0.18.08,0.17,0v-0.1" transform="translate(-1894.3 -2815.84)"/><path class="cls-7" d="M1906.39,3042.35l0.33,2.5h0l-0.33-2.5m30.63,4.37a2.73,2.73,0,0,1-.21.49l-6.81,15.84,1.69,11.53-1.69-11.53,6.81-15.84a2.73,2.73,0,0,0,.21-0.49m-1.7-3.26a2.65,2.65,0,0,0-2.06.16,2.65,2.65,0,0,1,2.06-.16" transform="translate(-1894.3 -2815.84)"/><polyline class="cls-7" points="11.31 220.65 12.09 226.52 12.09 226.52 11.31 220.65"/><path class="cls-7" d="M1931.42,3074.48c4.85,22.82,14.84,45.24,26.15,60.81l-24,13.6c6.85,9.84,14.56,18.29,22.92,24.44A25.73,25.73,0,0,1,1974,3173c0.79,0.27,1.57.57,2.32,0.91a55,55,0,0,1,27.25-19.1l-16.64,1.43a16.7,16.7,0,0,1-6.52-.93c-8.05-2.72-16.7-11-24.58-22.48l-0.41-.59c-0.62-.91-1.23-1.85-1.83-2.8-0.19-.3-0.38-0.59-0.57-0.89-0.58-.92-1.15-1.87-1.72-2.84l-0.61-1c-0.56-1-1.11-1.92-1.65-2.91a175,175,0,0,1-17.6-47.25l0.05,0-0.06,0m-24.51-29a1.75,1.75,0,0,1-1.14.63,1.66,1.66,0,0,1-.75-0.07,1.84,1.84,0,0,1-.66-0.4v0a1.77,1.77,0,0,0,.61.36,1.77,1.77,0,0,0,1.94-.56m4.59-1.06s0,0,0,0a1.74,1.74,0,0,0,1.53.69,1.68,1.68,0,0,1-.66-0.09,1.78,1.78,0,0,1-.87-0.64m3-.34a1.75,1.75,0,0,1-1.21,1,1.77,1.77,0,0,0,1.22-1v0m15.34,4.06-1.66,2.49h0l1.65-2.49" transform="translate(-1894.3 -2815.84)"/><path class="cls-8" d="M1935.32,3043.46a2.64,2.64,0,0,0-3.16,1.23l-2.31,3.48-1.65,2.49,1.81,12.4,6.81-15.84a2.55,2.55,0,0,0,.21-0.49,2.64,2.64,0,0,0-1.28-3.07,2.55,2.55,0,0,0-.42-0.18" transform="translate(-1894.3 -2815.84)"/><path class="cls-8" d="M1914.73,3019.62a2.41,2.41,0,0,0-1.09-.11l-0.2,0a2.4,2.4,0,0,0-1.29.76,2.36,2.36,0,0,0-.58,1.88l1.27,9.59,1.28,9.62,0.32,2.43h0l0.08,0.22,0,0.06v0a1.75,1.75,0,0,0,.14-1v0l4-.54v0a1.72,1.72,0,0,0,.53,1,0.21,0.21,0,0,0,0,0l0,0,0-.41-2.39-18-0.49-3.66a2.38,2.38,0,0,0-1.6-1.94" transform="translate(-1894.3 -2815.84)"/><path class="cls-8" d="M1907.27,3022.69a2.41,2.41,0,0,0-3.12,1.75,2.34,2.34,0,0,0,0,.82l1.49,11.22,1.11,8.37h0l0.21,0.61,0,0h0a1.73,1.73,0,0,0,.38-1.33v0l3.88-.51v0a1.75,1.75,0,0,0,.34.82s0,0,0,0l0,0v-0.18l-1.56-11.73-1-7.86a2.38,2.38,0,0,0-1.6-1.94" transform="translate(-1894.3 -2815.84)"/><path class="cls-8" d="M1900.76,3028.31h0a2.43,2.43,0,0,0-2.12.31,2.33,2.33,0,0,0-.49.44h0a2.38,2.38,0,0,0-.33.56h0v0a2.34,2.34,0,0,0-.15,1.19l0.89,6.69,1,7.62,4.28-.57v0a1.71,1.71,0,0,0,.57,1.07v0l0,0,0-.46-2-14.92a2.36,2.36,0,0,0-.52-1.2,2.42,2.42,0,0,0-1.08-.74" transform="translate(-1894.3 -2815.84)"/><path class="cls-8" d="M1926.86,3041.56l0.08,0.6a2.39,2.39,0,0,1-2.06,2.68,2.42,2.42,0,0,1-1.09-.11,2.38,2.38,0,0,1-1.6-1.94v-0.06a1.76,1.76,0,0,1-3.48-.08h0l-4,.53v0a1.76,1.76,0,0,1-1.36,1.94l-0.15,0H1913a1.75,1.75,0,0,1-1.53-.69,1.72,1.72,0,0,1-.33-0.82v0l-3.88.51v0a1.74,1.74,0,0,1-.38,1.33,1.77,1.77,0,0,1-2.55.2,1.73,1.73,0,0,1-.57-1.07v0l-4.28.57h0l1.79,16.17,0-.22,27.62-2.71a146.09,146.09,0,0,0,2.52,16l0.06,0,0.21,0.08-3.5-23.93h0l-0.79-5.4-0.54-3.7" transform="translate(-1894.3 -2815.84)"/><path class="cls-8" d="M1922.74,3020.63h0a2.42,2.42,0,0,0-2.64.76,2.36,2.36,0,0,0-.52,1.81l2.09,15.71,0.51,3.83v0.06a2.4,2.4,0,0,0,4.75-.63l-0.08-.6-0.67-5-0.51-3.87-1.34-10.09a2.25,2.25,0,0,0-.06-0.3,2.38,2.38,0,0,0-1.54-1.64" transform="translate(-1894.3 -2815.84)"/><path class="cls-8" d="M1928.91,3058.44l-27.62,2.71,0,0.22,0.17,1.55h0c2.57,23.21,11.22,50.37,24,73.1h0l0.1,0.18q1.39,2.46,2.85,4.85l0.26,0.42q1.42,2.31,2.89,4.54l0.37,0.56c0.52,0.78,1,1.58,1.57,2.35l0,0h0l24-13.6c-11.31-15.58-21.3-38-26.14-60.81a145.84,145.84,0,0,1-2.52-16" transform="translate(-1894.3 -2815.84)"/><path class="cls-9" d="M2003.21,3179.87a36.07,36.07,0,0,1-14.37,4c-25.08,1.73-47.4-19.64-63.32-47.88l23.17-14.89c11.58,21.16,26.13,35.92,38.25,35.08l27.85-2.4" transform="translate(-1894.3 -2815.84)"/><path class="cls-16" d="M2299,3280.26a257.22,257.22,0,0,0,24.8-20.17V2951.2l-9.12-8.43Z" transform="translate(-1894.3 -2815.84)"/><path class="cls-17" d="M2288.36,3287.45a256.84,256.84,0,0,0,26.28-19.35V2942.77l-26.28,9v335.68Z" transform="translate(-1894.3 -2815.84)"/><path class="cls-18" d="M2212.8,3101.56c-2.59-.74-4.67-4.87-4.67-9.23l0-96.9c0-4.42,2.1-8.23,4.71-8.48l175.3-17c6.7-.65,12.21,4.76,12.11,12.06L2398,3141.2c-0.1,7.13-5.67,11.37-12.25,9.5Z" transform="translate(-1894.3 -2815.84)"/><path class="cls-19" d="M2388.08,2976.06c3.51-.3,6.36,2.55,6.31,6.36l-2.13,157.28c-0.05,3.72-2.93,6-6.38,5l-173.07-47c-1.38-.37-2.48-2.55-2.48-4.88l0-97.62c0-2.35,1.12-4.36,2.5-4.47l175.22-14.74m0.16-12.22-175.38,19.25c-3.84.42-6.89,6-6.89,12.49v96.19c0,6.37,3,12.45,6.82,13.58l172.92,51.29c9.74,2.89,18.1-3.3,18.25-13.92l2.32-161.13c0.16-10.89-8.11-18.84-18-17.75h0Z" transform="translate(-1894.3 -2815.84)"/><path class="cls-19" d="M2245.42,3026.69l2.27-18.54,4.72-.11-4.29,29.81-4.8-.31-2.48-16.71-2.47,16.39-4.52-.29-3.71-28.36,4.25-.1,2,17.94,2.56-18.05,3.83-.09Z" transform="translate(-1894.3 -2815.84)"/><path class="cls-19" d="M2261.91,3027.81l-2.74-.09,0,10.84-4.94-.32,0.11-30.24,8.16-.19a7.38,7.38,0,0,1,6,2.35q2.2,2.46,2.18,7a13.83,13.83,0,0,1-1,5.46,7.71,7.71,0,0,1-2.91,3.43l4.53,12.93v0.33l-5.66-.37Zm-2.71-5.78,3.2,0.05a2.44,2.44,0,0,0,2.21-1.09,5.65,5.65,0,0,0,.76-3.14,5.72,5.72,0,0,0-.74-3.17,2.43,2.43,0,0,0-2.19-1.13l-3.2,0Z" transform="translate(-1894.3 -2815.84)"/><path class="cls-19" d="M2294.08,3024.64a25.37,25.37,0,0,1-1.42,8.67,12.08,12.08,0,0,1-3.85,5.59,8,8,0,0,1-5.51,1.66,8.6,8.6,0,0,1-5.3-2.24,13.06,13.06,0,0,1-3.5-5.58,25.08,25.08,0,0,1-1.27-8.06v-1.8a25.8,25.8,0,0,1,1.26-8.29,12.74,12.74,0,0,1,3.57-5.63,8.34,8.34,0,0,1,5.39-2.12,8.13,8.13,0,0,1,5.47,1.88,12.73,12.73,0,0,1,3.8,5.72,25.06,25.06,0,0,1,1.35,8.64v1.55Zm-6.07-1.53a18.2,18.2,0,0,0-1.17-7.52q-1.19-2.55-3.41-2.53c-2.86,0-4.37,3-4.56,8.86l0,2.38a18.94,18.94,0,0,0,1.1,7.37q1.13,2.62,3.4,2.73t3.4-2.4a17.89,17.89,0,0,0,1.26-7.36v-1.53Z" transform="translate(-1894.3 -2815.84)"/><path class="cls-19" d="M2319.75,3042.47L2313,3042l-9.44-22.13-0.15,21.51-6.27-.41,0.22-34,6.29-.15,9.43,21.85,0.17-22.07,6.8-.16Z" transform="translate(-1894.3 -2815.84)"/><path class="cls-19" d="M2349.69,3039.63a11.74,11.74,0,0,1-5.35,3.51,18.56,18.56,0,0,1-7.46.95,12.34,12.34,0,0,1-9.51-5q-3.44-4.57-3.6-12.36v-3.15a26.38,26.38,0,0,1,1.62-9.4,14.16,14.16,0,0,1,4.51-6.3,11.58,11.58,0,0,1,6.92-2.37c3.92-.1,7,0.92,9.21,3.06s3.52,5.44,3.86,9.82l-7.55,0a7.77,7.77,0,0,0-1.66-4.54,5.08,5.08,0,0,0-8,1.58q-1.53,2.86-1.6,8.15l0,2.24q0,5.54,1.48,8.39a6.34,6.34,0,0,0,9.38,1.67l0.06-5.89-5.28-.17,0.06-6.21,13.12,0.23Z" transform="translate(-1894.3 -2815.84)"/><path class="cls-19" d="M2266.91,3080.12l2.59-19.23,5.34,0.67-4.9,30.82-5.42-1.16-2.77-18.08L2259,3090l-5.08-1.08-4.13-30.54,4.78,0.6,2.26,19.28,2.91-18.63,4.31,0.54Z" transform="translate(-1894.3 -2815.84)"/><path class="cls-19" d="M2289.62,3090.38l-7.93-1.56-1.38,5.76-5.91-1.26,8.66-30.74,5.45,0.68,9,35-6.51-1.39Zm-6.54-7.35,5.16,0.93-2.54-11.84Z" transform="translate(-1894.3 -2815.84)"/><path class="cls-19" d="M2306.44,3080.57l5.11-14.41,7.29,0.91-9.15,21.25-0.09,12.51-6.54-1.39,0.09-12.31-8.14-23,6.66,0.83Z" transform="translate(-1894.3 -2815.84)"/></svg>