<svg id="Layer_2" data-name="Layer 2" xmlns="http://www.w3.org/2000/svg" viewBox="0 0 512 512"><defs><style>.cls-1{fill:#1c75bc;opacity:0.06;}.cls-2{fill:#5c5c5c;}.cls-3{fill:#777;}.cls-4{fill:#d3d4d5;}.cls-5{fill:#8c8c8c;}.cls-6{fill:#757574;}.cls-7{fill:#9d9e9e;}.cls-8{fill:#b4b4b4;}.cls-9{fill:#c2bfbf;}.cls-10{fill:#e7e7e7;}.cls-11{fill:#fff;}.cls-12{fill:#f37047;}.cls-13{fill:#46b2e6;}.cls-14{fill:#67bc6b;}.cls-15{fill:#ffcc2a;}.cls-16{fill:#5bcae8;}.cls-17{fill:#696a6a;}.cls-18{fill:#4c4c4d;}.cls-19{fill:#5b5b5b;}.cls-20{fill:#b0aeae;}</style></defs><title>Maintenance</title><circle class="cls-1" cx="256" cy="256" r="256"/><path class="cls-2" d="M283.47,3858.54a10.3,10.3,0,0,1-.45-13.13,10.45,10.45,0,0,1,14.52-2.22h0c0.43,0.32,40.86,29.35,69.69,14.19,21.37-11.24,22.13-45.12,21.12-101.76a10.62,10.62,0,0,1,10.17-10.74,10.08,10.08,0,0,1,10.54,9.92c0.62,34.43,4.05,66.32-3.6,86.92-7.1,19.11-12.85,28.54-27,35.94-17.17,9-39,8.61-63.19-1.13a149,149,0,0,1-30.4-16.67A10,10,0,0,1,283.47,3858.54Z" transform="translate(-178.97 -3470.99)"/><path class="cls-3" d="M281.54,3836.24a4.85,4.85,0,0,0,1.38,2.23,4.58,4.58,0,0,0,6.57-.29l14.64-16.62a4.82,4.82,0,0,0-.41-6.7,4.58,4.58,0,0,0-6.57.29l-14.64,16.62A4.75,4.75,0,0,0,281.54,3836.24Z" transform="translate(-178.97 -3470.99)"/><polygon class="cls-4" points="78.41 385.62 100.36 346.99 126.79 372.53 115.35 400.26 78.41 385.62"/><path class="cls-5" d="M279,3751.31l-60.09,168.61,0.22,0.06A28.56,28.56,0,1,0,274,3935.83l0.22,0.06,39.13-175L279,3751.31m-41.87,173.87,12.15-6.71,6.71,12.16-12.16,6.7-6.7-12.16" transform="translate(-178.97 -3470.99)"/><path class="cls-6" d="M313.34,3760.87L279,3751.31l-3.76,10.54a54.41,54.41,0,0,0,35.58,10.3l2.52-11.28" transform="translate(-178.97 -3470.99)"/><path class="cls-7" d="M296,3654.43l-11.07,38.32,21.33,28.64,33.32-12.85,11.07-38.32A54.18,54.18,0,1,1,296,3654.43" transform="translate(-178.97 -3470.99)"/><path class="cls-8" d="M295.47,3758.62a54.14,54.14,0,0,1,.5-104.19l-11.07,38.32,21.32,28.65" transform="translate(-178.97 -3470.99)"/><path class="cls-3" d="M251.23,3808.94a2.29,2.29,0,0,0,.43.42l21.05,15.75c1.41,1.06,3.73.2,5.17-1.92s1.47-4.69.05-5.74l-21.05-15.75c-1.41-1.06-3.73-.2-5.17,1.92C250.44,3805.49,250.27,3807.72,251.23,3808.94Z" transform="translate(-178.97 -3470.99)"/><path class="cls-3" d="M245,3826.86a2.29,2.29,0,0,0,.49.36l23.07,12.62c1.55,0.85,3.72-.33,4.84-2.63s0.79-4.85-.76-5.69l-23.07-12.62c-1.55-.85-3.72.33-4.84,2.63C243.72,3823.55,243.87,3825.78,245,3826.86Z" transform="translate(-178.97 -3470.99)"/><path class="cls-3" d="M238.73,3842.2a2.29,2.29,0,0,0,.49.35L262.37,3855c1.55,0.84,3.71-.36,4.83-2.66s0.76-4.85-.8-5.69l-23.15-12.46c-1.55-.84-3.71.36-4.83,2.66C237.44,3838.91,237.6,3841.14,238.73,3842.2Z" transform="translate(-178.97 -3470.99)"/><path class="cls-4" d="M632.91,3889.35l7.4-201.6-211.7,3.3-48,20.06,192.64,231.34A257.36,257.36,0,0,0,632.91,3889.35Z" transform="translate(-178.97 -3470.99)"/><path class="cls-9" d="M638.83,3881.83l1.48-194.08L601.66,3716l-99.25,251.4,12.58,2.81A256.48,256.48,0,0,0,638.83,3881.83Z" transform="translate(-178.97 -3470.99)"/><path class="cls-10" d="M611.17,3912.7L601.66,3716l-221-4.9,35.87,271.21c6.1,0.43,12.25.67,18.46,0.67A255.12,255.12,0,0,0,611.17,3912.7Z" transform="translate(-178.97 -3470.99)"/><circle class="cls-11" cx="536.67" cy="3798.86" r="47.14" transform="translate(-620.37 -3381.95) rotate(-6.73)"/><path class="cls-4" d="M542.61,3849.21A50.7,50.7,0,1,1,587,3792.92,50.75,50.75,0,0,1,542.61,3849.21Zm-11-93.63A43.59,43.59,0,1,0,580,3793.75,43.63,43.63,0,0,0,531.56,3755.57Z" transform="translate(-178.97 -3470.99)"/><path class="cls-12" d="M548.22,3767.64c-6.69,6.78-9.58,13.58-10.78,19,5,3.1,9.5,10.17,11.8,14.05,2,3.56,5.58,10.17,6.35,15.73,3.28,1.46,6.66,1.75,9.91,0,6.87-4.27,4.17-11.56,4.17-11.56a16.41,16.41,0,0,0-9.58-8.9c6.42-5.14,5.77-12.67,5.91-15.33C565.92,3778,560.41,3755.71,548.22,3767.64Zm9.54,16.39c-1.25,4.07-4.5,6.75-7.14,5.91s-3.8-4.85-2.44-8.93,4.5-6.75,7.14-5.91S559,3780,557.76,3784Z" transform="translate(-178.97 -3470.99)"/><path class="cls-13" d="M533.17,3810.1c-2.31-4-6.32-11.59-6.45-17.56a41.83,41.83,0,0,0-22.18.54c-17,5.12-.09,20.75,2.23,21.86s8.93,5.4,16.74,2.17a15.62,15.62,0,0,0,2.89,12.8,10.07,10.07,0,0,0,12.44,1.87,10.61,10.61,0,0,0,5.13-8.33C539.43,3820.19,535.33,3813.76,533.17,3810.1Zm-10-4c-0.6,2.72-4.47,4.1-8.72,3.22s-7-3.9-6.43-6.62,4.47-4.1,8.72-3.22S523.74,3803.37,523.13,3806.09Z" transform="translate(-178.97 -3470.99)"/><circle class="cls-14" cx="525.73" cy="3779.16" r="8.13" transform="translate(-2011.93 -2691) rotate(-30.26)"/><ellipse class="cls-15" cx="541.17" cy="3805.45" rx="4.81" ry="18.08" transform="translate(-2023.08 -2679.64) rotate(-30.26)"/><path class="cls-11" d="M474.21,3797.54a30.44,30.44,0,1,1-33.8-26.66,30.44,30.44,0,0,1,33.8,26.66" transform="translate(-178.97 -3470.99)"/><path class="cls-4" d="M474.21,3797.54a30.44,30.44,0,1,1-60.46,7.13" transform="translate(-178.97 -3470.99)"/><path class="cls-16" d="M450,3804.14a7.56,7.56,0,1,1-4.35-9.76,7.55,7.55,0,0,1,4.35,9.76" transform="translate(-178.97 -3470.99)"/><polyline class="cls-16" points="266.25 329.83 262.73 328.48 271.73 304.97 275.26 306.32"/><path class="cls-4" d="M592.47,3928.82l-7.34-62.18-164.89-8.79,11.45,97,108.09,5.76A255.92,255.92,0,0,0,592.47,3928.82Z" transform="translate(-178.97 -3470.99)"/><polygon class="cls-5" points="289.21 474.73 280.78 474.28 271.93 399.22 280.36 399.67 289.21 474.73"/><path class="cls-16" d="M468.89,3892.41A9.15,9.15,0,0,1,459,3903a13.82,13.82,0,0,1-12.56-11.75,9.15,9.15,0,0,1,9.93-10.55,13.83,13.83,0,0,1,12.56,11.75" transform="translate(-178.97 -3470.99)"/><polygon class="cls-5" points="321.07 476.43 312.64 475.98 303.79 400.92 312.22 401.37 321.07 476.43"/><path class="cls-16" d="M502.08,3905.41a9.15,9.15,0,0,1-9.93,10.55,13.82,13.82,0,0,1-12.56-11.75,9.15,9.15,0,0,1,9.93-10.55,13.83,13.83,0,0,1,12.56,11.75" transform="translate(-178.97 -3470.99)"/><polygon class="cls-5" points="352.94 478.13 344.5 477.68 335.65 402.62 344.08 403.07 352.94 478.13"/><path class="cls-16" d="M536.07,3925.19a9.15,9.15,0,0,1-9.93,10.55A13.82,13.82,0,0,1,513.58,3924a9.15,9.15,0,0,1,9.93-10.55,13.82,13.82,0,0,1,12.56,11.75" transform="translate(-178.97 -3470.99)"/><path class="cls-5" d="M554.91,3875.76l-8.43-.45,8.86,75.06,4.33,0.23c1.28-.71,2.55-1.43,3.82-2.17Z" transform="translate(-178.97 -3470.99)"/><path class="cls-16" d="M565.65,3907.57a9.15,9.15,0,0,1-9.93,10.55,13.82,13.82,0,0,1-12.56-11.75,9.15,9.15,0,0,1,9.93-10.55,13.83,13.83,0,0,1,12.56,11.75" transform="translate(-178.97 -3470.99)"/><ellipse class="cls-9" cx="512.76" cy="3701.67" rx="87.07" ry="10.68" transform="translate(-228.94 -3463.73) rotate(-0.77)"/><path class="cls-2" d="M468.37,3631.81a93.41,93.41,0,0,1,67.39-6.84l14.2,70.47c-14.06,12.58-66.05,18.11-81,8.22Z" transform="translate(-178.97 -3470.99)"/><rect class="cls-17" x="478.35" y="3486.81" width="4.74" height="36.37" transform="translate(-586.32 -3390.53) rotate(-6.73)"/><path class="cls-18" d="M488.24,3482.43a10.11,10.11,0,1,0-8.87,11.22,10.11,10.11,0,0,0,8.87-11.22" transform="translate(-178.97 -3470.99)"/><rect class="cls-19" x="476.57" y="3500.96" width="9.48" height="18.26" transform="translate(-586.92 -3390.42) rotate(-6.73)"/><rect class="cls-18" x="475.78" y="3514.35" width="14.22" height="18.27" transform="translate(-588.47 -3390.15) rotate(-6.73)"/><polygon class="cls-9" points="401.89 66.03 406.78 190.06 388.34 206.88 348.81 60.93 376.77 41.35 401.89 66.03"/><polygon class="cls-10" points="247.59 216.72 388.34 206.88 376.77 41.35 223.86 64.8 247.59 216.72"/><path class="cls-2" d="M447.2,3581a9.73,9.73,0,0,1,13.55,2.28c3.11,4.36-.24,6.72-4.6,9.83s-8.13,5.81-11.24,1.45A9.73,9.73,0,0,1,447.2,3581" transform="translate(-178.97 -3470.99)"/><path class="cls-2" d="M519.16,3570.16a10.22,10.22,0,0,1,8.44,11.71c-0.9,5.55-5.14,4.84-10.69,3.94s-10.36-1.67-9.46-7.21a10.21,10.21,0,0,1,11.71-8.44" transform="translate(-178.97 -3470.99)"/><path class="cls-2" d="M497.75,3649.42c-10.21,2.48-20.68.17-28-6.19a3.16,3.16,0,0,1,.1-4.83,4.2,4.2,0,0,1,5.42-.2,24.27,24.27,0,0,0,37.31-9.05,4.22,4.22,0,0,1,4.92-2.31,3.16,3.16,0,0,1,2.3,4.24c-3.6,9-11.84,15.86-22,18.33" transform="translate(-178.97 -3470.99)"/><path class="cls-5" d="M571.77,3573.64l12.65-.5,2.17,55.41-12.65.5C563.2,3619,561.95,3583.12,571.77,3573.64Z" transform="translate(-178.97 -3470.99)"/><ellipse class="cls-20" cx="584.31" cy="3600.9" rx="8.16" ry="27.73" transform="translate(-319.49 -3445.36) rotate(-2.24)"/><path class="cls-2" d="M631.75,3903.89c-3.67.43-7.36-2.63-8.67-7.51-1.48-5.53.64-11.3,4.75-12.9h0c0.38-.15,38.49-15.38,41-47.44,1.85-23.77-16.73-53.85-53.73-87-3.73-3.34-4.89-9.85-2.6-14.54s10.17-6.8,13.89-3.46c22.49,20.14,40,40.7,50,59.13,9.31,17.11,11.41,33.73,10.17,49.4-1.5,19.07-13.06,36.26-29.64,49.69a97.55,97.55,0,0,1-23.71,14.24A6,6,0,0,1,631.75,3903.89Z" transform="translate(-178.97 -3470.99)"/><path class="cls-3" d="M605.25,3939.41l-0.11,0a3.78,3.78,0,0,1-3.07-4.37c2-11.61,8.67-20.34,20.31-26.67A3.78,3.78,0,0,1,626,3915c-9.62,5.23-14.85,12-16.48,21.33A3.78,3.78,0,0,1,605.25,3939.41Z" transform="translate(-178.97 -3470.99)"/><path class="cls-3" d="M589.39,3930.39l-0.32-.06a3.78,3.78,0,0,1-2.83-4.53c3.7-16,17.4-21.84,27.39-24.82a3.78,3.78,0,0,1,2.16,7.24c-13.17,3.93-20,9.88-22.19,19.28A3.78,3.78,0,0,1,589.39,3930.39Z" transform="translate(-178.97 -3470.99)"/><path class="cls-3" d="M582.61,3913.93a3.78,3.78,0,0,1-2.9-5.32c4.5-9.79,14-15.2,28.27-16.1a3.78,3.78,0,0,1,.47,7.54c-11.59.73-18.54,4.45-21.88,11.71A3.78,3.78,0,0,1,582.61,3913.93Z" transform="translate(-178.97 -3470.99)"/><path class="cls-3" d="M618,3894.87a3.76,3.76,0,0,1-2-.94l-14.23-12.85a3.78,3.78,0,0,1,5.06-5.61l14.23,12.85A3.78,3.78,0,0,1,618,3894.87Z" transform="translate(-178.97 -3470.99)"/><polygon class="cls-4" points="445.14 452.25 421.25 421.24 445.93 410.43 464.01 429.38 445.14 452.25"/></svg>