<svg id="Layer_2" data-name="Layer 2" xmlns="http://www.w3.org/2000/svg" viewBox="0 0 512 512"><defs><style>.cls-1{fill:#1c75bc;opacity:0.06;}.cls-2{fill:#5c5c5c;}.cls-3{fill:#d3d4d5;}.cls-4{fill:#c2bfbf;}.cls-5{fill:#e7e7e7;}.cls-6{fill:#fff;}.cls-7{fill:#f37047;}.cls-8{fill:#46b2e6;}.cls-9{fill:#67bc6b;}.cls-10{fill:#ffcc2a;}.cls-11{fill:#5bcae8;}.cls-12{opacity:0.54;}.cls-13{fill:#8c8c8c;}.cls-14{fill:#696a6a;}.cls-15{fill:#4c4c4d;}.cls-16{fill:#5b5b5b;}.cls-17{fill:#b0aeae;}.cls-18{fill:#353434;}.cls-19{fill:#282526;}.cls-20{fill:#231f20;}.cls-21{fill:#777;}</style></defs><title>No response </title><circle class="cls-1" cx="256" cy="256" r="256"/><path class="cls-2" d="M918.16,3911.61a10,10,0,0,0,11.6-4.9c2.33-4.7.1-10.41-5-12.77h0c-0.48-.22-47.58-22.51-48.15-52.19-0.42-22,25.59-45.2,75.21-67.09a9,9,0,0,0,4.47-12.63,10.72,10.72,0,0,0-13.62-4.65c-30.16,13.3-52.66,27.41-66.89,41.93-13.2,13.47-19.74,27.66-19.45,42.18,0.36,17.66,11.09,35.39,31,51.28a158.64,158.64,0,0,0,28.92,18.2A10.94,10.94,0,0,0,918.16,3911.61Z" transform="translate(-792.63 -3477.62)"/><path class="cls-3" d="M929.22,3717.74l212,254.55a254.11,254.11,0,0,0,38.18-18.62l9.52-259.29-211.7,3.3Z" transform="translate(-792.63 -3477.62)"/><path class="cls-4" d="M1051,3974l47.54,10.63A254.4,254.4,0,0,0,1187,3949l1.94-254.59-38.65,28.26Z" transform="translate(-792.63 -3477.62)"/><path class="cls-5" d="M967.41,3976.46a256.64,256.64,0,0,0,194.47-13.29l-11.64-240.53-221-4.9Z" transform="translate(-792.63 -3477.62)"/><circle class="cls-6" cx="1085.25" cy="3805.49" r="47.14" transform="translate(-1231.02 -3324.26) rotate(-6.73)"/><path class="cls-3" d="M1091.19,3855.83a50.7,50.7,0,1,1,44.41-56.29A50.75,50.75,0,0,1,1091.19,3855.83Zm-11-93.63a43.59,43.59,0,1,0,48.39,38.18A43.63,43.63,0,0,0,1080.15,3762.2Z" transform="translate(-792.63 -3477.62)"/><path class="cls-7" d="M1096.8,3774.27c-6.69,6.78-9.58,13.58-10.78,19,5,3.1,9.5,10.17,11.8,14.05,2,3.56,5.58,10.17,6.35,15.73,3.28,1.46,6.66,1.75,9.91,0,6.87-4.27,4.17-11.56,4.17-11.56a16.41,16.41,0,0,0-9.58-8.9c6.42-5.14,5.77-12.67,5.91-15.33C1114.5,3784.62,1109,3762.34,1096.8,3774.27Zm9.54,16.39c-1.25,4.07-4.5,6.75-7.14,5.91s-3.8-4.85-2.44-8.93,4.5-6.75,7.14-5.91S1107.59,3786.59,1106.34,3790.66Z" transform="translate(-792.63 -3477.62)"/><path class="cls-8" d="M1081.75,3816.72c-2.31-4-6.32-11.59-6.45-17.56a41.83,41.83,0,0,0-22.18.54c-17,5.12-.09,20.75,2.23,21.86s8.93,5.4,16.74,2.17a15.62,15.62,0,0,0,2.89,12.8,10.07,10.07,0,0,0,12.44,1.87,10.61,10.61,0,0,0,5.13-8.33C1088,3826.82,1083.91,3820.39,1081.75,3816.72Zm-10-4c-0.6,2.72-4.47,4.1-8.72,3.22s-7-3.9-6.43-6.62,4.47-4.1,8.72-3.22S1072.32,3810,1071.72,3812.72Z" transform="translate(-792.63 -3477.62)"/><circle class="cls-9" cx="1074.31" cy="3785.79" r="8.13" transform="matrix(0.86, -0.5, 0.5, 0.86, -2554.16, -2420.26)"/><ellipse class="cls-10" cx="1089.75" cy="3812.08" rx="4.81" ry="18.08" transform="translate(-2565.31 -2408.89) rotate(-30.26)"/><path class="cls-6" d="M1022.79,3804.17a30.44,30.44,0,1,1-33.8-26.66,30.44,30.44,0,0,1,33.8,26.66" transform="translate(-792.63 -3477.62)"/><path class="cls-3" d="M1022.79,3804.17a30.44,30.44,0,1,1-60.46,7.13" transform="translate(-792.63 -3477.62)"/><path class="cls-11" d="M998.6,3810.76a7.56,7.56,0,1,1-4.35-9.76,7.55,7.55,0,0,1,4.35,9.76" transform="translate(-792.63 -3477.62)"/><polyline class="cls-11" points="201.17 329.83 197.65 328.48 206.66 304.97 210.18 306.32"/><g class="cls-12"><polygon class="cls-3" points="352.53 492.66 187.64 483.86 176.19 386.85 341.08 395.64 352.53 492.66"/><polygon class="cls-13" points="224.14 474.73 215.71 474.28 206.85 399.22 215.28 399.67 224.14 474.73"/><path class="cls-11" d="M1017.47,3899a9.15,9.15,0,0,1-9.93,10.55A13.82,13.82,0,0,1,995,3897.83a9.15,9.15,0,0,1,9.93-10.55,13.83,13.83,0,0,1,12.56,11.75" transform="translate(-792.63 -3477.62)"/><polygon class="cls-13" points="256 476.43 247.57 475.98 238.71 400.92 247.14 401.37 256 476.43"/><path class="cls-11" d="M1050.66,3912a9.15,9.15,0,0,1-9.93,10.55,13.82,13.82,0,0,1-12.56-11.75,9.15,9.15,0,0,1,9.93-10.55,13.83,13.83,0,0,1,12.56,11.75" transform="translate(-792.63 -3477.62)"/><polygon class="cls-13" points="287.86 478.13 279.43 477.68 270.57 402.62 279 403.07 287.86 478.13"/><path class="cls-11" d="M1084.65,3931.81a9.15,9.15,0,0,1-9.93,10.55,13.82,13.82,0,0,1-12.56-11.75,9.15,9.15,0,0,1,9.93-10.55,13.82,13.82,0,0,1,12.56,11.75" transform="translate(-792.63 -3477.62)"/><polygon class="cls-13" points="319.72 479.83 311.29 479.38 302.43 404.32 310.87 404.77 319.72 479.83"/><path class="cls-11" d="M1114.23,3914.2a9.15,9.15,0,0,1-9.93,10.55,13.82,13.82,0,0,1-12.56-11.75,9.15,9.15,0,0,1,9.93-10.55,13.83,13.83,0,0,1,12.56,11.75" transform="translate(-792.63 -3477.62)"/></g><ellipse class="cls-4" cx="1061.34" cy="3708.29" rx="87.07" ry="10.68" transform="matrix(1, -0.01, 0.01, 1, -842.63, -3462.94)"/><path class="cls-2" d="M1016.95,3638.44a93.41,93.41,0,0,1,67.39-6.84l14.2,70.47c-14.06,12.58-66.05,18.11-81,8.22Z" transform="translate(-792.63 -3477.62)"/><rect class="cls-14" x="1026.93" y="3493.43" width="4.74" height="36.37" transform="translate(-1196.98 -3332.84) rotate(-6.73)"/><path class="cls-15" d="M1036.82,3489.05a10.11,10.11,0,1,0-8.87,11.22,10.11,10.11,0,0,0,8.87-11.22" transform="translate(-792.63 -3477.62)"/><rect class="cls-16" x="1025.15" y="3507.59" width="9.48" height="18.26" transform="translate(-1197.57 -3332.73) rotate(-6.73)"/><rect class="cls-15" x="1024.36" y="3520.98" width="14.22" height="18.27" transform="translate(-1199.13 -3332.45) rotate(-6.73)"/><polygon class="cls-4" points="336.82 66.03 341.7 190.06 323.27 206.88 283.73 60.93 311.7 41.35 336.82 66.03"/><polygon class="cls-5" points="182.51 216.72 323.27 206.88 311.7 41.35 158.78 64.8 182.51 216.72"/><path class="cls-2" d="M1004.23,3600.11a9.73,9.73,0,0,1-13.44-2.87c-2.91-4.49.54-6.71,5-9.62s8.38-5.45,11.29-1a9.73,9.73,0,0,1-2.88,13.44" transform="translate(-792.63 -3477.62)"/><path class="cls-2" d="M1063.74,3592a10.22,10.22,0,0,1-6-13.11c2-5.27,6-3.76,11.25-1.81s9.85,3.63,7.89,8.9a10.21,10.21,0,0,1-13.11,6" transform="translate(-792.63 -3477.62)"/><path class="cls-2" d="M1042.78,3638.62c10.37-1.7,20.64,1.39,27.46,8.27a3.16,3.16,0,0,1-.46,4.8,4.2,4.2,0,0,1-5.42-.2,24.27,24.27,0,0,0-37.89,6.22,4.22,4.22,0,0,1-5.08,1.93,3.16,3.16,0,0,1-2-4.4c4.26-8.71,13-14.92,23.36-16.62" transform="translate(-792.63 -3477.62)"/><path class="cls-13" d="M1120.35,3580.26l12.65-.5,2.17,55.41-12.65.5C1111.78,3625.61,1110.53,3589.74,1120.35,3580.26Z" transform="translate(-792.63 -3477.62)"/><ellipse class="cls-17" cx="1132.89" cy="3607.52" rx="8.16" ry="27.73" transform="translate(-932.98 -3430.5) rotate(-2.24)"/><path class="cls-2" d="M1181.74,3900.41a10.33,10.33,0,0,1-11.13-6.74,9.91,9.91,0,0,1,6.86-12.45h0c0.52-.16,51.59-16.31,56.32-46.84,3.51-22.63-19.72-50.33-67.17-80.11a9.49,9.49,0,0,1-2.79-13.68,10.9,10.9,0,0,1,14.52-2.82c28.84,18.1,49.77,35.91,62.22,53,11.55,15.81,16.22,31.4,13.89,46.32-2.84,18.16-16.25,34.89-38.77,48.38a161.31,161.31,0,0,1-32,14.57A11.09,11.09,0,0,1,1181.74,3900.41Z" transform="translate(-792.63 -3477.62)"/><path class="cls-18" d="M792.63,3987.12v-21c29.66,0,45.47-8.43,65.49-19.1,18.52-9.87,39.51-21.06,75-27.33l3.66,20.68c-32.17,5.69-50.76,15.6-68.74,25.18C847.19,3976.64,827.54,3987.12,792.63,3987.12Z" transform="translate(-792.63 -3477.62)"/><path class="cls-18" d="M1304.63,3987.12c-39.29,0-65.34-17.74-90.53-34.89-21-14.27-40.77-27.76-68.6-32.46l3-20.75c31.76,5.37,54.2,20.65,75.91,35.42,23.93,16.29,46.53,31.67,80.25,31.67v21Z" transform="translate(-792.63 -3477.62)"/><polygon class="cls-19" points="177.05 469.89 132.17 471.59 124.61 433.12 166.59 416.71 177.05 469.89"/><rect class="cls-19" x="976.1" y="3877.25" width="15.72" height="52.41" rx="7.86" ry="7.86" transform="translate(3831.46 -1293.06) rotate(78.87)"/><rect class="cls-19" x="981.27" y="3903.49" width="15.72" height="52.41" rx="7.86" ry="7.86" transform="translate(3861.38 -1276.94) rotate(78.87)"/><rect class="cls-20" x="957.01" y="3883.36" width="22.11" height="73.7" transform="translate(-1531.09 -3217.05) rotate(-11.13)"/><polygon class="cls-19" points="321.4 404.19 365.76 411.19 365.76 450.39 321.4 458.39 321.4 404.19"/><rect class="cls-20" x="1099.29" y="3872.06" width="22.11" height="73.7" transform="translate(1428.06 4340.2) rotate(180)"/><path class="cls-21" d="M932.45,3954.45h0.12a3.78,3.78,0,0,0,4-3.56c0.66-11.77-3.83-21.77-13.73-30.58a3.78,3.78,0,1,0-5,5.65c8.18,7.28,11.74,15.06,11.21,24.51A3.78,3.78,0,0,0,932.45,3954.45Z" transform="translate(-792.63 -3477.62)"/><path class="cls-21" d="M949.94,3949.26h0.32a3.78,3.78,0,0,0,3.79-3.77c0-16.44-12-25.22-21-30.39a3.78,3.78,0,0,0-3.75,6.56c11.94,6.82,17.25,14.17,17.23,23.81A3.78,3.78,0,0,0,949.94,3949.26Z" transform="translate(-792.63 -3477.62)"/><path class="cls-21" d="M960.28,3934.78a3.78,3.78,0,0,0,4-4.52c-2.16-10.55-10.2-18-23.88-22.09a3.78,3.78,0,0,0-2.17,7.24c11.12,3.34,17,8.54,18.65,16.37A3.78,3.78,0,0,0,960.28,3934.78Z" transform="translate(-792.63 -3477.62)"/><path class="cls-21" d="M930.15,3908.18a3.76,3.76,0,0,0,2.15-.46l16.77-9.29a3.78,3.78,0,1,0-3.66-6.61l-16.77,9.29A3.78,3.78,0,0,0,930.15,3908.18Z" transform="translate(-792.63 -3477.62)"/><polygon class="cls-3" points="125.11 456.8 155.41 432.03 133.84 415.89 111.92 430.25 125.11 456.8"/><path class="cls-21" d="M1164.29,3940.1h-0.12a3.78,3.78,0,0,1-3.64-3.91c0.44-11.78,5.84-21.32,16.52-29.17a3.78,3.78,0,0,1,4.48,6.09c-8.82,6.48-13.09,13.9-13.44,23.36A3.78,3.78,0,0,1,1164.29,3940.1Z" transform="translate(-792.63 -3477.62)"/><path class="cls-21" d="M1147.35,3933.3l-0.32,0a3.78,3.78,0,0,1-3.42-4.11c1.5-16.37,14.29-24,23.78-28.3a3.78,3.78,0,0,1,3.12,6.88c-12.52,5.68-18.49,12.5-19.37,22.1A3.78,3.78,0,0,1,1147.35,3933.3Z" transform="translate(-792.63 -3477.62)"/><path class="cls-21" d="M1138.42,3917.92a3.78,3.78,0,0,1-3.59-4.88c3.13-10.31,11.83-17,25.83-19.77a3.78,3.78,0,0,1,1.49,7.41c-11.38,2.29-17.77,6.91-20.09,14.56A3.78,3.78,0,0,1,1138.42,3917.92Z" transform="translate(-792.63 -3477.62)"/><path class="cls-21" d="M1170.89,3894.24a3.76,3.76,0,0,1-2.1-.66l-15.84-10.81a3.78,3.78,0,1,1,4.26-6.24l15.84,10.81A3.78,3.78,0,0,1,1170.89,3894.24Z" transform="translate(-792.63 -3477.62)"/><polygon class="cls-3" points="388.17 443.91 360.3 416.42 383.29 402.37 403.77 418.7 388.17 443.91"/></svg>