<svg id="Layer_1" data-name="Layer 1" xmlns="http://www.w3.org/2000/svg" viewBox="0 0 450 445.25"><defs><style>.cls-1{fill:#ee2b36;}.cls-2{fill:#b42025;}</style></defs><title>O</title><path class="cls-1" d="M-686.5,3671.59c-124.26,0-225,99.67-225,222.63s100.74,222.63,225,222.63,225-99.67,225-222.63S-562.23,3671.59-686.5,3671.59Zm2.37,388.08c-65.9,0-119.33-74.12-119.33-165.54s53.42-165.54,119.33-165.54,119.33,74.12,119.33,165.54S-618.22,4059.67-684.12,4059.67Z" transform="translate(911.5 -3671.59)"/><path class="cls-2" d="M-632.47,3702.46c-46,0-87.71,20.74-118.44,54.46,19.06-17.89,42-28.34,66.79-28.34,65.9,0,119.33,74.12,119.33,165.54s-53.42,165.54-119.33,165.54c-65.42,0-118.53-73-119.31-163.54,0,0.55,0,1.1,0,1.65,0,107.87,76.55,195.32,171,195.32s171-87.45,171-195.32S-538,3702.46-632.47,3702.46Z" transform="translate(911.5 -3671.59)"/></svg>