<svg id="Layer_2" data-name="Layer 2" xmlns="http://www.w3.org/2000/svg" xmlns:xlink="http://www.w3.org/1999/xlink" viewBox="0 0 512 512"><defs><style>.cls-1{fill:none;}.cls-2{fill:#1c75bc;opacity:0.06;}.cls-3{fill:#ebebea;}.cls-4{fill:#e2e3e3;}.cls-5{fill:#fff;}.cls-6{fill:#d8d9d8;}.cls-7{fill:#8b8b8b;}.cls-8{fill:#b8b8b8;}.cls-9{fill:#787777;}.cls-10{fill:#bbb;}.cls-11{fill:#9a9999;}.cls-12{clip-path:url(#clip-path);}.cls-13{clip-path:url(#clip-path-2);}.cls-14{clip-path:url(#clip-path-3);}.cls-15{fill:#dcdbdb;}.cls-16{fill:#f3dac9;}.cls-17{fill:#dedfe0;}.cls-18{fill:#f1d7c7;}.cls-19{fill:#373838;}.cls-20{fill:#383938;}.cls-21{fill:#979797;}.cls-22{fill:#4a4a4c;}.cls-23{fill:#d69d6e;}.cls-24{fill:#3d322a;}.cls-25{fill:#f5af82;}.cls-26{fill:#d39a6d;}.cls-27{clip-path:url(#clip-path-4);}.cls-28{fill:#f2d2bf;}.cls-29{fill:#898989;}.cls-30{fill:#eed4c5;}.cls-31{fill:#f4f4f4;}</style><clipPath id="clip-path" transform="translate(-5708.04 -1598.99)"><rect class="cls-1" x="5861.96" y="2065.81" width="72.15" height="44.21"/></clipPath><clipPath id="clip-path-2" transform="translate(-5708.04 -1598.99)"><path class="cls-1" d="M5786.84,1800.18a71.62,71.62,0,0,1-18.07,1.15l-3.28,6.43a71.56,71.56,0,0,0,18.06-1.15c20.41-4,36.11-16.38,44.4-32.64l3.28-6.43c-8.29,16.26-24,28.61-44.39,32.64"/></clipPath><clipPath id="clip-path-3" transform="translate(-5708.04 -1598.99)"><rect class="cls-1" x="5183.72" y="1159.77" width="2138.07" height="1727.56"/></clipPath><clipPath id="clip-path-4" transform="translate(-5708.04 -1598.99)"><rect class="cls-1" x="5877.86" y="1846.99" width="41.93" height="41.35"/></clipPath></defs><title>Unknown error</title><path class="cls-2" d="M6220,1855c0,141.38-114.61,256-256,256s-256-114.62-256-256,114.61-256,256-256,256,114.61,256,256" transform="translate(-5708.04 -1598.99)"/><path class="cls-3" d="M6054.37,2094.59a253.76,253.76,0,0,1-35.32,10.47,253.76,253.76,0,0,0,35.32-10.47m160.07-186.13a255.49,255.49,0,0,1-70.61,128.75h0a255.51,255.51,0,0,0,70.6-128.75" transform="translate(-5708.04 -1598.99)"/><path class="cls-4" d="M6055.26,2093.27h-21.61l0,8.1c-4.82,1.36-9.72,2.59-14.65,3.67v0a253.88,253.88,0,0,0,35.32-10.47c0.29-.45.58-0.89,0.88-1.33m5.68-204.46a45.2,45.2,0,0,1-37.06,19.27,45.72,45.72,0,0,1-4.83-.25v13.45c0.39,0.06.79,0.11,1.19,0.14s0.95,0.06,1.43.06c10.38,0,23-8.87,35-22.8l0.55-.63c0.81-1,1.61-1.94,2.41-2.93l0.75-.93c0.77-1,1.53-2,2.3-3l0.73-1c-0.83-.45-1.65-0.92-2.46-1.41m76.41-3.8a68.49,68.49,0,0,1-41,13.58h-0.68a190.44,190.44,0,0,1-15.84,21h0a145.17,145.17,0,0,1-10.87,11.21,29.86,29.86,0,0,1,11.72,21.33,24.21,24.21,0,0,1,26.9,11.64,30.63,30.63,0,0,1,4,4.19h0.39a15.89,15.89,0,0,1,14.37,9.1,21.46,21.46,0,0,1-5,34.86,59,59,0,0,1,4.3,22.18q0,1.57-.08,3.12h18.42a255.51,255.51,0,0,0,70.6-128.75,85.28,85.28,0,0,1-77.1-23.46" transform="translate(-5708.04 -1598.99)"/><path class="cls-3" d="M6219.93,1847.64q0.1,3.66.11,7.35a257,257,0,0,1-5.6,53.48h0A257.21,257.21,0,0,0,6220,1855c0-2.45,0-4.91-.1-7.34h0M6192.85,1740a254.53,254.53,0,0,1,26.61,97.49h0a254.47,254.47,0,0,0-26.61-97.48" transform="translate(-5708.04 -1598.99)"/><path class="cls-4" d="M6192.84,1740a84.94,84.94,0,0,0-60.86,30.89,68.83,68.83,0,0,1,5.36,114.07,85.28,85.28,0,0,0,77.1,23.46A257.21,257.21,0,0,0,6220,1855q0-3.69-.1-7.35a69.31,69.31,0,0,1-.5-8.37c0-.58,0-1.16,0-1.74a254.47,254.47,0,0,0-26.61-97.49" transform="translate(-5708.04 -1598.99)"/><path class="cls-4" d="M6096.3,1761q-2.75,0-5.44.21a68.74,68.74,0,0,1-28.3,50.13,114.5,114.5,0,0,1-4.14,22.23,45.28,45.28,0,0,1,2.53,55.26c0.81,0.49,1.63,1,2.46,1.41l0.09-.12q1.12-1.51,2.23-3.08a198.88,198.88,0,0,0,25.73-51.11l-0.32.09,3.34-12.8-5.71-18.72a3,3,0,0,1,.91-3.46,2.86,2.86,0,0,1,.75-0.44,3,3,0,0,1,1.14-.22,3,3,0,0,1,2.77,1.85l3.73,7.22,2.64-10.1,2.65-10.74,2.56-10.36a2.54,2.54,0,0,1,.15-0.44,2.68,2.68,0,0,1,1.29-1.34h0a2.74,2.74,0,0,1,2.65.17,2.7,2.7,0,0,1,1.18,2.92l-4.63,18.77-0.7,2.81a2,2,0,0,0,1.49,1.93,1.89,1.89,0,0,0,.45.05,2,2,0,0,0,1.24-.44,2.68,2.68,0,0,1,.08-0.52l1.33-5.39,4.61-18.66a2.7,2.7,0,0,1,2.63-2.05h0.08a2.77,2.77,0,0,1,.58.08,2.7,2.7,0,0,1,2,3.28l-4.44,18-1.49,6c0,0.11-.06.21-0.1,0.31a2,2,0,0,0,1.41,1.36,1.94,1.94,0,0,0,.47.06,2,2,0,0,0,1.47-.66,2.52,2.52,0,0,1,0-.25l5.38-21.79a2.7,2.7,0,0,1,2.63-2.05,2.78,2.78,0,0,1,.66.08,2.71,2.71,0,0,1,1.73,1.31,2.68,2.68,0,0,1,.34,1.28h0a2.77,2.77,0,0,1-.08.68l-5.38,21.78h0a2.64,2.64,0,0,1-.29.7,2,2,0,0,0,1.2.86,1.89,1.89,0,0,0,.45.05,2,2,0,0,0,1.2-.41,2.56,2.56,0,0,1,.08-0.56l0.84-3.42,3.25-13.16a2.7,2.7,0,0,1,1.58-1.84h0a2.75,2.75,0,0,1,1-.21h0a2.8,2.8,0,0,1,.66.08,2.72,2.72,0,0,1,2.08,2.56v0.14a2.66,2.66,0,0,1-.08.58l-3.38,13.7-0.55,2.22-0.19.88L6127,1825c-5,23.62-16.33,50.56-31.41,73.6h0.68a68.81,68.81,0,1,0,0-137.61" transform="translate(-5708.04 -1598.99)"/><path class="cls-4" d="M6058.42,1833.54q-1.22,4.19-2.78,8.35a118.37,118.37,0,0,1-36.59,50.59v15.34a45.74,45.74,0,0,0,4.83.26,45.27,45.27,0,0,0,34.54-74.53" transform="translate(-5708.04 -1598.99)"/><path class="cls-3" d="M6219.45,1837.53h0q0.34,5,.48,10.1h0c-0.09-3.4-.26-6.76-0.48-10.12" transform="translate(-5708.04 -1598.99)"/><path class="cls-4" d="M6219.45,1837.54q0,0.86,0,1.74a69.27,69.27,0,0,0,.5,8.36q-0.14-5.08-.48-10.1" transform="translate(-5708.04 -1598.99)"/><path class="cls-4" d="M5732.58,1759.14h-6q-2,4.87-3.74,9.85a45.57,45.57,0,0,1,9.74-9.85" transform="translate(-5708.04 -1598.99)"/><path class="cls-3" d="M6019.05,2105.06a257,257,0,0,1-55,5.92,257,257,0,0,0,55-5.92" transform="translate(-5708.04 -1598.99)"/><path class="cls-4" d="M5775,1838.07c-0.85.31-1.73,0.6-2.61,0.86l1.43,2.91a2.72,2.72,0,0,1,.2.54,2.08,2.08,0,0,0,.85.19,1.87,1.87,0,0,0,.84-0.19,2,2,0,0,0,1-1.09,2.8,2.8,0,0,1-.43-0.63h0Z" transform="translate(-5708.04 -1598.99)"/><path class="cls-4" d="M5781.28,1838.46a2,2,0,0,0,1.16.37,2,2,0,0,0,.74-0.15l0.12-.05,0.16-.09a2,2,0,0,0,.93-1.54,2.3,2.3,0,0,1-.16-0.27h0l-1.23-2.49q-1.45.89-3,1.66l1.15,2.34A2.48,2.48,0,0,1,5781.28,1838.46Z" transform="translate(-5708.04 -1598.99)"/><path class="cls-4" d="M5857.54,2046.56c0.14-.24.29-0.47,0.44-0.71,1.81,0.13,3.67.29,5.56,0.48,1.47-.1,2.95-0.16,4.44-0.16a61.45,61.45,0,0,1,27.35,6.38l-0.23-39.93a29.32,29.32,0,0,1-18.63-51.93c-11.22-3.57-22.58-9.87-33.52-18l0,0c-28-20.69-53.21-53.19-66.43-82.35l-7.84-16.82-1.69-3.44a45.32,45.32,0,0,1-52.62-41.85c-0.25,1.12-.49,2.24-0.73,3.36-0.14.66-.29,1.31-0.42,2a256.4,256.4,0,0,0,93.47,253.24C5830.95,2044.88,5854.69,2033.57,5857.54,2046.56Z" transform="translate(-5708.04 -1598.99)"/><path class="cls-4" d="M5992.38,1915.41q1.42,0.54,2.81,1.14l23.48,4.66,0.38,0.07v-28.79a121.15,121.15,0,0,1-26.67,16.32v6.61Z" transform="translate(-5708.04 -1598.99)"/><path class="cls-4" d="M5973.07,2110.81c1.54-.05,3.08-0.11,4.62-0.19l2.57-.16c1.4-.09,2.8-0.17,4.19-0.28l2.72-.24c1.34-.12,2.67-0.24,4-0.38l2.79-.32c1.29-.15,2.58-0.3,3.87-0.47l2.85-.4c1.25-.18,2.5-0.36,3.75-0.56l2.9-.48,3.62-.64,3-.57,3.47-.71,1.66-.36h0a258.68,258.68,0,0,1-94.73,2.86h-0.14l0.48,0.08,1.49,0.22q2.16,0.32,4.34.61l1.91,0.24q2.14,0.26,4.29.49l1.61,0.17q2.9,0.29,5.82.52l1.15,0.08q2.38,0.17,4.78.3l1.93,0.09q2.12,0.1,4.26.16l1.82,0.05c2,0,4,.08,6,0.08q3.43,0,6.84-.09Z" transform="translate(-5708.04 -1598.99)"/><path class="cls-4" d="M5790.21,1835a1.84,1.84,0,0,0,.83-0.19,2,2,0,0,0,1-2.2l-1.88-3.81q-1.29,1.19-2.67,2.28l1.59,3.22a2.7,2.7,0,0,1,.19.49A2.09,2.09,0,0,0,5790.21,1835Z" transform="translate(-5708.04 -1598.99)"/><path class="cls-4" d="M5907.34,1913.61q-1.32-.42-2.61-0.87l-0.13,0-0.82,0c-10,0-24.5-8.75-38.89-22.42a137.17,137.17,0,0,1-44.48-66.68,68.26,68.26,0,0,1-21-6.63,45.27,45.27,0,0,1-5.19,7.64l2.54,5.16,1.92,3.78,2.81,5.52,0.88-3.28,1.22-4.58a3,3,0,0,1,.79-1.55,3,3,0,0,1,2.16-.92h0a3.19,3.19,0,0,1,.52,0,3,3,0,0,1,2.49,2.84,2.91,2.91,0,0,1,0,.6l-1.57,19.5,6,11.79h-0.33a198.51,198.51,0,0,0,36.08,44.41q1.42,1.29,2.83,2.53l1,0.89c1,0.82,1.92,1.64,2.88,2.42l0.93,0.75c1,0.8,2,1.59,3,2.35l0.66,0.49c12.66,9.51,25,15.25,34.6,15.25a19,19,0,0,0,7.35-1.36l17.38-7.58a63.86,63.86,0,0,1,8.55-5.29A117.45,117.45,0,0,1,5907.34,1913.61Z" transform="translate(-5708.04 -1598.99)"/><path class="cls-4" d="M5941.72,1631.58a85.14,85.14,0,0,0-81.86,61.76l0.41,0.19a115.19,115.19,0,0,1,14.82-10.19,116.48,116.48,0,0,1,58.56-15.58,125.82,125.82,0,0,1,70,21.5,68.76,68.76,0,0,1,17.77-2.55,85.13,85.13,0,0,0-79.68-55.14" transform="translate(-5708.04 -1598.99)"/><path class="cls-4" d="M6022.28,1686.71h-0.88a68.76,68.76,0,0,0-17.77,2.55,120.29,120.29,0,0,1,36.84,39.18,141.58,141.58,0,0,1,12,25.4,114.91,114.91,0,0,1,10.46,44.71,115.75,115.75,0,0,1-.38,12.75,68.73,68.73,0,0,0,28.3-50.13q0.23-2.8.23-5.66a68.81,68.81,0,0,0-68.81-68.81" transform="translate(-5708.04 -1598.99)"/><path class="cls-1" d="M5964,1599c-141.38,0-256,114.61-256,256s114.61,256,256,256,256-114.62,256-256-114.62-256-256-256" transform="translate(-5708.04 -1598.99)"/><path class="cls-5" d="M5753.57,1941.39l-27.42-34.33a33.51,33.51,0,0,1,2.54-33.82l18.09-14.38,38.15,52.49a52.39,52.39,0,0,0-31.36,30" transform="translate(-5708.04 -1598.99)"/><path class="cls-6" d="M5726.14,1907.06a33.51,33.51,0,0,1,2.54-33.82l14,10.19c-15.66,11.08-16.52,23.63-16.52,23.63" transform="translate(-5708.04 -1598.99)"/><path class="cls-7" d="M6080.71,1954.61a29.88,29.88,0,1,1-29.88-29.88,29.88,29.88,0,0,1,29.88,29.88" transform="translate(-5708.04 -1598.99)"/><path class="cls-7" d="M6110.59,1975.59a24.16,24.16,0,1,1-24.16-24.16,24.16,24.16,0,0,1,24.16,24.16" transform="translate(-5708.04 -1598.99)"/><path class="cls-7" d="M6043.21,1975.59a24.16,24.16,0,1,1-24.16-24.16,24.16,24.16,0,0,1,24.16,24.16" transform="translate(-5708.04 -1598.99)"/><path class="cls-8" d="M6126.23,1977.06a15.9,15.9,0,0,1-11.86,22.49,59,59,0,0,1,6.83,12.37,21.46,21.46,0,0,0,5-34.86m-18.72-13.28a23.86,23.86,0,0,1,1.91,4.37,16.14,16.14,0,0,1,2-.18,30.63,30.63,0,0,0-4-4.19" transform="translate(-5708.04 -1598.99)"/><path class="cls-9" d="M5992.24,1959.4a38.67,38.67,0,0,0-21.18,18.66,58.9,58.9,0,0,1,15-3,24.07,24.07,0,0,1,6.22-15.68" transform="translate(-5708.04 -1598.99)"/><path class="cls-9" d="M6009.5,1956.49a49.42,49.42,0,0,0-17.26,2.91,24.05,24.05,0,0,0-6.22,15.68q2-.14,4.06-0.14a58.88,58.88,0,0,1,29.66,8,15.9,15.9,0,0,1,13.43-14.75,24.07,24.07,0,0,0-1.92-4.37c-5-4.34-11.89-7.29-21.74-7.29" transform="translate(-5708.04 -1598.99)"/><path class="cls-9" d="M6120.94,1988.56l-0.48-1.51c0.47,0.91.68,1.48,0.48,1.51m-9.47-20.59a15.64,15.64,0,0,0-2,.18A15.9,15.9,0,0,0,6096,1982.9a59.5,59.5,0,0,1,18.37,16.65,15.9,15.9,0,0,0,11.86-22.49,21.38,21.38,0,0,0-12.38-5.66,36.43,36.43,0,0,0-2.38-3.43" transform="translate(-5708.04 -1598.99)"/><path class="cls-9" d="M6033.65,1984.78l-0.63.09v0.33l0.63-.42" transform="translate(-5708.04 -1598.99)"/><path class="cls-7" d="M5924.48,1983.3a29.32,29.32,0,1,1-29.32-29.32,29.32,29.32,0,0,1,29.32,29.32" transform="translate(-5708.04 -1598.99)"/><path class="cls-7" d="M5824.6,2012.62a35.85,35.85,0,1,1,71.7,0" transform="translate(-5708.04 -1598.99)"/><path class="cls-10" d="M5797.16,2057.41a50.48,50.48,0,1,0,50.48-50.48,50.48,50.48,0,0,0-50.48,50.48" transform="translate(-5708.04 -1598.99)"/><path class="cls-10" d="M5969.11,2107.89a61.71,61.71,0,0,0-123.43,0h123.43" transform="translate(-5708.04 -1598.99)"/><path class="cls-8" d="M5858,2045.85c-0.15.23-.3,0.47-0.44,0.71l0.1,0.48q2.91-.49,5.9-0.71c-1.89-.19-3.75-0.35-5.56-0.48" transform="translate(-5708.04 -1598.99)"/><path class="cls-11" d="M5857.54,2046.56l-0.33.56,0.43-.07-0.1-.48" transform="translate(-5708.04 -1598.99)"/><g class="cls-12"><path class="cls-11" d="M5872.1,2066.29q-3,.21-5.9.71l-0.43.07a28.55,28.55,0,0,0,21.13,42.56V2110h17.22l-0.21-36.17c-10.16-4.33-21.49-6.49-31.8-7.55" transform="translate(-5708.04 -1598.99)"/></g><path class="cls-10" d="M5824.68,2075.17a32.39,32.39,0,1,1-32.39-32.39,32.39,32.39,0,0,1,32.39,32.39" transform="translate(-5708.04 -1598.99)"/><path class="cls-10" d="M5714.34,2107.56a39.6,39.6,0,0,1,79.21,0" transform="translate(-5708.04 -1598.99)"/><g class="cls-13"><g class="cls-14"><path class="cls-15" d="M5831.24,1767.54L5828,1774c-8.29,16.26-24,28.61-44.4,32.64a71.73,71.73,0,0,1-18.07,1.15l3.28-6.43a71.73,71.73,0,0,0,18.07-1.15c20.4-4,36.11-16.38,44.4-32.64" transform="translate(-5708.04 -1598.99)"/></g></g><path class="cls-15" d="M5804.69,1798.62a45,45,0,0,1-5.3,18.36,68.23,68.23,0,0,0,21,6.63,124.35,124.35,0,0,1-5.13-32.89A62,62,0,0,1,5804.69,1798.62Z" transform="translate(-5708.04 -1598.99)"/><path class="cls-15" d="M5859.86,1693.35a68.84,68.84,0,0,0-98.12,57c-0.73,0-1.47-.05-2.21-0.05a45.09,45.09,0,0,0-26.94,8.89,45.63,45.63,0,0,0-9.74,9.85,254.41,254.41,0,0,0-8.5,29.31,45.32,45.32,0,0,0,52.62,41.89l-2.16-4.39-3.39-6.87a2.7,2.7,0,0,1-.27-1.33,0,0,0,0,0,0,0h0a2.73,2.73,0,0,1,.15-0.72h0v0h0v0h0a2.76,2.76,0,0,1,2.52-1.75h0a2.71,2.71,0,0,1,1.43.41,2.64,2.64,0,0,1,1,1.1l6.11,12.41c0.88-.26,1.75-0.55,2.61-0.86l-3-6-5.68-11.53a2.73,2.73,0,0,1,2.46-3.91,2.69,2.69,0,0,1,2.43,1.5l8.76,17.79q1.52-.77,3-1.66l-4.86-9.88-4.85-9.85a2.72,2.72,0,0,1,1-3.52l0.2-.11a2.73,2.73,0,0,1,2.53.06,2.69,2.69,0,0,1,1.11,1.16l1.85,3.76,7.51,15.24q1.38-1.09,2.67-2.28l-7.95-16.13a2.7,2.7,0,0,1,.76-3.31,2.73,2.73,0,0,1,1.65-.6h0.11a2.7,2.7,0,0,1,2.2,1.2,3.09,3.09,0,0,1,.17.3l7.06,14.34a45.12,45.12,0,0,0,10.49-26,66.61,66.61,0,0,1-21.13,8l-0.88.17a69.8,69.8,0,0,1-12,1.12h-0.62q-2.28,0-4.56-.13l3.28-6.43,0-1.05,0,1.05c1.3,0.07,2.61.1,3.92,0.12-1.31,0-2.62,0-3.92-.11q2.27,0.13,4.54.13H5774c0.39,0,.78,0,1.17,0a68.77,68.77,0,0,0,11.72-1.24,67.2,67.2,0,0,0,18.3-6.43l-0.37.22,0.37-.22q2.42-1.27,4.68-2.72l0.8-.52q2.22-1.47,4.29-3.11l0.36-.26h0l-0.33.24c18.95-15,27.63-40,20.14-65.5-0.33-1.12-.73-2.21-1.13-3.31,0.35,1,.71,1.91,1,2.88,4.85-7.89,10.57-15.11,17.1-20.59q3.9-3.83,8.21-7.33Zm-92.14,41.84h0Zm5.62,66.27h0Z" transform="translate(-5708.04 -1598.99)"/><path class="cls-16" d="M6095.49,1826.53l-6.73-22.05a3,3,0,0,1,5.57-2.26l5.26,10.17L6108,1818l-8.63,10.19a3,3,0,0,1-3.91-1.63" transform="translate(-5708.04 -1598.99)"/><path class="cls-16" d="M6114.4,1803.43l5.93-24a2.72,2.72,0,0,0-5.28-1.31l-5.94,24a2.72,2.72,0,0,0,5.29,1.31" transform="translate(-5708.04 -1598.99)"/><path class="cls-16" d="M6123,1805.56l5.38-21.78a2.72,2.72,0,0,0-5.29-1.31l-5.38,21.79a2.72,2.72,0,0,0,5.29,1.3" transform="translate(-5708.04 -1598.99)"/><path class="cls-17" d="M6130.89,1807.72l-3.82,17.08,0,0.18,3.86-17.26m-8.19-1.45a2,2,0,0,0,2.85.55s0,0,0,0a2,2,0,0,1-1.2.41,1.91,1.91,0,0,1-.45-0.05,2,2,0,0,1-1.2-.86m-8.4-2.53,0,0a2,2,0,0,0,1.43,1.31,2,2,0,0,0,.48.06,2,2,0,0,0,1.45-.63v0a2,2,0,0,1-1.47.66,2.06,2.06,0,0,1-.47-0.06,2,2,0,0,1-1.41-1.36m-8.45-2.63,0,0.13a2,2,0,0,0,1.52,1.8,2,2,0,0,0,1.69-.34,0.27,0.27,0,0,1,0,0,2,2,0,0,1-1.24.45,1.89,1.89,0,0,1-.45-0.05,2,2,0,0,1-1.49-1.93m-14.31-.75a3,3,0,0,0-1.14.22,3.1,3.1,0,0,0-.75.44,3,3,0,0,1,2.62-.57,3,3,0,0,0-.73-0.09m43.31-11.17a2.69,2.69,0,0,1,.15,1.74l-3.38,13.7,3.38-13.7a2.88,2.88,0,0,0,.08-0.58v-0.14a2.71,2.71,0,0,0-.23-1M6130,1789a2.64,2.64,0,0,0-.26.66l-3.25,13.16,3.25-13.16a2.88,2.88,0,0,1,.26-0.66m-26.64-.37-2.65,10.74-2.64,10.1h0l2.63-10.09,2.66-10.76m28-.81h0m1-.21a2.69,2.69,0,0,0-1,.21,2.75,2.75,0,0,1,1-.21m-3.88-4.48a2.61,2.61,0,0,1-.08.68l-5.38,21.78h0l5.38-21.79a2.74,2.74,0,0,0,.08-0.68m0,0h0m-0.87-1.94a2.75,2.75,0,0,1,.53.66,2.75,2.75,0,0,0-.53-0.66m-7.19-2.82a2.7,2.7,0,0,1,0,1.05l-4.44,18,4.44-18a2.71,2.71,0,0,0,0-1.06m-2.71-2.3a2.7,2.7,0,0,0-2.63,2l-4.6,18.66,4.61-18.66a2.71,2.71,0,0,1,2.63-2h0" transform="translate(-5708.04 -1598.99)"/><path class="cls-17" d="M6063.4,1890.22l-0.73,1c-0.76,1-1.53,2-2.3,3l-0.75.93c-0.8,1-1.61,2-2.42,2.93l-0.55.63c-12,13.93-24.61,22.8-35,22.8-0.48,0-1,0-1.43-.06,0.47,0,.95.06,1.43,0.06,12.35,0,27.85-12.53,41.73-31.25h0" transform="translate(-5708.04 -1598.99)"/><path class="cls-17" d="M6094.47,1823.2l-3.34,12.8,0.32-.09a198.78,198.78,0,0,1-25.73,51.11q-1.11,1.57-2.23,3.08l-0.09.12h0q1.39-1.88,2.77-3.84h0a199.16,199.16,0,0,0,25.27-50.49l-0.32.09,3.34-12.79" transform="translate(-5708.04 -1598.99)"/><path class="cls-18" d="M6091.56,1800.36a3.05,3.05,0,0,0-1.14.22,3.08,3.08,0,0,0-.75.44,3,3,0,0,0-.91,3.46l5.71,18.72h0l3.59-13.76h0l-3.73-7.22a3,3,0,0,0-2-1.76,3.12,3.12,0,0,0-.73-0.09" transform="translate(-5708.04 -1598.99)"/><path class="cls-18" d="M6117.69,1776a2.71,2.71,0,0,0-2.63,2l-4.61,18.66-1.33,5.39,0,0.47-0.05,0a0.27,0.27,0,0,0,0,0,2,2,0,0,0,.73-1.11v0l4.48,1.11v0a2,2,0,0,0,0,1.09l0,0,0-.07,0.11-.24,1.49-6,4.44-18a2.74,2.74,0,0,0-2.57-3.36h-0.08" transform="translate(-5708.04 -1598.99)"/><path class="cls-18" d="M6125.71,1780.42a2.71,2.71,0,0,0-2.63,2l-5.37,21.78v0.21l0,0v0a2,2,0,0,0,.48-0.88v0l4.31,1.07v0a2,2,0,0,0,.26,1.55h0l0,0,0.32-.66h0l5.38-21.78a2.63,2.63,0,0,0,.08-0.68h0a2.68,2.68,0,0,0-.34-1.28,2.71,2.71,0,0,0-.53-0.67,2.75,2.75,0,0,0-1.86-.73" transform="translate(-5708.04 -1598.99)"/><path class="cls-18" d="M6132.36,1787.57h0a2.69,2.69,0,0,0-1,.21h0A2.69,2.69,0,0,0,6130,1789a2.88,2.88,0,0,0-.26.66l-3.25,13.16-0.84,3.42,0,0.52-0.06,0v0a2,2,0,0,0,.77-1.14v0l4.76,1.17,0.54-2.21,3.38-13.7a2.67,2.67,0,0,0-.15-1.74,2.73,2.73,0,0,0-1.84-1.54,2.66,2.66,0,0,0-.66-0.08" transform="translate(-5708.04 -1598.99)"/><path class="cls-18" d="M6100.69,1799.35l-2.63,10.09-3.59,13.76-3.34,12.79,0.32-.09a165.35,165.35,0,0,0,4.83-17.78l30.83,6.5,0,0.18,3.82-17.08,0.2-.88h0l-4.76-1.17v0a2,2,0,0,1-.77,1.14,2,2,0,0,1-1.16.37,2,2,0,0,1-1.69-.92,2,2,0,0,1-.26-1.55v0l-4.31-1.07v0a2,2,0,0,1-.48.88,2,2,0,0,1-1.45.62,2,2,0,0,1-.48-0.06,2,2,0,0,1-1.47-2.41v0l-4.48-1.11v0a2,2,0,0,1-.73,1.11,2,2,0,0,1-1.2.4,2.05,2.05,0,0,1-.49-0.06,2,2,0,0,1-1.52-1.8l0,0.07a2.7,2.7,0,0,1-2.63,2,2.79,2.79,0,0,1-.66-0.08,2.71,2.71,0,0,1-2-3.27l0.17-.66" transform="translate(-5708.04 -1598.99)"/><path class="cls-17" d="M6110,1776.61a2.7,2.7,0,0,1,1.18,2.92l-4.64,18.77,4.64-18.77a2.71,2.71,0,0,0-1.18-2.92m-2.67-.16a2.69,2.69,0,0,0-1.29,1.34,2.69,2.69,0,0,1,1.29-1.34m0,0h0" transform="translate(-5708.04 -1598.99)"/><path class="cls-18" d="M6108.53,1776.18a2.68,2.68,0,0,0-1.16.26h0a2.68,2.68,0,0,0-1.29,1.34,3,3,0,0,0-.15.43l-2.55,10.36-2.66,10.76-0.16.66a2.71,2.71,0,0,0,2,3.27,2.75,2.75,0,0,0,.66.08,2.71,2.71,0,0,0,2.63-2l0-.07,0-.13h0l0.7-2.81,4.63-18.77a2.7,2.7,0,0,0-1.18-2.92,2.76,2.76,0,0,0-1.48-.43" transform="translate(-5708.04 -1598.99)"/><path class="cls-18" d="M6081.14,1918l-1.38,1.6h0c0.46-.52.91-1.07,1.36-1.61m15.14-99.87a165.4,165.4,0,0,1-4.83,17.79,199.12,199.12,0,0,1-25.27,50.49l24.28,19.67h0c17.28-24,30.41-53.61,36.2-79.48h0L6127,1825l0-.18,0-.18-30.83-6.5" transform="translate(-5708.04 -1598.99)"/><path class="cls-19" d="M6066.17,1886.39q-1.37,2-2.76,3.83c-13.88,18.71-29.39,31.25-41.73,31.25-0.48,0-1,0-1.43-.06s-1.06-.11-1.58-0.21l-23.47-4.65a63.06,63.06,0,0,1,34.06,35.76c18-2.89,35.37-15.44,50.49-32.75l0,0,1.38-1.6,0.7-.85,0.49-.58q1.94-2.33,3.82-4.75l0.35-.45q1.94-2.51,3.81-5.11l0.14-.19-24.28-19.67h0" transform="translate(-5708.04 -1598.99)"/><path class="cls-5" d="M5863.49,2024l-64.38,3.3a49.17,49.17,0,0,1-38.13-32l-1.65-33.88,95.21-.54c-10.59,36.1,9,63.1,9,63.1" transform="translate(-5708.04 -1598.99)"/><path class="cls-6" d="M5799.11,2027.31a49.17,49.17,0,0,1-38.13-32l24.11-7.94c-0.2,28.15,14,39.92,14,39.92" transform="translate(-5708.04 -1598.99)"/><path class="cls-20" d="M6033.7,2101.39L6033,1972.82c-0.18-34-28.85-61.75-63.71-61.58l-11.3.05c-34.86.17-63.24,28.17-63.06,62.21l0.74,128.22A257.48,257.48,0,0,0,6033.7,2101.39Z" transform="translate(-5708.04 -1598.99)"/><path class="cls-16" d="M5992.38,1864.33l-54.16.72v51.47h0.1c0.88,13.88,12.69,24.85,27.12,24.78a26.83,26.83,0,0,0,26.69-23.13h0.25v-53.86" transform="translate(-5708.04 -1598.99)"/><path class="cls-16" d="M5992.38,1864.33l-54.16.72v51.47h0.1c0.88,13.88,12.69,24.85,27.12,24.78a26.83,26.83,0,0,0,26.69-23.13h0.25v-53.86" transform="translate(-5708.04 -1598.99)"/><path class="cls-1" d="M5708.06,1855c0,141.38,114.61,256,256,256s256-114.61,256-256-114.61-256-256-256-256,114.61-256,256" transform="translate(-5708.04 -1598.99)"/><path class="cls-18" d="M5992.38,1908.81a120.07,120.07,0,0,1-48.93,10.49c-1.61,0-3.22,0-4.82-.1a26.86,26.86,0,0,0,26.67,22.12h0.14a26.84,26.84,0,0,0,26.69-23.13h0.25v-9.38" transform="translate(-5708.04 -1598.99)"/><path class="cls-1" d="M5708.06,1855c0,141.38,114.61,256,256,256s256-114.61,256-256-114.61-256-256-256-256,114.61-256,256" transform="translate(-5708.04 -1598.99)"/><rect class="cls-21" x="211.97" y="438.23" width="242.88" height="56.05"/><path class="cls-21" d="M6004.09,1997.5a73.17,73.17,0,1,0,73.17-73.17,73.17,73.17,0,0,0-73.17,73.17" transform="translate(-5708.04 -1598.99)"/><path class="cls-21" d="M5930.91,2034.1a59.16,59.16,0,1,0,59.16-59.16,59.16,59.16,0,0,0-59.16,59.16" transform="translate(-5708.04 -1598.99)"/><path class="cls-21" d="M5888.88,2054.34a38.92,38.92,0,1,0,38.92-38.92,38.92,38.92,0,0,0-38.92,38.92" transform="translate(-5708.04 -1598.99)"/><path class="cls-21" d="M6095.94,2034.1a59.16,59.16,0,1,0,59.16-59.16,59.16,59.16,0,0,0-59.16,59.16" transform="translate(-5708.04 -1598.99)"/><path class="cls-22" d="M5963.82,2052.94c-0.37,0-.72.09-1.08,0.11a39.6,39.6,0,0,0-67.36-16,52.77,52.77,0,0,0-88.87,38.64v1.88h181.94a24.63,24.63,0,0,0-24.63-24.63" transform="translate(-5708.04 -1598.99)"/><path class="cls-22" d="M5829.21,2057.52a20,20,0,1,0-20,20,20.05,20.05,0,0,0,20-20" transform="translate(-5708.04 -1598.99)"/><path class="cls-22" d="M5919.85,2043.32A56,56,0,1,0,5819,2076.81" transform="translate(-5708.04 -1598.99)"/><path class="cls-22" d="M6078.15,2084.61a25.79,25.79,0,1,1-25.79-25.79,25.79,25.79,0,0,1,25.79,25.79" transform="translate(-5708.04 -1598.99)"/><path class="cls-22" d="M5990.29,2110.41a31.54,31.54,0,1,1,63.07,0" transform="translate(-5708.04 -1598.99)"/><path class="cls-22" d="M5875.11,2072.66a38.08,38.08,0,1,0,38.08-38.08,38.08,38.08,0,0,0-38.08,38.08" transform="translate(-5708.04 -1598.99)"/><path class="cls-22" d="M6010.53,2110.74a46.56,46.56,0,0,0-93.11,0" transform="translate(-5708.04 -1598.99)"/><path class="cls-23" d="M5832.24,1848.88c21.32,36.66,56.87,66.88,74.31,63.58,22.43-4.24,26.9-50.58,59.25-69.29,57.51-33.26,120.12-36.62,74.68-114.73-32.62-56.08-107.88-78.36-165.38-45.1s-75.48,109.46-42.86,165.53" transform="translate(-5708.04 -1598.99)"/><path class="cls-16" d="M5835.79,1765.26c22.63-60.29,90.2-92,150.9-70.84a113.61,113.61,0,0,1,76.24,104.15,114.74,114.74,0,0,1-7.3,43.33c-22.63,60.29-90.19,92-150.9,70.84s-91.58-87.18-68.94-147.47" transform="translate(-5708.04 -1598.99)"/><path class="cls-24" d="M5981.57,1803.72a5.78,5.78,0,1,0-8-2,5.84,5.84,0,0,0,8,2" transform="translate(-5708.04 -1598.99)"/><path class="cls-24" d="M6049.87,1762a5.78,5.78,0,1,0-8-2,5.84,5.84,0,0,0,8,2" transform="translate(-5708.04 -1598.99)"/><path class="cls-23" d="M5871,1821.45c24.51,42.13,37.29,57.18,26.39,90-16.28-9.3-45.79-24.54-67.75-67.55-13.41-26.26-8.89-54-10.9-67.12-6.83-44.54,47.52-79.74,47.52-79.74L5888,1691s-9.84,2.34-.31-0.38c-10.68,14.15-41.54,88.16-16.7,130.85" transform="translate(-5708.04 -1598.99)"/><line class="cls-16" x1="279.59" y1="86.99" x2="279.63" y2="87.05"/><path class="cls-16" d="M5987.67,1686" transform="translate(-5708.04 -1598.99)"/><path class="cls-23" d="M5987.33,1664.74a14.63,14.63,0,0,0-17.5-3.46l-0.09-.13-18.63,12.45c-22.27,6.83-54.32,19.52-79.74,41.14-43.51,37-2.5,36.91-2.5,36.91,11.53,0.73,64.09-31.7,64.09-31.7l49.55-32.7a15.28,15.28,0,0,0,3-2,2.23,2.23,0,0,0,1.31-1.28,14.48,14.48,0,0,0,.53-19.28" transform="translate(-5708.04 -1598.99)"/><path class="cls-25" d="M6015.76,1786.51c-4.67-3-5.87-9.76-2.66-15.1l6.57-10.94c3.21-5.35,9.66-7.3,14.33-4.34s5.87,9.76,2.66,15.11l-6.57,10.94c-3.21,5.35-9.66,7.3-14.34,4.34" transform="translate(-5708.04 -1598.99)"/><path class="cls-24" d="M6035.94,1805.93c5.13-3.1,9.95-1.45,14.5.38a2.07,2.07,0,0,1,.94,2.9c-0.29.56-6.48,4.48-12.5,8.1-5.51,3.32-10.88,6.38-11.44,6.37a2.12,2.12,0,0,1-2.14-2.17c0.15-5.94,5.51-12.48,10.64-15.58" transform="translate(-5708.04 -1598.99)"/><path class="cls-18" d="M5868,1815.69a59.22,59.22,0,0,0,2.94,5.76c6.54,11.25,12.25,20.56,16.89,28.8l0.62-.38a21.38,21.38,0,0,1,10.62-2.89h0.23a20.54,20.54,0,0,1,17.74,10.13,20.1,20.1,0,0,1,2.73,9.93,21.08,21.08,0,0,1-10.62,18.4,21.42,21.42,0,0,1-7.93,2.71,64.82,64.82,0,0,1-3.44,21.92q3.34,1.4,6.8,2.62l0.12,0q1.3,0.45,2.61.88a117.6,117.6,0,0,0,24.49,5.05l0.21-.09v0.11c3.59,0.34,7.25.53,11,.54h0.6c30.81-.08,65.91-12.3,96-48.1-5.51,2.07-12,2.94-19.1,2.94-25.37,0-58.2-11.17-79.4-18.56-33-11.5-57.37-22.15-73.13-39.81" transform="translate(-5708.04 -1598.99)"/><path class="cls-26" d="M5851.16,1708.94c-8.83,7.94-19.54,19.44-26.33,33.21q-0.59,1.19-1.14,2.41a140.85,140.85,0,0,0-4.54,14,54.44,54.44,0,0,0-.87,6.19,51.84,51.84,0,0,0,.42,12.1c2,13.12-2.51,40.87,10.9,67.12q1.18,2.3,2.38,4.5a149.43,149.43,0,0,0,26.39,35.3,141.39,141.39,0,0,0,19.09,15.68,129.61,129.61,0,0,0,20.34,10.66h0a64.9,64.9,0,0,0,3.44-21.92,21.09,21.09,0,0,1-2.8.19,20.54,20.54,0,0,1-17.85-10.13,20.11,20.11,0,0,1-2.73-10.29,21.07,21.07,0,0,1,10-17.66c-4.64-8.24-10.35-17.56-16.89-28.8a59.85,59.85,0,0,1-2.94-5.76c-13.24-14.84-20.39-34.63-21.43-64-0.67-18.88-.62-32.15,4.57-42.74" transform="translate(-5708.04 -1598.99)"/><g class="cls-27"><path class="cls-28" d="M5899.32,1847h-0.23a21.38,21.38,0,0,0-10.62,2.9l-0.62.38a21.06,21.06,0,0,0-10,17.66v0.32a20.07,20.07,0,0,0,2.73,10,20.53,20.53,0,0,0,17.7,10.13h0.3a21.41,21.41,0,0,0,10.58-2.89,21.1,21.1,0,0,0,10.62-18V1867a20.1,20.1,0,0,0-2.73-9.93,20.54,20.54,0,0,0-17.74-10.13" transform="translate(-5708.04 -1598.99)"/></g><path class="cls-17" d="M5761.14,1827.59a2.67,2.67,0,0,0,.27,1.33l3.39,6.87-3.39-6.87a2.67,2.67,0,0,1-.27-1.33m0,0h0m0.15-.73h0m0,0h0m0,0v0m0.36-.66a2.73,2.73,0,0,0-.36.65,2.73,2.73,0,0,1,.36-0.65m2.2-1.1h0a2.71,2.71,0,0,1,1.43.41,2.7,2.7,0,0,0-1.43-.41m14.26-.66,4.87,9.88-4.87-9.88" transform="translate(-5708.04 -1598.99)"/><path class="cls-17" d="M5775,1838.06l1.27,2.57h0l-1.27-2.57m34.52-6.42a3.1,3.1,0,0,1,0,.6l-1.57,19.51,6,11.78-6-11.78,1.57-19.51a3.1,3.1,0,0,0,0-.6m-3-2.88a3,3,0,0,0-2.16.92,3,3,0,0,1,2.16-.92" transform="translate(-5708.04 -1598.99)"/><polyline class="cls-17" points="64.01 233.04 66.98 239.08 66.99 239.08 64.01 233.04"/><path class="cls-17" d="M5813.6,1863.52c13.5,22.77,32.38,43.25,50.19,55.9L5843,1942.74c10.94,8.09,22.3,14.38,33.52,18a29.2,29.2,0,0,1,18.68-6.72c1,0,1.9,0,2.82.13a62.47,62.47,0,0,1,22.36-30.43l-17.38,7.58a19,19,0,0,1-7.35,1.36c-9.64,0-21.94-5.74-34.6-15.25l-0.66-.49c-1-.76-2-1.55-3-2.35l-0.93-.75c-1-.78-1.92-1.6-2.88-2.42l-1-.89q-1.42-1.23-2.83-2.53a198.56,198.56,0,0,1-36.08-44.41h0m-36.87-22.26a2,2,0,0,1-1,1.09,1.88,1.88,0,0,1-.84.2,2.08,2.08,0,0,1-.85-0.19v0a2,2,0,0,0,.79.16,2,2,0,0,0,1.88-1.3m4.55-2.81v0a2,2,0,0,0,1.89.19,1.9,1.9,0,0,1-.74.15,2,2,0,0,1-1.16-.37m3.11-1.46a2,2,0,0,1-.93,1.54,2,2,0,0,0,1-1.5l0,0m18-1.2-0.88,3.28h0l0.88-3.28" transform="translate(-5708.04 -1598.99)"/><path class="cls-29" d="M5895.16,1954a29.21,29.21,0,0,0-18.68,6.72,66,66,0,0,0,19.11,3.3,60.2,60.2,0,0,1,2.4-9.88q-1.39-.13-2.82-0.13" transform="translate(-5708.04 -1598.99)"/><path class="cls-19" d="M5931.73,1918.71l-11.38,5a62.45,62.45,0,0,0-22.36,30.43,60.2,60.2,0,0,0-2.4,9.88h0.74a48.37,48.37,0,0,0,18.75-3.65,40.92,40.92,0,0,0,14-9.56l3-32.05-0.3,0" transform="translate(-5708.04 -1598.99)"/><path class="cls-18" d="M5931.84,1918.66l-0.11,0,0.3,0v-0.06l-0.2,0" transform="translate(-5708.04 -1598.99)"/><path class="cls-30" d="M5932,1918.57l-0.21.09,0.19,0v-0.11" transform="translate(-5708.04 -1598.99)"/><path class="cls-18" d="M5806.53,1828.76a3,3,0,0,0-3,2.47l-1.22,4.58-0.88,3.28,6.45,12.67,1.57-19.51a2.89,2.89,0,0,0,0-.6,3,3,0,0,0-2.5-2.84,2.9,2.9,0,0,0-.52,0" transform="translate(-5708.04 -1598.99)"/><path class="cls-18" d="M5775.74,1810.59a2.74,2.74,0,0,0-1.21.28l-0.2.11a2.72,2.72,0,0,0-1.11,1.28,2.68,2.68,0,0,0,.07,2.23l4.85,9.85,4.87,9.88,1.23,2.49h0l0.16,0.21s0,0,0,.07l0,0a2,2,0,0,0-.19-1.07v0l4.14-2h0a2,2,0,0,0,.95.92v0l-0.07,0-0.12-.46-9.1-18.46-1.85-3.76a2.71,2.71,0,0,0-2.43-1.5" transform="translate(-5708.04 -1598.99)"/><path class="cls-18" d="M5768.83,1816.6a2.74,2.74,0,0,0-2.72,3,2.66,2.66,0,0,0,.26.89l5.68,11.53,4.24,8.6h0l0.45,0.58,0,0.05h0a2,2,0,0,0-.08-1.57v0l4-2v0a2,2,0,0,0,.66.76v0l-0.05,0-0.05-.2-5.94-12.05-4-8.08a2.7,2.7,0,0,0-2.43-1.5" transform="translate(-5708.04 -1598.99)"/><path class="cls-18" d="M5763.88,1825h0a2.76,2.76,0,0,0-2.17,1.1,2.65,2.65,0,0,0-.36.65h0v0h0v0h0a2.7,2.7,0,0,0-.15.72h0v0a2.66,2.66,0,0,0,.27,1.33l3.39,6.87,3.86,7.83,4.4-2.17v0a2,2,0,0,0,1,.94v0l-0.07,0-0.13-.5-7.55-15.32a2.68,2.68,0,0,0-1-1.1,2.74,2.74,0,0,0-1.43-.4" transform="translate(-5708.04 -1598.99)"/><path class="cls-18" d="M5796.75,1829.78l0.31,0.62a2.71,2.71,0,0,1-1.25,3.63,2.75,2.75,0,0,1-1.21.28,2.7,2.7,0,0,1-2.43-1.5l0-.07a2,2,0,0,1-3.77,1.18h0l-4.14,2v0a2,2,0,0,1-.76,2.58l-0.16.09-0.12.05a2,2,0,0,1-1.9-.19,2,2,0,0,1-.66-0.76v0l-4,2v0a2,2,0,0,1,.08,1.57,2,2,0,0,1-2.67,1.14,2,2,0,0,1-1-.94v0l-4.4,2.17h0l7.8,16.74-0.1-.23,28.72-12.95a165.8,165.8,0,0,0,8.53,16.34h0.33l-12.45-24.46h0l-2.81-5.52-1.92-3.78" transform="translate(-5708.04 -1598.99)"/><path class="cls-18" d="M5784.71,1808.77h0a2.74,2.74,0,0,0-2.56,1.77,2.68,2.68,0,0,0,.1,2.14l7.95,16.13,1.94,3.93,0,0.07a2.72,2.72,0,0,0,4.88-2.41l-0.31-.62-2.55-5.16-2-4-5.11-10.36a2.55,2.55,0,0,0-.17-0.3,2.71,2.71,0,0,0-2.25-1.2" transform="translate(-5708.04 -1598.99)"/><path class="cls-18" d="M5805.07,1847.19l-28.72,12.95,0.1,0.23,0.75,1.6h0c11.19,24,30.35,50.09,52.38,69.88h0l0.17,0.15q2.39,2.14,4.82,4.18l0.43,0.36q2.36,2,4.76,3.83l0.6,0.46c0.85,0.65,1.69,1.33,2.54,2l0,0h0l20.83-23.32c-17.81-12.64-36.69-33.13-50.19-55.9a165.52,165.52,0,0,1-8.53-16.34" transform="translate(-5708.04 -1598.99)"/><path class="cls-20" d="M5929.05,1950.79a40.94,40.94,0,0,1-14,9.56c-26.34,11-58.1-3.91-85.47-28.5l19.51-24.42c20.13,18.55,41.14,29.13,53.86,23.84l29.07-12.69" transform="translate(-5708.04 -1598.99)"/><path class="cls-31" d="M6118.16,2006.35l45.85-45.68a49.37,49.37,0,0,0,1.9-49.93l-24.09-24.06-64.56,70.49c34,16.45,40.91,49.19,40.91,49.19" transform="translate(-5708.04 -1598.99)"/><path class="cls-5" d="M6099.2,2024.42l38.63-51.93a49.36,49.36,0,0,0-5.47-49.66L6105,1902.57l-53.49,79.22c36,11.27,47.7,42.64,47.7,42.64" transform="translate(-5708.04 -1598.99)"/><path class="cls-6" d="M6137.82,1972.49a49.36,49.36,0,0,0-5.47-49.66l-20.06,15.72c23.62,15.51,25.53,33.95,25.53,33.95" transform="translate(-5708.04 -1598.99)"/></svg>